<?xml version="1.0" encoding="UTF-8"?>
<svg width="72px" height="40px" viewBox="0 0 72 40" version="1.1" xmlns="http://www.w3.org/2000/svg" xmlns:xlink="http://www.w3.org/1999/xlink">
    <!-- Generator: Sketch 53.2 (72643) - https://sketchapp.com -->
    <title>DCU_Illustration_PLP_Non-Functional_Green_DCU Certificate Guide</title>
    <desc>Created with Sketch.</desc>
    <g id="DCU_Illustration_PLP_Non-Functional_Green_DCU-Certificate-Guide" stroke="none" stroke-width="1" fill="none" fill-rule="evenodd">
        <path d="M57.6078,32.6179 L53.7118,32.6179 L53.7118,36.0209 L55.6788,34.3889 L57.6078,36.0869 L57.6078,32.6179 Z M59.3698,31.9969 L59.3698,39.9999 L55.6408,36.7079 L51.9508,39.7869 L51.9508,31.9969 C51.9508,31.3659 52.4608,30.8469 53.0908,30.8469 L58.2198,30.8469 C58.8498,30.8469 59.3698,31.3659 59.3698,31.9969 L59.3698,31.9969 Z M42.1378,1.7629 C41.9438,1.7809 41.7488,1.8179 41.6198,1.8639 C40.8488,2.1239 39.9598,2.9589 39.7828,4.5349 L39.7638,4.8229 L39.7638,27.9249 C40.3848,27.5079 41.1368,27.2659 41.9338,27.2659 L42.1378,27.2659 L42.1378,1.7629 Z M63.9608,24.3699 L63.9608,28.1469 C63.9608,28.2029 63.9518,28.2589 63.9418,28.3139 L63.9418,28.3239 C63.9608,28.3699 63.9608,28.4169 63.9608,28.4629 L63.9608,34.0459 C63.9608,34.6209 63.4778,35.0939 62.9038,35.0939 L61.4378,35.0939 C60.9558,35.0939 60.5568,34.7049 60.5568,34.2129 C60.5568,33.7299 60.9558,33.3319 61.4378,33.3319 L62.1988,33.3319 L62.1988,29.0279 L41.9618,29.0279 C40.8028,29.0279 39.8008,29.9559 39.7638,31.1149 C39.7268,32.2559 40.6358,33.2579 41.7858,33.3419 L49.9008,33.3319 C50.3928,33.3319 50.7818,33.7299 50.7818,34.2129 C50.7818,34.7049 50.3928,35.0939 49.9008,35.0939 L41.7208,35.0939 C39.5788,34.9459 37.9368,33.1379 38.0028,31.0589 C38.0028,31.0319 38.0028,31.0139 38.0108,30.9849 C38.0028,30.9669 38.0028,30.9479 38.0028,30.9299 L38.0298,4.3679 C38.2618,2.3279 39.4208,0.7419 41.0628,0.1949 C41.1278,0.1769 41.4988,0.0549 41.9808,0.0179 C42.0178,0.0099 42.0448,0.0099 42.0828,0.0099 C42.1568,-0.0001 42.2308,-0.0001 42.3148,-0.0001 L62.9128,-0.0001 C63.4878,-0.0001 63.9608,0.4729 63.9608,1.0479 L63.9608,3.4419 C63.9608,3.9339 63.5618,4.3229 63.0798,4.3229 C62.5878,4.3229 62.1988,3.9339 62.1988,3.4419 L62.1988,1.7629 L43.9008,1.7629 L43.9008,27.2659 L62.1988,27.2659 L62.1988,24.3699 C62.1988,23.8879 62.5878,23.4889 63.0798,23.4889 C63.5618,23.4889 63.9608,23.8879 63.9608,24.3699 L63.9608,24.3699 Z M56.6428,13.6589 C56.6328,13.6489 56.6238,13.6489 56.6138,13.6489 L56.5738,13.6489 L56.5738,13.6989 L56.6138,13.6989 C56.6148,13.6999 56.6138,13.6989 56.6158,13.6999 L56.6188,13.6999 L56.6198,13.6999 C56.7128,13.7089 56.6818,13.7099 56.6328,13.7099 C56.6638,13.7099 56.7038,13.7199 56.7328,13.7289 L56.6728,13.6699 C56.6638,13.6699 56.6538,13.6589 56.6428,13.6589 L56.6428,13.6589 Z M69.6018,13.7799 C69.6018,13.5699 69.5918,13.3509 69.5718,13.1219 L69.5718,13.0819 C69.5618,13.0119 69.5618,12.9519 69.5618,12.8819 L69.5428,12.7719 C69.5428,12.7629 69.5428,12.7529 69.5318,12.7529 L69.5318,12.7129 C69.4618,12.2839 69.3728,11.9149 69.2628,11.5859 C69.1928,11.3759 69.1328,11.1959 69.0628,11.0469 C69.0528,11.0159 69.0528,10.9969 69.0438,10.9769 L69.0238,10.9469 C68.9828,10.8769 68.9538,10.7879 68.9038,10.6869 C68.7238,10.3289 68.5348,10.0099 68.3358,9.7099 C68.2858,9.6399 68.2348,9.5809 68.1958,9.5199 L68.1348,9.4399 C68.1258,9.4309 68.1158,9.4209 68.1158,9.4109 C68.1058,9.4009 68.1058,9.4009 68.1058,9.3899 C68.0658,9.3509 68.0358,9.3109 67.9968,9.2709 C67.9068,9.1719 67.8268,9.0719 67.7268,8.9719 C67.4578,8.6729 67.1878,8.4239 66.9088,8.2039 C66.8988,8.1839 66.8788,8.1739 66.8688,8.1639 C66.8488,8.1539 66.8378,8.1339 66.8188,8.1239 C66.8188,8.1239 66.8188,8.1139 66.8088,8.1139 L66.7788,8.0839 L66.7288,8.0549 C66.6888,8.0239 66.6488,7.9949 66.5998,7.9739 C66.4498,7.8539 66.2908,7.7549 66.1208,7.6649 C65.9708,7.5649 65.8108,7.4749 65.6308,7.3859 C65.5828,7.3659 65.5428,7.3469 65.4928,7.3159 C65.4528,7.2959 65.4128,7.2759 65.3728,7.2659 C65.3418,7.2569 65.3128,7.2459 65.2938,7.2259 L65.2728,7.2169 C65.2428,7.2169 65.2228,7.2059 65.2038,7.1959 C64.7338,7.0159 64.3048,6.8769 63.8958,6.7979 L63.8168,6.7769 C63.6968,6.7579 63.5968,6.7369 63.4868,6.7269 L63.4578,6.7179 L63.4378,6.7179 L63.4178,6.7179 C63.3868,6.7079 63.3578,6.7079 63.3178,6.7079 C63.0288,6.6679 62.8088,6.6579 62.5998,6.6579 C62.1898,6.6579 61.8718,6.6679 61.5728,6.7079 C61.5518,6.7079 61.5318,6.7179 61.5218,6.7179 C61.5118,6.7179 61.4928,6.7179 61.4828,6.7269 L61.3028,6.7479 C61.2428,6.7579 61.1828,6.7769 61.1238,6.7879 C61.0628,6.7979 61.0038,6.8069 60.9438,6.8169 C60.7048,6.8669 60.4558,6.9469 60.2148,7.0159 C60.1058,7.0559 59.9968,7.0969 59.8768,7.1369 C59.8368,7.1459 59.8068,7.1669 59.7768,7.1859 L59.7558,7.1859 C59.7468,7.1959 59.7468,7.1959 59.7368,7.1959 C59.7368,7.1959 59.7268,7.1959 59.7268,7.2059 L59.6968,7.2059 C59.7068,7.2169 59.6968,7.2169 59.6868,7.2169 C59.2678,7.3959 58.8588,7.6259 58.4598,7.8939 C58.3498,7.9649 58.2598,8.0239 58.1698,8.0949 C58.1698,8.1039 58.1608,8.1039 58.1508,8.1139 C58.1408,8.1139 58.1408,8.1139 58.1408,8.1239 C58.1308,8.1339 58.1208,8.1339 58.1108,8.1439 C58.1108,8.1439 58.1008,8.1439 58.1008,8.1539 C58.0708,8.1639 58.0608,8.1839 58.0418,8.1939 C58.0208,8.2139 58.0108,8.2229 57.9908,8.2339 C57.8408,8.3529 57.6818,8.5029 57.4928,8.6919 L57.4828,8.7029 C57.3128,8.8719 57.1328,9.0519 56.9838,9.2409 C56.9538,9.2709 56.8638,9.3709 56.8348,9.4209 L56.8248,9.4209 L56.8248,9.4399 L56.8138,9.4609 C56.7538,9.5199 56.7138,9.5809 56.6648,9.6399 C56.3948,10.0499 56.1458,10.4579 55.9568,10.8879 C55.9458,10.9169 55.9258,10.9469 55.9258,10.9469 C55.9168,10.9669 55.9168,10.9769 55.9168,10.9869 L55.9168,11.0069 L55.8858,11.0559 L55.8768,11.0769 C55.8768,11.0869 55.8668,11.0969 55.8668,11.1059 C55.8268,11.1959 55.7968,11.2859 55.7668,11.3659 L55.7468,11.4349 C55.6758,11.6359 55.5968,11.8849 55.5378,12.1139 C55.4768,12.3629 55.4268,12.6129 55.3978,12.8429 C55.3868,12.9219 55.3778,13.0219 55.3778,13.0419 C55.3778,13.1809 55.3678,13.3009 55.3578,13.4209 C55.3478,13.7399 55.3478,14.0099 55.3678,14.2589 L55.3678,14.2679 C55.3778,14.4179 55.3778,14.5479 55.3978,14.6979 C55.4078,14.7469 55.4078,14.7669 55.4078,14.7769 C55.4178,14.7979 55.4178,14.8269 55.4268,14.8569 C55.4268,14.8879 55.4378,14.9169 55.4378,14.9469 C55.5468,15.5249 55.6968,16.0549 55.8968,16.5629 C55.9068,16.5729 55.9068,16.5829 55.9168,16.5929 L55.9258,16.6129 C55.9358,16.6529 55.9658,16.7029 55.9758,16.7219 C55.9968,16.7629 56.0058,16.7919 56.0258,16.8319 C56.0358,16.8619 56.0558,16.8919 56.0658,16.9219 C56.0868,16.9619 56.1058,17.0019 56.1258,17.0419 C56.1758,17.1219 56.2148,17.2009 56.2658,17.2809 C56.3948,17.5109 56.5348,17.7499 56.7048,17.9789 C56.7138,18.0099 56.7348,18.0289 56.7538,18.0589 C56.7738,18.0789 56.7948,18.1089 56.8138,18.1289 L56.8438,18.1689 C56.8738,18.2089 56.8838,18.2279 56.8938,18.2279 C56.9438,18.2889 56.9938,18.3479 57.0438,18.3979 C57.0928,18.4579 57.1328,18.5079 57.1828,18.5679 C57.4128,18.8169 57.6218,19.0159 57.8218,19.1959 C57.9108,19.2659 57.9808,19.3259 58.0508,19.3859 C58.0608,19.3949 58.0708,19.4059 58.0808,19.4059 C58.0908,19.4159 58.1008,19.4259 58.1108,19.4259 L58.1308,19.4459 L58.1408,19.4559 C58.1508,19.4559 58.1608,19.4659 58.1608,19.4749 L58.4498,19.6749 C58.6488,19.8139 58.8788,19.9439 59.1688,20.1039 C59.3278,20.1829 59.4668,20.2539 59.5968,20.3129 C59.6068,20.3129 59.6278,20.3229 59.6468,20.3339 C59.6568,20.3339 59.6668,20.3439 59.6758,20.3439 C59.6868,20.3529 59.6968,20.3529 59.7068,20.3629 C59.7368,20.3729 59.7558,20.3839 59.7768,20.3929 C59.7958,20.4029 59.8168,20.4129 59.8368,20.4129 L59.8458,20.4229 C60.1058,20.5129 60.3758,20.6019 60.6448,20.6729 C60.8828,20.7319 61.1528,20.7919 61.4528,20.8419 C61.4618,20.8419 61.4718,20.8519 61.4828,20.8519 L61.5218,20.8519 C61.5318,20.8619 61.5618,20.8619 61.5918,20.8619 C61.6718,20.8719 61.7418,20.8819 61.8008,20.8819 L62.2598,20.9119 L62.5798,20.9119 C62.7988,20.9119 63.0388,20.9019 63.2578,20.8819 L63.2678,20.8819 C63.3368,20.8719 63.4178,20.8619 63.4868,20.8519 C63.5168,20.8419 63.5568,20.8419 63.5668,20.8419 C63.7268,20.8119 63.8668,20.7819 64.0158,20.7529 C64.3248,20.6819 64.6438,20.5829 64.9728,20.4729 C65.0338,20.4429 65.1138,20.4129 65.1828,20.3839 L65.2038,20.3839 C65.2038,20.3839 65.2128,20.3839 65.2128,20.3729 L65.2428,20.3729 C65.2938,20.3439 65.3228,20.3339 65.3228,20.3339 C65.3628,20.3129 65.4128,20.2939 65.4618,20.2639 C65.5218,20.2329 65.5828,20.2039 65.6418,20.1739 C65.8808,20.0549 66.2008,19.8849 66.4898,19.6849 C66.5588,19.6359 66.6288,19.5849 66.6998,19.5349 C66.7288,19.5149 66.7588,19.4959 66.7898,19.4659 C66.7988,19.4659 66.8188,19.4559 66.8488,19.4259 C66.8788,19.4059 66.9088,19.3759 66.9088,19.3759 C66.9278,19.3659 66.9488,19.3459 66.9588,19.3359 C67.0078,19.2959 67.0478,19.2659 67.0878,19.2259 C67.3178,19.0369 67.5278,18.8269 67.7168,18.6179 L68.0958,18.1989 C68.0958,18.1879 68.0958,18.1879 68.1058,18.1879 L68.1158,18.1589 C68.1348,18.1289 68.1448,18.1189 68.1448,18.1189 C68.4848,17.6499 68.7538,17.2009 68.9628,16.7529 C68.9938,16.6919 69.0128,16.6419 69.0438,16.5829 C69.0438,16.5729 69.0528,16.5529 69.0628,16.5429 C69.0628,16.5229 69.0728,16.5229 69.0728,16.5129 C69.0728,16.5029 69.0838,16.4929 69.0838,16.4929 C69.1028,16.4129 69.1328,16.3529 69.1528,16.2939 C69.1728,16.2229 69.2028,16.1639 69.2228,16.1039 C69.3128,15.8249 69.3818,15.5649 69.4318,15.3259 C69.4718,15.1669 69.5028,15.0069 69.5318,14.8569 L69.5718,14.6179 C69.5828,14.3479 69.6018,14.0589 69.6018,13.7799 L69.6018,13.7799 Z M71.5168,13.7499 L71.5168,13.8089 C71.5168,14.0189 71.5168,14.2279 71.4978,14.4289 C71.2968,16.9419 70.1108,19.2359 68.2648,20.7319 C67.1178,21.6599 65.8908,22.2779 64.5938,22.5879 C64.1688,22.6889 63.8008,22.7319 63.5378,22.7579 C63.2148,22.7979 62.8538,22.8259 62.4578,22.8259 C62.1568,22.8269 61.8778,22.8109 61.6218,22.7869 C61.2228,22.7469 60.8438,22.6969 60.4748,22.6069 C57.9618,22.0489 55.7468,20.3729 54.5398,18.1289 C53.3728,15.9649 53.1138,13.4209 53.8118,11.1459 C54.4598,9.1009 55.7968,7.3359 57.5828,6.1689 C59.4768,4.9519 61.8808,4.4829 64.1658,4.9019 C66.1708,5.2619 68.0658,6.3579 69.3518,7.9149 C70.7588,9.5999 71.5068,11.6149 71.5168,13.7499 L71.5168,13.7499 Z M61.9618,11.7449 C61.8908,11.8749 61.8808,12.0239 61.9308,12.1839 C61.9708,12.3339 62.0808,12.4529 62.2108,12.5029 L63.7868,13.2909 C64.3548,13.5809 64.8038,14.1089 65.0038,14.7269 L65.0038,14.7479 C65.0728,15.0269 65.1028,15.2359 65.1028,15.4349 C65.1028,16.4529 64.4448,17.3709 63.4868,17.6899 L63.4868,18.3679 C63.4578,18.5479 63.3678,18.6869 63.2278,18.8469 C63.0388,19.0369 62.8288,19.1269 62.5698,19.1269 C62.1308,19.1159 61.7418,18.7979 61.6718,18.3789 L61.6718,17.6899 C60.7348,17.3709 60.1158,16.5229 60.0758,15.5459 C60.1348,15.0559 60.5038,14.6979 60.9628,14.6869 L60.9838,14.6869 C61.4528,14.6869 61.8318,15.0269 61.8908,15.4849 C61.9008,15.5749 61.9418,15.7349 62.0898,15.8649 C62.1908,15.9539 62.3308,16.0139 62.4798,16.0239 L62.7098,16.0239 C62.9188,16.0239 63.1178,15.8939 63.2178,15.7049 C63.2778,15.5559 63.2878,15.4059 63.2488,15.2659 C63.1978,15.1159 63.0978,14.9969 62.9588,14.9269 L61.3928,14.1489 C60.8038,13.8489 60.3658,13.3309 60.1858,12.7219 C59.9858,12.1039 60.0458,11.4559 60.3548,10.8879 C60.6338,10.3479 61.1028,9.9389 61.6628,9.7499 L61.6628,9.2709 C61.6418,9.0609 61.7318,8.8319 61.9008,8.6419 C62.0808,8.4529 62.3208,8.3529 62.5698,8.3529 L62.6388,8.3529 C63.0278,8.3529 63.3868,8.6329 63.4768,9.0319 C63.5068,9.0919 63.5068,9.1909 63.5068,9.1909 L63.5068,9.7499 C64.4248,10.0689 65.0628,10.9269 65.1028,11.9049 C65.0128,12.3929 64.6448,12.7319 64.1958,12.7319 L64.1458,12.7319 C63.7268,12.7129 63.3678,12.4029 63.2778,11.9839 C63.2678,11.8149 63.1978,11.6849 63.0878,11.5859 C62.9688,11.4659 62.8088,11.4349 62.6998,11.4259 L62.4698,11.4259 C62.2598,11.4259 62.0608,11.5459 61.9618,11.7449 L61.9618,11.7449 Z" id="Fill-1" fill="#01675A"></path>
    </g>
</svg>