<?xml version="1.0" encoding="UTF-8"?>
<svg width="58px" height="60px" viewBox="0 0 58 60" version="1.1" xmlns="http://www.w3.org/2000/svg" xmlns:xlink="http://www.w3.org/1999/xlink">
    <!-- Generator: Sketch 53.2 (72643) - https://sketchapp.com -->
    <title>DCU_Illustration_Community_Non-Functional_Green_Make-A-Difference</title>
    <desc>Created with Sketch.</desc>
    <g id="DCU_Illustration_Community_Non-Functional_Green_Make-A-Difference" stroke="none" stroke-width="1" fill="none" fill-rule="evenodd">
        <path d="M50.2004431,39.5550031 C50.658076,37.276787 50.8063093,35.7954491 50.2402372,34.9587767 C50.2103916,34.9199774 50.1795511,34.8901317 50.1507003,34.8692398 C50.2203401,33.7550031 50.3486763,32.302516 50.4889508,31.6260151 C50.7774585,31.6260151 51.264937,31.715552 51.4539593,31.8349345 C51.3544739,32.9193256 51.2549885,34.2424816 51.1555031,35.6452261 L51.1555031,35.6850202 C51.0162235,37.6259808 50.8172527,40.2613496 50.6481274,40.9080048 C49.5537878,42.1515726 45.9514208,45.0068041 45.0272012,44.7282449 C44.6988993,44.6297544 44.4302887,44.5292741 44.2014722,44.4297887 C44.4402372,44.2915039 44.707853,44.1223787 44.9675099,43.9632021 C48.2505288,41.9734937 49.961678,40.7388796 50.2004431,39.5550031 L50.2004431,39.5550031 Z M57.9901515,29.8352775 C57.8409233,28.7210408 56.7366352,27.935106 55.1647655,27.825672 C53.7620211,27.7261866 52.1603058,28.2733564 51.7723127,29.6969928 C51.7524156,29.7467355 51.7424671,29.7954834 51.7325185,29.8551746 C51.6429816,29.8153804 51.5434962,29.7954834 51.4440108,29.7656377 C50.3297741,29.5169242 49.0464122,29.7258436 48.6872698,30.7813839 C48.4296026,31.5563753 48.2704259,33.7152089 48.2007861,34.7001146 C44.8083333,36.3615211 34.2618839,44.3104062 33.8251429,45.3261523 C33.5067895,46.051401 32.9894654,48.8479362 32.0234619,55.0050889 L32.0145082,55.0846772 C31.9438736,55.522413 31.8951257,55.8218642 31.8752286,55.9412467 C31.7856918,56.4675245 32.1438393,56.9858436 32.671112,57.0743856 C33.2083333,57.1639225 33.7157089,56.8067698 33.8052458,56.2794971 C33.8251429,56.1591197 33.8748856,55.8616583 33.9445254,55.4229276 L33.9544739,55.3144885 C34.7901515,49.9721214 35.3860691,46.638365 35.5661377,46.201624 C36.2625357,45.1958264 45.7534448,38.2517441 48.658419,36.5913324 C48.6474756,37.1375074 48.5191395,37.9940768 48.290323,39.1371643 C48.051558,39.7937681 44.9774585,41.6740425 43.9527587,42.2908521 C42.6594482,43.0668384 42.3500485,43.2658093 42.1520726,43.5642655 C41.8735134,43.9821043 41.8038736,44.4606292 41.9630503,44.9182621 C42.2207175,45.6435108 42.9976986,46.1707835 44.4591395,46.6095142 C47.2059319,47.4352432 52.2001,42.1217269 52.2398942,42.0630305 C52.6268925,41.5954491 52.7472698,40.7786738 53.1054173,35.7845057 C53.264594,33.5172329 53.4536163,30.9296172 53.6525871,30.2232707 C53.7122784,30.0044027 54.1699113,29.7755863 54.8464122,29.7755863 C55.5129645,29.7755863 55.9208547,29.9954491 56.0292938,30.0939396 C55.7009919,36.0133221 55.2344053,42.619154 55.0254859,43.6438539 C54.0793796,44.5899602 47.35516,49.2259808 43.9219182,51.5330477 C42.6892938,52.3488281 42.6385563,58.0602861 42.6385563,58.1189825 C42.6594482,58.6462552 43.0872355,59.064094 43.6543024,59.064094 C44.1915237,59.0451918 44.619311,58.586564 44.5994139,58.0503376 C44.5695683,57.1848144 44.8680245,53.8411094 45.1565322,53.0551746 C50.2402372,49.6527732 56.3575957,45.4246429 56.7754345,44.5292741 C57.1544739,43.7333907 57.651901,36.2023444 58.0001,30.0143513 C58.0001,29.9556549 58.0001,29.8949688 57.9901515,29.8352775 L57.9901515,29.8352775 Z M32.6611635,34.9985708 C36.8992424,31.2479705 39.6748856,25.4390168 39.9633933,19.6688624 L45.6141652,19.6688624 C45.1764293,27.1491712 39.9027072,33.3670099 32.6611635,34.9985708 L32.6611635,34.9985708 Z M30.0337535,34.601624 L30.0337535,19.6688624 L38.0035305,19.6688624 C37.6851772,25.4977132 34.5016437,31.4379877 30.0337535,34.601624 L30.0337535,34.601624 Z M30.0337535,2.78519177 C34.5016437,5.93887959 37.6851772,11.8881077 38.0035305,17.7080048 L30.0337535,17.7080048 L30.0337535,2.78519177 Z M32.6611635,2.38824494 C39.9027072,4.01881098 45.1764293,10.2366497 45.6141652,17.7080048 L39.9633933,17.7080048 C39.6748856,11.9378504 36.8992424,6.12790189 32.6611635,2.38824494 L32.6611635,2.38824494 Z M28.0748856,17.7080048 L20.1061034,17.7080048 C20.4344053,11.8881077 23.6079902,5.93887959 28.0748856,2.78519177 L28.0748856,17.7080048 Z M28.0748856,34.601624 C23.6079902,31.4479362 20.4344053,25.4977132 20.1061034,19.6688624 L28.0748856,19.6688624 L28.0748856,34.601624 Z M12.4954688,19.6688624 L18.1462407,19.6688624 C18.4446969,25.4390168 21.2203401,31.2479705 25.4484705,34.9985708 C18.2059319,33.3670099 12.9332046,27.1491712 12.4954688,19.6688624 L12.4954688,19.6688624 Z M25.4484705,2.38824494 C21.2203401,6.12790189 18.4446969,11.9378504 18.1462407,17.7080048 L12.4954688,17.7080048 C12.9332046,10.2366497 18.2059319,4.01881098 25.4484705,2.38824494 L25.4484705,2.38824494 Z M42.2018153,5.52104082 C38.8491566,2.13953139 34.213136,0.0304404803 29.109534,-0.0004 L29.0498427,-0.0004 C18.8227415,0.0393941681 10.4958118,8.41606655 10.4958118,18.6929105 C10.4958118,28.9608007 18.8227415,37.3464268 29.0597913,37.3772672 C39.296841,37.3464268 47.6237707,28.9608007 47.6237707,18.6929105 C47.6237707,13.5594628 45.5544739,8.90354511 42.2018153,5.52104082 L42.2018153,5.52104082 Z M7.75996278,34.9587767 C7.19289588,35.7845057 7.34212401,37.2668384 7.79975695,39.5659465 C8.02757856,40.7488281 9.73972264,41.9734937 13.0326901,43.9632021 L13.3013007,44.1323273 C13.4704259,44.2308178 13.6395511,44.3412467 13.7877844,44.4297887 C13.5599628,44.5292741 13.2903573,44.6297544 12.9729988,44.7282449 C11.9980417,45.0167527 8.42651509,42.1217269 7.35207256,40.9080048 C7.19289588,40.3120871 7.02377067,38.033871 6.88449108,36.1923959 L6.84469691,35.6452261 C6.74521149,34.2633736 6.64572607,32.9193256 6.54624065,31.8349345 C6.73526295,31.715552 7.23269005,31.6170614 7.51124923,31.6260151 C7.64058027,32.302516 7.76991132,33.7550031 7.83955111,34.8592913 C7.80970549,34.8901317 7.77886501,34.9199774 7.75996278,34.9587767 L7.75996278,34.9587767 Z M26.1150228,55.9014525 C26.0951257,55.7512295 26.0354345,55.4328762 25.9747484,55.0050889 C25.0107346,48.8578847 24.4934105,46.051401 24.1850057,45.3261523 C23.787064,44.4397372 13.3013007,36.3913667 9.78946535,34.690166 C9.66013431,32.6417612 9.49100909,31.3275588 9.31094048,30.7813839 C9.01347907,29.866118 7.89824751,29.4671815 6.55618919,29.7656377 C6.45670377,29.7865297 6.35721835,29.8153804 6.26768148,29.8452261 C6.25773293,29.8263238 6.25773293,29.8054319 6.25773293,29.7865297 L6.22788731,29.6969928 C5.83989417,28.2733564 4.21828182,27.7261866 2.83543448,27.825672 C1.26356484,27.935106 0.159276672,28.7309894 0.010048542,29.8263238 C0.0001,29.8850202 0.0001,29.9457063 0.0001,30.0242998 C0.527372727,39.1580563 0.925314408,43.902516 1.21382213,44.5292741 C1.64061458,45.4345914 7.75996278,49.6627218 12.8436678,53.0551746 C13.142124,53.8719499 13.4306317,57.283305 13.4007861,58.0503376 C13.3908376,58.5975074 13.8086763,59.0451918 14.3757432,59.064094 C14.903016,59.064094 15.3407518,58.6462552 15.359654,58.109034 C15.359654,58.0503376 15.3009576,52.3587767 14.0762921,51.5230991 C10.7843196,49.3244714 3.99941389,44.6486566 2.99461115,43.6538024 C2.75584614,42.489823 2.29821321,35.993425 1.95996278,30.0939396 C2.06939674,29.9954491 2.48723551,29.7755863 3.16373636,29.7755863 C3.83028868,29.7755863 4.28792161,30.0044027 4.34761286,30.2232707 C4.4162578,30.4819328 4.49684099,30.9992569 4.58538302,31.8050889 C4.57642933,31.8349345 4.58538302,31.865775 4.58538302,31.8846772 C4.58538302,31.9145228 4.58538302,31.9354148 4.59632642,31.9642655 C4.67591475,32.7999431 4.74555455,33.8146943 4.82514288,34.8294456 L4.89478268,35.7845057 C5.26287873,40.838365 5.37131784,41.6053976 5.75035729,42.0630305 C5.8001,42.1217269 10.8032218,47.4451918 13.5390708,46.6095142 C15.0313521,46.1508864 15.7774928,45.6435108 16.0262063,44.9182621 C16.1963264,44.4606292 16.1266866,43.9821043 15.8481274,43.5642655 C15.6491566,43.2658093 15.3407518,43.0668384 14.0364979,42.2908521 L13.7788307,42.1326703 C12.623805,41.4153804 9.92874494,39.7539739 9.71982556,39.1670099 C9.49100909,38.0229276 9.36167804,37.1474559 9.33183242,36.6002861 C12.1771154,38.2218985 21.7277158,45.1858779 22.3843196,46.1220357 C22.5136506,46.4194971 22.9115923,48.0321557 24.0357775,55.3035451 L24.0954688,55.6716412 C24.1452115,55.9810408 24.1750571,56.1899602 24.1939593,56.2685537 C24.2844911,56.8067698 24.7819182,57.1639225 25.3191395,57.0743856 C25.5778015,57.0256377 25.8056232,56.8863581 25.9558461,56.6664954 C26.1050743,56.457576 26.1647655,56.1989139 26.1249714,55.9412467 L26.1150228,55.9014525 Z" id="Fill-1" fill="#01675A"></path>
    </g>
</svg>