<?xml version="1.0" encoding="UTF-8"?>
<svg width="72px" height="40px" viewBox="0 0 72 40" version="1.1" xmlns="http://www.w3.org/2000/svg" xmlns:xlink="http://www.w3.org/1999/xlink">
    <!-- Generator: Sketch 53.2 (72643) - https://sketchapp.com -->
    <title>DCU_Illustration_PLP_Non-Functional_Green_Visa Platinum Credit Card</title>
    <desc>Created with Sketch.</desc>
    <g id="DCU_Illustration_PLP_Non-Functional_Green_Visa-Platinum-Credit-Card" stroke="none" stroke-width="1" fill="none" fill-rule="evenodd">
        <path d="M69.603,36.761 C69.603,37.388 69.091,37.9 68.464,37.9 L18.051,37.9 C17.425,37.9 16.913,37.388 16.913,36.761 L16.913,14.534 L69.603,14.534 L69.603,36.761 Z M16.919,3.331 C16.919,2.705 17.432,2.193 18.058,2.193 L68.466,2.193 C69.093,2.193 69.605,2.705 69.605,3.331 L69.605,12.441 L16.919,12.441 L16.919,3.331 Z M68.143,-3.55271368e-15 L18.373,-3.55271368e-15 C16.518,-3.55271368e-15 15,1.518 15,3.373 L15,36.628 C15,38.494 16.518,40 18.373,40 L68.143,40 C70.009,40 71.515,38.494 71.515,36.628 L71.515,3.373 C71.515,1.518 70.009,-3.55271368e-15 68.143,-3.55271368e-15 L68.143,-3.55271368e-15 Z" id="Fill-1" fill="#01675A"></path>
    </g>
</svg>