<?xml version="1.0" encoding="UTF-8"?>
<svg width="72px" height="40px" viewBox="0 0 72 40" version="1.1" xmlns="http://www.w3.org/2000/svg" xmlns:xlink="http://www.w3.org/1999/xlink">
    <!-- Generator: Sketch 53.2 (72643) - https://sketchapp.com -->
    <title>DCU_Illustration_PLP_Non-Functional_Green_DCU Education Center</title>
    <desc>Created with Sketch.</desc>
    <g id="DCU_Illustration_PLP_Non-Functional_Green_DCU-Education-Center" stroke="none" stroke-width="1" fill="none" fill-rule="evenodd">
        <path d="M27.7767,32.2594 C27.8457,32.5384 27.8767,32.7474 27.8767,32.9464 C27.8767,33.9624 27.2177,34.8794 26.2617,35.1974 L26.2617,35.8754 C26.2317,36.0554 26.1427,36.1944 26.0037,36.3544 C25.8137,36.5424 25.6047,36.6324 25.3457,36.6324 C24.9077,36.6224 24.5187,36.3044 24.4487,35.8854 L24.4487,35.1974 C23.5117,34.8794 22.8947,34.0324 22.8547,33.0564 C22.9147,32.5684 23.2837,32.2094 23.7417,32.1994 L23.7617,32.1994 C24.2297,32.1994 24.6087,32.5384 24.6687,32.9964 C24.6777,33.0864 24.7177,33.2454 24.8677,33.3744 C24.9667,33.4644 25.1067,33.5244 25.2557,33.5344 L25.4847,33.5344 C25.6947,33.5344 25.8937,33.4054 25.9937,33.2154 C26.0527,33.0664 26.0627,32.9164 26.0227,32.7774 C25.9727,32.6274 25.8737,32.5084 25.7337,32.4394 L24.1707,31.6614 C23.5827,31.3634 23.1437,30.8444 22.9647,30.2374 C22.7647,29.6194 22.8257,28.9714 23.1337,28.4044 C23.4137,27.8654 23.8807,27.4574 24.4387,27.2684 L24.4387,26.7894 C24.4197,26.5804 24.5087,26.3514 24.6777,26.1624 C24.8577,25.9734 25.0957,25.8734 25.3457,25.8734 L25.4157,25.8734 C25.8037,25.8734 26.1627,26.1524 26.2527,26.5514 C26.2817,26.6114 26.2817,26.7104 26.2817,26.7104 L26.2817,27.2684 C27.1987,27.5864 27.8367,28.4444 27.8767,29.4204 C27.7867,29.9074 27.4177,30.2464 26.9687,30.2464 L26.9197,30.2464 C26.5017,30.2274 26.1427,29.9184 26.0527,29.4994 C26.0437,29.3304 25.9727,29.2004 25.8637,29.1014 C25.7447,28.9824 25.5847,28.9514 25.4747,28.9424 L25.2467,28.9424 C25.0367,28.9424 24.8377,29.0614 24.7377,29.2604 C24.6687,29.3904 24.6587,29.5394 24.7087,29.6984 C24.7477,29.8484 24.8577,29.9684 24.9867,30.0184 L26.5607,30.8054 C27.1297,31.0934 27.5777,31.6214 27.7767,32.2394 L27.7767,32.2594 Z M66.1507,29.3404 L68.0337,24.9474 L69.9167,29.3504 L66.1507,29.3404 Z M40.2987,17.6144 C37.3397,16.7084 20.4647,11.4884 15.1837,9.8444 C19.7467,8.4494 24.3097,7.0544 28.8727,5.6594 C32.6777,4.5044 36.4727,3.3384 40.2787,2.1834 C40.6377,2.2924 43.1687,3.0794 61.8567,8.8384 L41.5237,8.8184 C41.0157,8.8184 40.6677,8.9274 40.4487,9.1564 C40.2687,9.3464 40.1997,9.6354 40.2287,9.9934 C40.2897,10.8504 41.1057,10.8504 41.9027,10.8504 L62.3757,10.8604 C59.1767,11.8464 40.9967,17.4054 40.2987,17.6144 L40.2987,17.6144 Z M55.7507,28.4344 C55.3117,28.6834 54.8537,28.9024 54.4157,29.1014 L54.3557,29.1314 C52.3737,30.0284 49.6537,31.2534 41.7837,31.2924 C39.3417,31.3134 36.6027,31.1544 34.0917,30.8344 C33.8637,26.1624 30.0477,22.5164 25.3657,22.5164 C25.1167,22.5164 24.8577,22.5264 24.5587,22.5564 L24.5287,14.8754 L24.9767,15.0144 C28.2647,16.0504 30.8647,16.8674 32.8567,17.5054 C38.1467,19.1684 40.2787,19.7374 40.2987,19.7374 L40.3187,19.7464 L55.7697,14.9354 L55.7507,28.4344 Z M25.3657,38.2464 C21.5097,38.2464 18.3727,35.1084 18.3727,31.2534 C18.3727,27.3984 21.5097,24.2594 25.3657,24.2594 C29.2207,24.2594 32.3587,27.3984 32.3587,31.2534 C32.3587,35.1084 29.2207,38.2464 25.3657,38.2464 L25.3657,38.2464 Z M71.6997,29.6294 L69.0407,22.8554 C69.0197,22.7954 69.0097,22.7354 69.0097,22.6464 C69.0097,19.7464 69.0307,17.4454 69.0497,15.7724 C69.0997,9.2864 69.0997,9.0374 68.0937,8.7384 L40.6767,0.1114 C40.3887,-0.0286 40.0497,-0.0386 39.8107,0.0914 L11.9757,8.5894 C11.4087,8.7484 11.0097,9.2864 11.0007,9.9344 C11.0007,10.4614 11.3687,10.9804 11.9467,11.2584 L22.2667,14.4474 C22.5267,14.5264 22.6757,14.7554 22.6757,15.0344 L22.6757,22.9454 C19.0587,24.1194 16.6287,27.4574 16.6287,31.2534 C16.6287,36.0744 20.5447,39.9994 25.3657,39.9994 C29.5597,39.9994 33.1557,37.0214 33.9427,32.9064 C35.2087,33.0664 36.4137,33.1754 37.6487,33.2454 L38.0277,33.2454 C38.4657,33.2364 39.1327,33.2254 39.9797,33.2854 C44.1047,33.5844 53.5187,32.7174 56.8167,30.0284 C57.5637,29.4094 57.7327,29.0614 57.6537,28.2944 L57.6727,14.9754 C57.6727,14.7364 57.8417,14.5064 58.0817,14.4264 L66.3807,12.0564 C66.5597,12.0064 66.7487,12.0354 66.8877,12.1454 C67.0377,12.2554 67.1277,12.4244 67.1277,12.6134 L67.1077,22.6464 C67.1077,22.7054 67.0777,22.7844 67.0577,22.8554 L64.2777,29.6294 C64.1487,30.0284 64.1377,30.5664 64.4267,30.8344 C64.6567,31.1834 65.0457,31.3824 65.5037,31.3824 L70.4647,31.4034 C70.8427,31.4034 71.2127,31.2134 71.5607,30.8444 C71.7987,30.4864 71.8487,30.0774 71.6997,29.6294 L71.6997,29.6294 Z" id="Fill-1" fill="#01675A"></path>
    </g>
</svg>