<?xml version="1.0" encoding="UTF-8"?>
<svg width="72px" height="40px" viewBox="0 0 72 40" version="1.1" xmlns="http://www.w3.org/2000/svg" xmlns:xlink="http://www.w3.org/1999/xlink">
    <!-- Generator: Sketch 53.2 (72643) - https://sketchapp.com -->
    <title>DCU_Illustration_PLP_Non-Functional_Green_DCU Free Checking</title>
    <desc>Created with Sketch.</desc>
    <g id="DCU_Illustration_PLP_Non-Functional_Green_DCU-Free-Checking" stroke="none" stroke-width="1" fill="none" fill-rule="evenodd">
        <path d="M68.4898,11.9099 L52.9298,2.3699 L37.9398,11.8999 L68.4898,11.9099 Z M71.9498,11.9999 L71.9498,13.9999 L33.9998,13.9709 L33.9998,11.9709 L52.9798,-0.0001 L71.9498,11.9999 Z M34.0148,39.4559 L71.9378,39.4559 L71.9378,37.3639 L34.0148,37.3639 L34.0148,39.4559 Z M67.2438,34.6929 L69.2568,34.6929 L69.2568,16.4979 L67.2438,16.4979 L67.2438,34.6929 Z M36.6968,34.6929 L38.7098,34.6929 L38.7098,16.4979 L36.6968,16.4979 L36.6968,34.6929 Z M60.3098,25.5899 C60.3098,21.5499 57.0198,18.2599 52.9798,18.2599 C48.9298,18.2599 45.6398,21.5499 45.6398,25.5899 C45.6398,29.6399 48.9298,32.9199 52.9798,32.9199 C57.0198,32.9199 60.3098,29.6399 60.3098,25.5899 L60.3098,25.5899 Z M61.9598,25.5899 C61.9598,30.5499 57.9298,34.5899 52.9798,34.5899 C48.0298,34.5899 43.9898,30.5499 43.9898,25.5899 C43.9898,20.6399 48.0298,16.5999 52.9798,16.5999 C57.9298,16.5999 61.9598,20.6399 61.9598,25.5899 L61.9598,25.5899 Z M57.5698,22.7099 C57.5798,22.9399 57.5108,23.1599 57.3598,23.3199 L52.3598,28.9799 C52.1898,29.1699 51.9698,29.2599 51.7498,29.2599 C51.4998,29.2599 51.2898,29.1809 51.1298,29.0199 L48.6298,26.4999 C48.4698,26.3499 48.3798,26.1299 48.3798,25.8999 C48.3798,25.6809 48.4698,25.4599 48.6298,25.2999 C48.9498,24.9899 49.5108,24.9899 49.8298,25.2999 L51.6898,27.1809 L56.0998,22.1899 C56.2498,22.0299 56.4598,21.9309 56.6798,21.9199 L56.7298,21.9199 C56.9298,21.9199 57.1398,21.9999 57.2898,22.1299 C57.4598,22.2799 57.5598,22.4899 57.5698,22.7099 L57.5698,22.7099 Z" id="Fill-1" fill="#01675A"></path>
    </g>
</svg>