<?xml version="1.0" encoding="UTF-8"?>
<svg width="72px" height="40px" viewBox="0 0 72 40" version="1.1" xmlns="http://www.w3.org/2000/svg" xmlns:xlink="http://www.w3.org/1999/xlink">
    <!-- Generator: Sketch 53.2 (72643) - https://sketchapp.com -->
    <title>DCU_Illustration_PLP_Non-Functional_Green_Personal Loan</title>
    <desc>Created with Sketch.</desc>
    <g id="DCU_Illustration_PLP_Non-Functional_Green_Personal-Loan" stroke="none" stroke-width="1" fill="none" fill-rule="evenodd">
        <path d="M51.8196,10.1519 C51.8886,10.4409 51.9196,10.6599 51.9196,10.8689 C51.9196,11.9249 51.2316,12.8819 50.2356,13.2199 L50.2356,13.9279 C50.2056,14.1069 50.1156,14.2559 49.9656,14.4159 C49.7766,14.6149 49.5486,14.7049 49.2786,14.7049 C48.8206,14.6949 48.4316,14.3659 48.3526,13.9379 L48.3526,13.2199 C47.3856,12.8819 46.7286,12.0049 46.6886,10.9789 C46.7576,10.4709 47.1366,10.1119 47.6156,10.1019 L47.6346,10.1019 C48.1236,10.1019 48.5216,10.4409 48.5816,10.9189 C48.5906,11.0289 48.6406,11.1879 48.7806,11.3179 C48.8896,11.4169 49.0396,11.4769 49.1896,11.4869 L49.4276,11.4869 C49.6476,11.4869 49.8566,11.3579 49.9566,11.1479 C50.0256,10.9989 50.0366,10.8389 49.9866,10.6899 C49.9366,10.5299 49.8376,10.4109 49.6876,10.3409 L48.0636,9.5249 C47.4556,9.2149 46.9976,8.6769 46.7986,8.0499 C46.5986,7.4019 46.6586,6.7249 46.9876,6.1369 C47.2766,5.5789 47.7546,5.1609 48.3416,4.9619 L48.3416,4.4529 C48.3226,4.2439 48.4126,3.9949 48.5906,3.7959 C48.7906,3.5869 49.0596,3.4769 49.3486,3.4969 L49.3586,3.4969 C49.7666,3.4969 50.1356,3.7959 50.2246,4.2039 C50.2456,4.2539 50.2556,4.3239 50.2556,4.3739 L50.2556,4.9619 C51.2126,5.2899 51.8696,6.1769 51.9196,7.1929 C51.8296,7.7009 51.4406,8.0499 50.9826,8.0499 L50.9236,8.0499 C50.4846,8.0299 50.1156,7.7109 50.0256,7.2829 C50.0156,7.0929 49.9466,6.9639 49.8266,6.8639 C49.6976,6.7349 49.5376,6.6949 49.4186,6.6949 L49.1786,6.6949 C48.9606,6.6949 48.7516,6.8239 48.6406,7.0239 C48.5716,7.1629 48.5616,7.3219 48.6116,7.4819 C48.6616,7.6409 48.7706,7.7709 48.9106,7.8209 L50.5446,8.6379 C51.1416,8.9459 51.5996,9.4849 51.8096,10.1319 L51.8196,10.1519 Z M49.2986,16.3889 C45.2836,16.3889 42.0066,13.1209 42.0066,9.1059 C42.0066,5.0809 45.2836,1.8129 49.2986,1.8129 C53.3236,1.8129 56.5906,5.0809 56.5906,9.1059 C56.5906,13.1209 53.3236,16.3889 49.2986,16.3889 L49.2986,16.3889 Z M49.2986,-0.0001 C44.2876,-0.0001 40.2026,4.0849 40.2026,9.1059 C40.2026,14.1269 44.2876,18.2119 49.2986,18.2119 C54.3196,18.2119 58.4046,14.1269 58.4046,9.1059 C58.4046,4.0849 54.3196,-0.0001 49.2986,-0.0001 L49.2986,-0.0001 Z M68.3976,21.4299 C66.3446,23.3919 64.3526,25.2149 62.4696,26.8389 C59.3906,29.4889 56.1326,32.0599 52.7966,34.4709 C52.2676,34.7799 51.7586,35.0089 51.2916,35.1679 C50.5246,35.4169 49.6976,35.5469 48.8506,35.5469 C48.2436,35.5469 47.6256,35.4769 46.9976,35.3469 C46.6386,35.2979 46.2106,35.2379 45.7316,35.1579 C44.9246,35.0479 43.9596,34.8989 42.8526,34.7399 L40.2726,34.3509 L40.1426,34.3309 C39.6346,34.2519 39.4156,34.2219 39.1466,34.2019 C37.1736,34.0029 35.0716,34.2219 32.9106,34.8299 L32.9106,32.2289 C32.9106,31.7109 32.4916,31.2929 31.9646,31.2929 C31.4356,31.2929 31.0266,31.7109 31.0266,32.2289 L31.0266,38.0069 C31.0266,38.0479 31.0166,38.0769 30.9976,38.1169 L26.9136,38.1169 C26.8926,38.0769 26.8826,38.0479 26.8826,38.0069 L26.8826,19.4869 C26.8826,19.4369 26.8926,19.3969 26.9136,19.3779 L30.8876,19.3779 C30.8976,19.3969 30.9076,19.4369 30.9076,19.4769 L31.0266,25.0759 C31.0266,25.5939 31.4456,26.0029 31.9836,26.0029 C32.5016,26.0029 32.9106,25.5839 32.9106,25.0459 L32.8506,22.2469 L36.2886,21.1409 C38.1606,20.5429 39.8836,20.4439 41.4286,20.8219 C42.0066,20.9509 42.4946,21.1309 42.9626,21.3099 L43.0326,21.3399 C43.7196,21.5989 44.5556,21.9279 45.7526,22.1169 C47.0676,22.3369 48.3916,22.3559 49.7166,22.1869 L52.2176,21.9779 C53.0146,21.8479 53.5926,22.1769 53.9306,22.4759 C54.3296,22.8349 54.5696,23.3129 54.5586,23.7209 C54.5486,24.0999 54.3296,24.5179 53.9816,24.8369 C53.5326,25.2349 52.9656,25.4349 52.3276,25.3949 L42.6936,25.5049 C42.1746,25.5139 41.7666,25.9329 41.7666,26.4609 C41.7666,26.9689 42.1956,27.3869 42.7146,27.3869 L52.2676,27.2779 C53.3836,27.3469 54.4396,26.9689 55.2566,26.2219 C55.7156,25.8129 56.0636,25.2849 56.2726,24.7079 C56.3916,24.6679 56.4916,24.6179 56.5816,24.5679 C57.6476,23.8709 58.8026,23.1229 59.9986,22.3369 L62.9376,20.4329 C63.3456,20.1649 63.7446,19.9049 64.1436,19.6459 C64.8406,19.1879 65.5286,18.7399 66.1746,18.3109 C66.9236,17.7629 67.6206,17.5539 68.2276,17.7039 C68.7456,17.8229 69.2146,18.1919 69.4936,18.6999 C69.5526,18.8189 69.5926,18.9789 69.5926,19.1579 C69.5926,19.8659 69.1246,20.7519 68.3976,21.4299 L68.3976,21.4299 Z M71.1466,17.8129 C70.6286,16.8269 69.7026,16.0999 68.6456,15.8599 C67.8296,15.6809 66.5536,15.6909 65.1096,16.7669 C64.1326,17.4049 63.0376,18.1219 61.9706,18.8099 C61.4436,19.1479 60.9056,19.4969 60.3776,19.8359 C59.7106,20.2839 59.0326,20.7219 58.3646,21.1609 C58.0266,21.3799 57.6876,21.5989 57.3486,21.8179 L56.2226,22.5549 C56.0126,21.9879 55.6556,21.4799 55.1766,21.0709 C54.3096,20.2839 53.1436,19.9249 51.9886,20.1049 L49.5176,20.3139 C48.3526,20.4639 47.1866,20.4439 46.0706,20.2539 C45.0346,20.0749 44.3566,19.8359 43.6306,19.5469 L43.4506,19.4869 C42.9726,19.3079 42.4736,19.1289 41.8666,18.9889 C39.9736,18.5299 37.9016,18.6499 35.7196,19.3469 L32.8106,20.2739 L32.8006,19.4469 C32.7806,18.3509 31.9736,17.4949 30.9676,17.4949 L26.8336,17.4949 C25.8166,17.4949 25.0006,18.3909 25.0006,19.4869 L25.0006,38.0069 C25.0006,39.1039 25.8166,39.9999 26.8336,39.9999 L31.0776,39.9999 C32.0926,39.9999 32.9106,39.1039 32.9106,38.0069 L32.9106,36.7919 C35.0426,36.1249 37.0746,35.8849 38.9586,36.0749 C39.2566,36.1049 39.5056,36.1339 40.3726,36.2639 L42.5846,36.6029 C44.1286,36.8419 45.6526,37.0609 46.6586,37.1909 C47.3456,37.3499 48.0736,37.4299 48.8406,37.4299 C49.8666,37.4299 50.8926,37.2699 51.8696,36.9619 C52.5266,36.7419 53.1736,36.4439 53.8016,36.0749 L53.8516,36.0349 C57.1396,33.6639 60.4566,31.0539 63.6946,28.2739 C65.7976,26.4509 67.8096,24.6079 69.6826,22.8039 C70.8286,21.7489 71.4656,20.3739 71.4656,19.1679 C71.4656,18.6799 71.3666,18.2119 71.1466,17.8129 L71.1466,17.8129 Z" id="Fill-1" fill="#01675A"></path>
    </g>
</svg>