<?xml version="1.0" encoding="UTF-8"?>
<svg width="72px" height="40px" viewBox="0 0 72 40" version="1.1" xmlns="http://www.w3.org/2000/svg" xmlns:xlink="http://www.w3.org/1999/xlink">
    <!-- Generator: Sketch 53.2 (72643) - https://sketchapp.com -->
    <title>DCU_Illustration_PLP_Non-Functional_Green_Money Market</title>
    <desc>Created with Sketch.</desc>
    <g id="DCU_Illustration_PLP_Non-Functional_Green_Money-Market" stroke="none" stroke-width="1" fill="none" fill-rule="evenodd">
        <path d="M57.0742,15.8096 C57.0642,15.7996 57.0542,15.7996 57.0452,15.7996 L57.0062,15.7996 L57.0062,15.8486 L57.0452,15.8486 C57.0462,15.8496 57.0452,15.8496 57.0462,15.8496 L57.0492,15.8496 C57.0502,15.8496 57.0502,15.8496 57.0512,15.8496 C57.1422,15.8576 57.1112,15.8586 57.0642,15.8586 C57.0942,15.8586 57.1332,15.8686 57.1622,15.8776 L57.1032,15.8196 C57.0942,15.8196 57.0842,15.8096 57.0742,15.8096 L57.0742,15.8096 Z M69.7752,15.9276 C69.7752,15.7226 69.7652,15.5076 69.7462,15.2826 L69.7462,15.2436 C69.7362,15.1746 69.7362,15.1166 69.7362,15.0476 L69.7172,14.9396 C69.7172,14.9306 69.7172,14.9206 69.7072,14.9206 L69.7072,14.8816 C69.6382,14.4606 69.5512,14.0996 69.4432,13.7766 C69.3752,13.5716 69.3162,13.3956 69.2482,13.2486 C69.2382,13.2196 69.2382,13.1996 69.2282,13.1806 L69.2092,13.1506 C69.1702,13.0826 69.1402,12.9946 69.0922,12.8966 C68.9152,12.5446 68.7292,12.2316 68.5342,11.9386 C68.4852,11.8706 68.4362,11.8116 68.3972,11.7526 L68.3382,11.6746 C68.3292,11.6646 68.3192,11.6546 68.3192,11.6446 C68.3082,11.6356 68.3082,11.6356 68.3082,11.6256 C68.2702,11.5866 68.2402,11.5476 68.2012,11.5086 C68.1132,11.4106 68.0352,11.3126 67.9372,11.2146 C67.6742,10.9216 67.4102,10.6776 67.1362,10.4616 C67.1262,10.4426 67.1062,10.4326 67.0962,10.4226 C67.0772,10.4136 67.0672,10.3936 67.0482,10.3836 C67.0482,10.3836 67.0482,10.3736 67.0382,10.3736 L67.0092,10.3446 L66.9602,10.3156 C66.9212,10.2866 66.8822,10.2566 66.8332,10.2376 C66.6862,10.1196 66.5292,10.0216 66.3632,9.9346 C66.2172,9.8366 66.0602,9.7486 65.8852,9.6606 C65.8362,9.6406 65.7972,9.6216 65.7482,9.5916 C65.7092,9.5726 65.6702,9.5526 65.6302,9.5426 C65.6012,9.5336 65.5722,9.5236 65.5532,9.5036 L65.5322,9.4946 C65.5032,9.4946 65.4832,9.4846 65.4642,9.4746 C65.0042,9.2986 64.5842,9.1616 64.1832,9.0836 L64.1052,9.0636 C63.9872,9.0446 63.8892,9.0246 63.7822,9.0156 L63.7532,9.0056 L63.7332,9.0056 L63.7142,9.0056 C63.6842,8.9956 63.6552,8.9956 63.6162,8.9956 C63.3322,8.9566 63.1172,8.9466 62.9122,8.9466 C62.5112,8.9466 62.1982,8.9566 61.9052,8.9956 C61.8862,8.9956 61.8652,9.0056 61.8562,9.0056 C61.8452,9.0056 61.8272,9.0056 61.8162,9.0156 L61.6402,9.0346 C61.5822,9.0446 61.5232,9.0636 61.4652,9.0736 L61.2892,9.1026 C61.0542,9.1516 60.8102,9.2296 60.5752,9.2986 C60.4682,9.3376 60.3602,9.3766 60.2432,9.4156 C60.2042,9.4256 60.1742,9.4456 60.1452,9.4646 L60.1252,9.4646 C60.1152,9.4746 60.1152,9.4746 60.1052,9.4746 C60.1052,9.4746 60.0952,9.4746 60.0952,9.4846 L60.0662,9.4846 C60.0762,9.4946 60.0662,9.4946 60.0562,9.4946 C59.6462,9.6696 59.2452,9.8946 58.8542,10.1586 C58.7462,10.2276 58.6592,10.2866 58.5702,10.3546 C58.5702,10.3646 58.5602,10.3646 58.5522,10.3736 C58.5412,10.3736 58.5412,10.3736 58.5412,10.3836 C58.5312,10.3936 58.5212,10.3936 58.5112,10.4036 C58.5112,10.4036 58.5022,10.4036 58.5022,10.4136 C58.4722,10.4226 58.4632,10.4426 58.4432,10.4526 C58.4242,10.4716 58.4142,10.4816 58.3942,10.4916 C58.2482,10.6086 58.0922,10.7556 57.9062,10.9406 L57.8962,10.9506 C57.7302,11.1176 57.5532,11.2926 57.4072,11.4786 C57.3782,11.5086 57.2902,11.6056 57.2612,11.6546 L57.2512,11.6546 L57.2512,11.6746 L57.2412,11.6936 C57.1822,11.7526 57.1432,11.8116 57.0952,11.8706 C56.8302,12.2706 56.5862,12.6716 56.4002,13.0926 C56.3902,13.1216 56.3712,13.1506 56.3712,13.1506 C56.3612,13.1706 56.3612,13.1806 56.3612,13.1896 L56.3612,13.2096 L56.3322,13.2586 L56.3222,13.2776 C56.3222,13.2876 56.3122,13.2976 56.3122,13.3076 C56.2732,13.3956 56.2442,13.4836 56.2152,13.5616 L56.1952,13.6296 C56.1262,13.8256 56.0492,14.0696 55.9902,14.2946 C55.9312,14.5386 55.8822,14.7836 55.8522,15.0086 C55.8432,15.0866 55.8332,15.1846 55.8332,15.2046 C55.8332,15.3406 55.8232,15.4586 55.8132,15.5756 C55.8032,15.8886 55.8032,16.1526 55.8232,16.3966 L55.8232,16.4066 C55.8332,16.5536 55.8332,16.6806 55.8522,16.8276 C55.8622,16.8756 55.8622,16.8956 55.8622,16.9056 C55.8722,16.9246 55.8722,16.9546 55.8822,16.9836 C55.8822,17.0136 55.8912,17.0426 55.8912,17.0716 C56.0002,17.6386 56.1462,18.1566 56.3422,18.6556 C56.3512,18.6656 56.3512,18.6756 56.3612,18.6846 L56.3712,18.7046 C56.3812,18.7436 56.4102,18.7926 56.4202,18.8116 C56.4392,18.8516 56.4492,18.8806 56.4692,18.9196 C56.4782,18.9486 56.4982,18.9776 56.5082,19.0076 C56.5272,19.0466 56.5472,19.0856 56.5662,19.1246 C56.6152,19.2036 56.6542,19.2816 56.7032,19.3596 C56.8302,19.5846 56.9682,19.8186 57.1342,20.0436 C57.1432,20.0736 57.1632,20.0926 57.1822,20.1216 C57.2022,20.1416 57.2212,20.1706 57.2412,20.1906 L57.2702,20.2296 C57.3002,20.2686 57.3092,20.2886 57.3192,20.2886 C57.3682,20.3476 57.4172,20.4056 57.4662,20.4546 C57.5152,20.5136 57.5532,20.5616 57.6022,20.6206 C57.8282,20.8656 58.0332,21.0606 58.2282,21.2366 C58.3162,21.3056 58.3852,21.3636 58.4532,21.4226 C58.4632,21.4326 58.4722,21.4416 58.4822,21.4416 C58.4922,21.4516 58.5022,21.4616 58.5112,21.4616 L58.5312,21.4816 L58.5412,21.4916 C58.5522,21.4916 58.5602,21.5006 58.5602,21.5106 L58.8452,21.7056 C59.0402,21.8436 59.2652,21.9706 59.5492,22.1266 C59.7052,22.2046 59.8422,22.2736 59.9692,22.3316 C59.9782,22.3316 59.9982,22.3416 60.0172,22.3516 C60.0272,22.3516 60.0372,22.3616 60.0472,22.3616 C60.0562,22.3716 60.0662,22.3716 60.0762,22.3806 C60.1052,22.3906 60.1252,22.4006 60.1452,22.4106 C60.1642,22.4196 60.1832,22.4296 60.2042,22.4296 L60.2132,22.4396 C60.4682,22.5276 60.7312,22.6156 60.9962,22.6846 C61.2302,22.7426 61.4942,22.8016 61.7872,22.8506 C61.7972,22.8506 61.8062,22.8596 61.8162,22.8596 L61.8562,22.8596 C61.8652,22.8696 61.8952,22.8696 61.9252,22.8696 C62.0032,22.8796 62.0712,22.8896 62.1302,22.8896 L62.5802,22.9186 L62.8922,22.9186 C63.1072,22.9186 63.3422,22.9086 63.5562,22.8896 L63.5672,22.8896 C63.6362,22.8796 63.7142,22.8696 63.7822,22.8596 C63.8112,22.8506 63.8502,22.8506 63.8612,22.8506 C64.0172,22.8206 64.1542,22.7916 64.3012,22.7626 C64.6032,22.6936 64.9162,22.5956 65.2392,22.4886 C65.2982,22.4586 65.3762,22.4296 65.4442,22.4006 L65.4642,22.4006 C65.4642,22.4006 65.4732,22.4006 65.4732,22.3906 L65.5032,22.3906 C65.5532,22.3616 65.5812,22.3516 65.5812,22.3516 C65.6212,22.3316 65.6702,22.3126 65.7192,22.2836 C65.7772,22.2536 65.8362,22.2246 65.8942,22.1946 C66.1292,22.0776 66.4412,21.9116 66.7242,21.7156 C66.7942,21.6666 66.8622,21.6186 66.9302,21.5696 C66.9602,21.5496 66.9892,21.5306 67.0182,21.5006 C67.0282,21.5006 67.0482,21.4916 67.0772,21.4616 C67.1062,21.4416 67.1362,21.4126 67.1362,21.4126 C67.1552,21.4026 67.1752,21.3836 67.1842,21.3736 C67.2342,21.3346 67.2722,21.3056 67.3122,21.2666 C67.5372,21.0806 67.7422,20.8746 67.9282,20.6696 L68.2992,20.2596 C68.2992,20.2496 68.2992,20.2496 68.3082,20.2496 L68.3192,20.2196 C68.3382,20.1906 68.3472,20.1806 68.3472,20.1806 C68.6802,19.7216 68.9452,19.2816 69.1502,18.8416 C69.1792,18.7826 69.1992,18.7336 69.2282,18.6756 C69.2282,18.6656 69.2382,18.6456 69.2482,18.6366 C69.2482,18.6166 69.2582,18.6166 69.2582,18.6066 C69.2582,18.5966 69.2672,18.5876 69.2672,18.5876 C69.2872,18.5086 69.3162,18.4506 69.3362,18.3916 C69.3552,18.3236 69.3852,18.2646 69.4042,18.2056 C69.4922,17.9326 69.5602,17.6776 69.6092,17.4436 C69.6482,17.2866 69.6782,17.1306 69.7072,16.9836 L69.7462,16.7486 C69.7562,16.4846 69.7752,16.2016 69.7752,15.9276 L69.7752,15.9276 Z M71.6532,15.8986 L71.6532,15.9566 C71.6532,16.1626 71.6532,16.3676 71.6342,16.5626 C71.4382,19.0266 70.2742,21.2756 68.4662,22.7426 C67.3422,23.6516 66.1382,24.2576 64.8672,24.5606 C64.4502,24.6606 64.0902,24.7036 63.8312,24.7276 C63.5152,24.7676 63.1612,24.7946 62.7722,24.7946 C62.4782,24.7956 62.2052,24.7806 61.9542,24.7566 C61.5622,24.7176 61.1912,24.6686 60.8292,24.5806 C58.3652,24.0336 56.1952,22.3906 55.0112,20.1906 C53.8682,18.0686 53.6132,15.5756 54.2992,13.3466 C54.9332,11.3426 56.2442,9.6116 57.9942,8.4676 C59.8512,7.2746 62.2082,6.8146 64.4472,7.2256 C66.4122,7.5776 68.2702,8.6536 69.5312,10.1786 C70.9102,11.8306 71.6432,13.8066 71.6532,15.8986 L71.6532,15.8986 Z M62.7852,13.6206 L63.0102,13.6206 C63.1172,13.6296 63.2732,13.6596 63.3902,13.7766 C63.4982,13.8746 63.5672,14.0016 63.5772,14.1676 C63.6652,14.5786 64.0172,14.8816 64.4282,14.9006 L64.4762,14.9006 C64.9162,14.9006 65.2782,14.5686 65.3662,14.0896 C65.3272,13.1316 64.7012,12.2906 63.8022,11.9776 L63.8022,11.4306 C63.8022,11.4306 63.8022,11.3316 63.7722,11.2736 C63.6842,10.8826 63.3322,10.6086 62.9512,10.6086 L62.8832,10.6086 C62.6382,10.6086 62.4032,10.7066 62.2272,10.8926 C62.0612,11.0786 61.9732,11.3036 61.9932,11.5086 L61.9932,11.9776 C61.4452,12.1636 60.9862,12.5636 60.7122,13.0926 C60.4092,13.6496 60.3502,14.2856 60.5462,14.8916 C60.7212,15.4876 61.1522,15.9966 61.7282,16.2896 L63.2632,17.0526 C63.4002,17.1206 63.4982,17.2376 63.5482,17.3846 C63.5872,17.5216 63.5772,17.6676 63.5182,17.8146 C63.4202,18.0006 63.2242,18.1276 63.0192,18.1276 L62.7952,18.1276 C62.6482,18.1176 62.5112,18.0596 62.4132,17.9716 C62.2662,17.8446 62.2272,17.6876 62.2182,17.5996 C62.1592,17.1496 61.7872,16.8176 61.3282,16.8176 L61.3082,16.8176 C60.8592,16.8276 60.4972,17.1796 60.4382,17.6586 C60.4772,18.6166 61.0842,19.4476 62.0032,19.7606 L62.0032,20.4346 C62.0712,20.8456 62.4532,21.1586 62.8832,21.1686 C63.1362,21.1686 63.3422,21.0806 63.5282,20.8946 C63.6652,20.7386 63.7532,20.6016 63.7822,20.4256 L63.7822,19.7606 C64.7202,19.4476 65.3662,18.5476 65.3662,17.5506 C65.3662,17.3546 65.3372,17.1496 65.2682,16.8756 L65.2682,16.8566 C65.0722,16.2506 64.6332,15.7316 64.0762,15.4486 L62.5312,14.6766 C62.4032,14.6276 62.2962,14.5096 62.2572,14.3636 C62.2082,14.2066 62.2182,14.0596 62.2862,13.9336 C62.3852,13.7376 62.5802,13.6206 62.7852,13.6206 L62.7852,13.6206 Z M62.8942,5.9996 C63.4262,5.9996 63.8402,5.6446 63.8402,5.2016 L63.8402,0.7976 C63.8402,0.3546 63.4162,-0.0004 62.8942,-0.0004 C62.3822,-0.0004 61.9592,0.3546 61.9592,0.7976 L61.9592,5.2016 C61.9592,5.6446 62.3722,5.9996 62.8942,5.9996 L62.8942,5.9996 Z M59.3182,5.9996 C59.8502,5.9996 60.2642,5.6556 60.2642,5.2116 L60.2642,2.0096 C60.2642,1.5666 59.8502,1.2216 59.3182,1.2216 C58.7972,1.2216 58.3832,1.5666 58.3832,2.0096 L58.3832,5.2116 C58.3832,5.6556 58.7972,5.9996 59.3182,5.9996 L59.3182,5.9996 Z M68.9612,35.2116 C68.9612,34.7096 68.6162,34.3056 68.2022,34.3056 L55.8282,34.3056 C55.4042,34.3056 55.0592,34.7096 55.0592,35.2216 L55.0592,37.2026 C55.0592,37.7046 55.4042,38.1186 55.8282,38.1186 L68.1922,38.1186 C68.6162,38.1186 68.9512,37.7046 68.9512,37.2026 L68.9612,35.2116 Z M53.1782,25.9996 L53.1582,24.1386 C53.1582,23.6746 52.8032,23.3006 52.3692,23.3006 L39.6702,23.3006 C39.2362,23.3006 38.8822,23.6746 38.8822,24.1386 L38.8822,25.9996 C38.8822,26.4626 39.2362,26.8376 39.6702,26.8376 L52.3892,26.8376 C52.8222,26.8376 53.1782,26.4626 53.1782,25.9996 L53.1782,25.9996 Z M47.6992,33.4086 C47.6992,32.7976 48.1422,32.4336 48.8822,32.4336 L52.3892,32.4336 C52.8122,32.4336 53.1782,31.8426 53.1782,31.3696 L53.1582,29.5566 C53.1582,29.0936 52.8032,28.7196 52.3692,28.7196 L39.6702,28.7196 C39.2362,28.7196 38.8822,29.0936 38.8822,29.5466 L38.8822,31.3896 C38.8912,31.8426 39.2562,32.4336 39.6702,32.4336 L41.1782,32.4336 C41.4532,32.4336 42.2912,32.4336 42.2912,33.3396 C42.2912,33.7046 42.1522,34.3056 41.1972,34.3056 L39.7002,34.3056 C39.2962,34.3056 38.8822,34.9756 38.8822,35.4576 L38.8822,37.2906 C38.8822,37.7436 39.2362,38.1186 39.6702,38.1186 L52.3592,38.1186 C52.7932,38.1186 53.1482,37.7436 53.1482,37.2906 L53.1482,35.4576 C53.1482,34.9656 52.7632,34.3056 52.3592,34.3056 L48.8822,34.3056 C48.5952,34.3056 47.6992,34.3056 47.6992,33.4086 L47.6992,33.4086 Z M70.8432,31.5376 C70.8432,32.2266 70.6062,32.8766 70.1822,33.4086 C70.6062,33.9316 70.8432,34.6016 70.8432,35.2806 L70.8432,36.9756 C70.8432,38.6306 69.4922,39.9806 67.8282,39.9806 L55.7682,39.9806 C55.0892,39.9806 54.4192,39.7436 53.8962,39.3206 C53.3752,39.7436 52.7342,39.9806 52.0542,39.9996 L40.0142,39.9996 C38.3492,39.9996 37.0002,38.6406 37.0002,36.9756 L37.0002,35.2906 C37.0002,34.6106 37.2362,33.9506 37.6602,33.4186 C37.2362,32.8966 37.0002,32.2266 37.0002,31.5466 L37.0002,29.8516 C37.0002,29.1726 37.2362,28.5126 37.6602,27.9806 C37.2362,27.4576 37.0002,26.7976 37.0002,26.1086 L37.0002,24.4236 C37.0002,22.7586 38.3492,21.4086 40.0142,21.4086 L52.0452,21.4086 C53.7092,21.4086 55.0592,22.7586 55.0592,24.4236 L55.0592,26.1086 C55.0592,26.4036 55.0192,26.6896 54.9312,26.9656 C55.2072,26.8866 55.5032,26.8476 55.7882,26.8476 L62.7342,26.8476 C63.6792,26.8476 63.7892,27.4976 63.7892,27.7836 C63.7892,28.0596 63.6792,28.7196 62.7342,28.7196 L55.7882,28.7196 C55.4432,28.7196 55.0592,29.3986 55.0592,29.8516 L55.0592,31.5466 C55.0592,31.9506 55.3752,32.4336 55.7782,32.4336 L68.2122,32.4336 C68.6162,32.4336 68.9612,31.9506 68.9612,31.5466 L68.9612,29.5176 C68.9612,29.1726 68.2622,28.7686 67.8082,28.7686 L66.2212,28.7586 C65.5222,28.7586 65.0792,28.3936 65.0792,27.8226 C65.0792,27.2416 65.5222,26.8866 66.2212,26.8866 L67.8872,26.8966 L67.8962,26.8966 C69.5322,26.8966 70.8332,28.1966 70.8332,29.8516 L70.8432,31.5376 Z M66.5042,5.9996 C67.0352,5.9996 67.4492,5.6556 67.4492,5.2116 L67.4492,2.0096 C67.4492,1.5666 67.0352,1.2216 66.5042,1.2216 C65.9812,1.2216 65.5682,1.5666 65.5682,2.0096 L65.5682,5.2116 C65.5682,5.6446 65.9812,5.9996 66.5042,5.9996 L66.5042,5.9996 Z M39.6622,12.4826 C39.4842,12.1576 39.5042,11.7636 39.7112,11.4576 L44.4792,4.4236 C44.6472,4.1676 44.9532,4.0096 45.2772,3.9996 C45.6132,3.9996 45.9182,4.1476 46.1052,4.4036 L51.0912,11.2906 C51.3072,11.5966 51.3372,11.9906 51.1702,12.3056 C51.0602,12.5216 50.8242,12.7786 50.2932,12.7976 L48.4992,12.8276 L48.5492,16.0686 C48.5582,16.3646 48.4302,16.6506 48.2232,16.8476 C48.0262,17.0246 47.7802,17.1036 47.5442,17.0736 C46.9922,17.0246 46.6672,16.6996 46.6572,16.1966 L46.5972,12.0196 C46.5882,11.4186 46.9632,10.9656 47.4742,10.9556 L48.4602,10.9166 L45.2882,6.6106 L42.2732,10.9956 L43.2092,11.0146 C43.4842,11.0146 43.7412,11.1136 43.9282,11.2906 C44.1052,11.4676 44.2142,11.7046 44.2142,11.9606 L44.3222,18.9266 C44.3222,19.5076 43.9572,19.9216 43.4262,19.9316 C42.8842,19.9316 42.4402,19.4876 42.4302,18.9556 L42.3422,12.9166 L40.5492,12.9356 C40.1052,12.9556 39.8202,12.7886 39.6622,12.4826 L39.6622,12.4826 Z" id="Fill-1" fill="#01675A"></path>
    </g>
</svg>