<?xml version="1.0" encoding="UTF-8"?>
<svg width="49px" height="60px" viewBox="0 0 49 60" version="1.1" xmlns="http://www.w3.org/2000/svg" xmlns:xlink="http://www.w3.org/1999/xlink">
    <!-- Generator: Sketch 53.2 (72643) - https://sketchapp.com -->
    <title>DCU_Illustration_Community_Non-Functional_Green_Do-The-Right-Thing</title>
    <desc>Created with Sketch.</desc>
    <g id="DCU_Illustration_Community_Non-Functional_Green_Do-The-Right-Thing" stroke="none" stroke-width="1" fill="none" fill-rule="evenodd">
        <path d="M33.170092,23.2960367 C33.1900798,23.6458225 33.0691538,23.9846151 32.8402939,24.244456 L23.035297,35.3386637 C22.7664616,35.6284862 22.4366635,35.777395 22.0858783,35.777395 C21.6971163,35.777395 21.3663188,35.6384801 21.1264657,35.3886331 L16.2304632,30.4616496 C15.709782,29.9519616 15.709782,29.1114762 16.2304632,28.6027877 C16.7201634,28.1120881 17.5886317,28.1120881 18.0783319,28.6027877 L21.9959333,32.5503708 L30.8814932,22.4955268 C31.1103531,22.2456798 31.4311567,22.0867771 31.789937,22.0667893 C32.1197351,22.0468015 32.4805142,22.176722 32.7303612,22.3965874 C32.9892028,22.6264466 33.1491049,22.9452515 33.170092,23.2960367 M46.5818807,12.2128223 L46.5818807,35.6984434 C46.5818807,43.272806 27.9632799,54.9066832 24.5043976,56.5546743 C22.955346,55.8051332 17.4587112,52.6680538 12.4617706,48.6705013 C7.88457296,44.992753 2.41791989,39.5460877 2.41791989,34.469196 L2.41791989,12.2018291 C8.45522358,11.5532262 20.4568756,6.52630388 24.5153908,2.95748886 C28.3530412,6.37539627 40.0059068,11.5932017 46.5818807,12.2128223 M47.7911404,9.84427247 C41.3540814,9.84427247 27.4525925,3.27829245 25.5037857,0.489999572 C25.2839203,0.180189251 24.9141467,-0.0007 24.5153908,-0.0007 C24.1146362,-0.0007 23.7358681,0.180189251 23.5259966,0.489999572 C21.4962393,3.38822515 6.92516035,9.84427247 1.20965964,9.84427247 C0.54006959,9.84427247 0.0004,10.3839421 0.0004,11.0535321 L0.0004,34.469196 C0.0004,40.6753963 6.32652686,46.9305666 11.6432717,51.0890206 C17.5886317,55.7461693 23.5849605,58.8832486 24.1855927,59.0341562 C24.2845322,59.0741317 24.3954642,59.0841256 24.5043976,59.0841256 C24.6243241,59.0841256 24.7252623,59.0641379 24.8152073,59.0341562 C25.8845526,58.7533281 49.0004,45.7822696 49.0004,35.6984434 L49.0004,11.0535321 C49.0004,10.3839421 48.4607304,9.84427247 47.7911404,9.84427247" id="Fill-1" fill="#01675A"></path>
    </g>
</svg>