<?xml version="1.0" encoding="UTF-8"?>
<svg width="67px" height="60px" viewBox="0 0 67 60" version="1.1" xmlns="http://www.w3.org/2000/svg" xmlns:xlink="http://www.w3.org/1999/xlink">
    <!-- Generator: Sketch 53.2 (72643) - https://sketchapp.com -->
    <title>DCU_Illustration_Community_Non-Functional_Green_People-Come-First</title>
    <desc>Created with Sketch.</desc>
    <g id="DCU_Illustration_Community_Non-Functional_Green_People-Come-First" stroke="none" stroke-width="1" fill="none" fill-rule="evenodd">
        <path d="M59.1450029,30.8065972 L58.4244337,31.5370371 C58.196418,31.1718171 57.9308933,30.8460804 57.6436527,30.5499561 L44.1709845,17.1157841 L44.1305142,17.0763008 L37.2110766,17.0368176 C35.3652351,17.0368176 33.8658591,17.6201824 32.7198581,18.7543385 L26.1370151,25.318427 C25.1104509,26.3361074 23.7571629,26.8977565 22.307141,26.8977565 C20.8551448,26.8977565 19.503831,26.3361074 18.4772668,25.318427 L17.5395399,24.3807 L34.1521126,7.8283392 L34.8430693,7.1275117 C38.0609533,3.92936935 42.324156,2.17137814 46.8558447,2.17137814 C51.3954301,2.17137814 55.660607,3.92936935 58.8775039,7.1275117 C65.3527551,13.5928921 65.4712048,24.2128963 59.1450029,30.8065972 M56.1047935,36.9264992 C54.7623633,38.2590585 52.5897981,38.2590585 51.2483551,36.9264992 L46.7660204,32.5053635 C46.530108,32.2980765 46.2231258,32.1796268 45.9181178,32.21911 C45.6219935,32.2378646 45.3456109,32.3760559 45.1679363,32.5942008 C44.8214709,33.0077877 44.8520704,33.6296487 45.2261741,34.0442228 C46.7768783,35.5840691 48.3157375,37.1239154 49.8664417,38.6637617 L49.9246795,38.7141028 C51.040081,40.0654167 50.9512437,42.0593203 49.7173925,43.3030423 C49.065919,43.945632 48.2081457,44.2999941 47.2891733,44.2999941 C46.3721751,44.2999941 45.5124275,43.945632 44.8609541,43.3030423 L40.410206,38.8611779 L40.3697357,38.8315655 C39.9462779,38.6045368 39.3925255,38.6746196 39.0480343,39.0191109 C38.691698,39.3754471 38.6127315,39.9272253 38.8407472,40.3625281 L43.3220949,44.8330178 C43.9735683,45.4844912 44.3279304,46.3432517 44.3279304,47.2513662 C44.3279304,48.1703386 43.9735683,49.0281119 43.3220949,49.6697146 C42.6706214,50.3221751 41.8108739,50.6765371 40.8938757,50.6765371 C40.4891725,50.6765371 39.93542,50.4593793 39.4922207,50.2422215 C39.0381634,50.0250637 38.6828143,49.8079059 38.6828143,49.8079059 L34.0534045,45.1883669 L34.0030634,45.1587545 C33.559864,45.0205632 33.0663236,45.14 32.7504576,45.4746204 C32.4533463,45.7914734 32.3457544,46.2455307 32.4829587,46.6689884 L36.935681,51.2095609 C37.5762965,51.8511635 37.9326328,52.7099239 37.9326328,53.6279093 C37.9326328,54.5360237 37.5762965,55.3947842 36.935681,56.0462576 C35.8883881,57.0826927 34.2705623,57.3294629 32.9577446,56.6582478 C33.6674559,55.7007793 34.0425466,54.575507 34.0425466,53.3910098 C34.0425466,50.0250637 30.9835827,47.3402035 27.5080706,48.0015477 C27.5781533,47.6560694 27.6077658,47.310591 27.6077658,46.9651127 C27.6077658,43.945632 25.1400633,41.4868133 22.1087377,41.4868133 C21.7741172,41.4868133 21.417781,41.5174128 21.0634189,41.5855214 C21.1315275,41.240043 21.1710108,40.8846939 21.1710108,40.5490864 C21.1710108,37.5296057 18.7033083,35.0619032 15.6729697,35.0619032 C15.3274914,35.0619032 14.9830001,35.1013865 14.6266639,35.1694951 C14.6967467,34.815133 14.7362299,34.4686676 14.7362299,34.13306 C14.7362299,31.1027215 12.2685275,28.6458769 9.22831806,28.6458769 C8.0230922,28.6458769 6.83958211,29.0505801 5.88112649,29.7800329 C3.43415275,26.7595652 2.14107668,23.088611 2.14107668,19.1797704 C2.14107668,14.6480816 3.90696454,10.3937626 7.1149777,7.19562029 C10.3131201,4.00833583 14.5871807,2.25034462 19.1277531,2.25034462 C23.6199586,2.25034462 27.8436781,3.96885259 31.0230659,7.07717057 L31.3675572,7.53122782 L14.5585553,24.282979 L14.4588601,24.3807 L16.9364334,26.8484025 C18.3677008,28.2796699 20.2727671,29.0693346 22.307141,29.0693346 C24.3395407,29.0693346 26.245594,28.2796699 27.6758744,26.8484025 L34.2597045,20.284314 C34.9901444,19.5637449 35.9486,19.2083957 37.2021928,19.2083957 L43.2223997,19.247879 L56.1047935,32.0898024 C56.7562669,32.7314051 57.110629,33.5901655 57.110629,34.5081508 C57.110629,35.4162653 56.7562669,36.2750257 56.1047935,36.9264992 M28.5454927,56.6977311 C26.7184058,56.6977311 25.2190298,55.2171096 25.2190298,53.3910098 C25.2190298,52.9961774 25.2970092,52.601345 25.4361876,52.2163835 C25.5546374,51.9212462 25.7125703,51.6438765 25.8991286,51.3882225 C26.0876611,51.150336 26.3038318,50.9341653 26.5417183,50.7456328 C27.1240961,50.3123043 27.8249236,50.0754048 28.5454927,50.0754048 C30.3804762,50.0754048 31.8709685,51.56491 31.8709685,53.3910098 C31.8709685,54.1115789 31.6350561,54.8035227 31.1908697,55.3849134 C31.0131951,55.6227999 30.7950502,55.8389706 30.54828,56.026516 C30.292626,56.2140614 30.0152563,56.3719944 29.719132,56.4815603 C29.3351575,56.6286354 28.939338,56.6977311 28.5454927,56.6977311 M24.1134991,49.6104897 C23.8568581,49.7980351 23.5804754,49.955968 23.2734932,50.065534 C22.8984025,50.2126091 22.5045571,50.2817048 22.1087377,50.2817048 C20.2727671,50.2817048 18.7822748,48.7912125 18.7822748,46.9651127 C18.7822748,46.5712674 18.8612413,46.1754479 19.0004197,45.8003571 C19.1178823,45.5052199 19.2669316,45.2278502 19.4643478,44.9721962 C19.6509061,44.725426 19.8680639,44.5072811 20.1049633,44.3296065 C20.6873411,43.88542 21.3782978,43.6593785 22.1087377,43.6593785 C23.9456954,43.6593785 25.4361876,45.14 25.4361876,46.9651127 C25.4361876,47.6955526 25.1983011,48.3766385 24.7541147,48.9600033 C24.5675564,49.2067736 24.3503986,49.4229443 24.1134991,49.6104897 M17.6668733,43.1845926 C17.4201031,43.3820088 17.1338496,43.531058 16.8387124,43.6495077 C16.4636216,43.786712 16.0678021,43.8656784 15.6729697,43.8656784 C13.8379862,43.8656784 12.3474939,42.3761732 12.3474939,40.5490864 C12.3474939,40.1552411 12.4156025,39.7594216 12.5646518,39.3843308 C12.6732307,39.0891936 12.8311636,38.8029401 13.018709,38.5561699 C13.2052673,38.3182834 13.4234122,38.1021126 13.6701824,37.9135802 C14.2525602,37.4693937 14.9435169,37.2334814 15.6729697,37.2334814 C17.5000566,37.2334814 18.9895618,38.7239736 18.9895618,40.5490864 C18.9895618,41.2706426 18.7635203,41.9606122 18.3193338,42.543977 C18.1308014,42.7907473 17.9136435,43.006918 17.6668733,43.1845926 M11.2311054,36.7685662 C10.9744643,36.9561116 10.6990687,37.1150317 10.4019573,37.2226235 C10.0169958,37.3706856 9.63302126,37.4407684 9.22831806,37.4407684 C7.40221826,37.4407684 5.91073891,35.9601469 5.91073891,34.13306 C5.91073891,33.7392147 5.98082166,33.3433953 6.12789673,32.9594208 C6.23647564,32.6623094 6.39539567,32.3869138 6.58294106,32.1401436 C6.76949936,31.8933733 6.98665717,31.6752284 7.23342742,31.487683 C7.81679227,31.0533674 8.50676187,30.8174551 9.22831806,30.8174551 C11.0633016,30.8174551 12.5547809,32.3079473 12.5547809,34.13306 C12.5547809,34.8546162 12.3178815,35.5445858 11.8825788,36.1279507 C11.6960205,36.363863 11.4778756,36.5820079 11.2311054,36.7685662 M60.4074794,5.59654912 C56.7947631,1.98383276 51.9778079,-0.0002 46.8558447,-0.0002 C41.7417782,-0.0002 36.9248231,1.98383276 33.3022359,5.59654912 L32.9182614,5.98249778 L32.3941214,5.3793913 C24.9229055,-1.75621705 12.8992722,-1.62789652 5.57513138,5.66564478 C-1.40353109,12.6146948 -1.88621369,23.9266428 4.44097535,31.4481998 C3.97606021,32.267477 3.72928996,33.1953331 3.72928996,34.13306 C3.72928996,37.1545149 6.1969924,39.6113594 9.22831806,39.6113594 C9.57280932,39.6113594 9.91927474,39.5827341 10.2736368,39.5126513 C10.2055282,39.8581297 10.166045,40.2134788 10.166045,40.5490864 C10.166045,43.5705412 12.6337474,46.0382437 15.6729697,46.0382437 C16.0095643,46.0382437 16.3540556,45.9987604 16.7103918,45.9286777 C16.6403091,46.2850139 16.6106967,46.6295052 16.6106967,46.9651127 C16.6106967,49.9954513 19.0783991,52.45427 22.1087377,52.45427 C22.4443452,52.45427 22.8006814,52.4147867 23.1451727,52.344704 C23.076077,52.7010402 23.0474517,53.0455315 23.0474517,53.3910098 C23.0474517,56.4114776 25.5151541,58.8702963 28.5454927,58.8702963 C29.4822325,58.8702963 30.4110757,58.6235261 31.2392367,58.1586109 C31.8216144,58.5534433 32.9577446,59.1555627 34.4472498,59.1753043 L34.5272034,59.1753043 C35.9683416,59.1753043 37.0343891,58.6235261 37.3295263,58.4557223 C37.7352166,58.2188229 38.1191911,57.9217115 38.4755273,57.5762331 C39.7291201,56.3236274 40.3114979,54.5360237 40.043999,52.7800067 C40.3302524,52.8185029 40.6076222,52.8481153 40.8938757,52.8481153 C42.3932517,52.8481153 43.8047775,52.2657375 44.8609541,51.2095609 C45.9181178,50.1543713 46.4995085,48.7418584 46.4995085,47.2513662 C46.4995085,46.9651127 46.480754,46.68873 46.4412707,46.4133344 C46.7166663,46.4528177 47.0029198,46.4715722 47.2891733,46.4715722 C48.7905235,46.4715722 50.1921784,45.8891944 51.2483551,44.8330178 C52.3144025,43.7778282 52.8967803,42.3761732 52.8967803,40.8846939 C52.8967803,40.5984404 52.8760516,40.3121869 52.8365684,40.0367913 C53.1139381,40.0762746 53.3903208,40.0950291 53.6755872,40.0950291 C55.1759503,40.0950291 56.5874761,39.5126513 57.6436527,38.4673326 C58.7008164,37.4101689 59.2831942,35.9996302 59.2831942,34.5081508 C59.2831942,34.290993 59.2733234,34.0540936 59.2338401,33.7974525 L60.5170454,32.5142472 C67.8707987,25.062773 67.8204575,12.9897856 60.4074794,5.59654912" id="Fill-1" fill="#01675A"></path>
    </g>
</svg>