<?xml version="1.0" encoding="UTF-8"?>
<svg width="72px" height="40px" viewBox="0 0 72 40" version="1.1" xmlns="http://www.w3.org/2000/svg" xmlns:xlink="http://www.w3.org/1999/xlink">
    <!-- Generator: Sketch 53.2 (72643) - https://sketchapp.com -->
    <title>DCU_Illustration_PLP_Non-Functional_Green_Auto Loan Refinance</title>
    <desc>Created with Sketch.</desc>
    <g id="DCU_Illustration_PLP_Non-Functional_Green_Auto-Loan-Refinance" stroke="none" stroke-width="1" fill="none" fill-rule="evenodd">
        <path d="M70.0439,30.4329 C70.0439,30.2269 70.0339,30.0099 70.0149,29.7939 C69.9259,28.7819 69.4829,27.9359 68.5209,26.0869 L68.4019,25.8799 C68.2939,25.6839 68.1949,25.5069 68.1069,25.3499 L35.7089,25.3499 C34.8149,25.6449 33.8309,25.8609 32.6319,26.1069 L32.5719,26.1169 C29.9959,26.6769 27.3319,27.2469 26.1119,28.9779 C25.8479,29.3519 25.6499,29.7539 25.5419,30.1769 C25.2279,31.9279 25.8669,33.6589 27.0759,34.3959 C27.3129,34.5339 27.5779,34.6409 27.9019,34.7199 C27.9119,31.8289 30.2719,29.4789 33.1729,29.4789 C36.0639,29.4789 38.4129,31.8199 38.4329,34.7099 L55.9539,34.7099 C55.9639,31.8199 58.3239,29.4789 61.2149,29.4789 C64.1149,29.4789 66.4749,31.8289 66.4839,34.7299 L66.5829,34.7299 C66.9569,34.6809 67.9599,34.4939 68.8249,33.6779 C69.6419,32.9109 70.0439,31.8199 70.0439,30.4329 L70.0439,30.4329 Z M64.6559,34.7399 C64.6559,32.8519 63.1119,31.3079 61.2149,31.3079 C59.3269,31.3079 57.7929,32.8519 57.7929,34.7399 C57.7929,36.6369 59.3269,38.1709 61.2149,38.1709 C63.1119,38.1709 64.6559,36.6369 64.6559,34.7399 L64.6559,34.7399 Z M36.6039,34.7399 C36.6039,32.8519 35.0609,31.3079 33.1729,31.3079 C31.2739,31.3079 29.7409,32.8519 29.7409,34.7399 C29.7409,36.6369 31.2739,38.1709 33.1729,38.1709 C35.0609,38.1709 36.6039,36.6369 36.6039,34.7399 L36.6039,34.7399 Z M38.6689,23.5109 L52.0609,23.5109 L52.0609,18.2899 C50.3499,18.2499 48.8749,18.2409 48.3149,18.2599 C47.3799,18.2999 46.3569,18.3779 45.1479,18.7329 C44.4889,18.9189 43.9089,19.1449 43.4469,19.4009 C42.7389,19.7749 42.3069,20.1279 41.5989,20.7179 C41.5209,20.7869 41.4509,20.8459 41.3829,20.9059 C41.2739,21.0029 41.1759,21.0819 41.0779,21.1709 C40.5369,21.6619 40.2119,21.9869 39.8099,22.4099 L39.2199,22.9799 C39.2099,22.9899 39.0029,23.1969 38.6689,23.5109 L38.6689,23.5109 Z M66.9669,23.5109 C66.6819,23.0879 66.3669,22.6559 66.0319,22.2229 L65.8069,21.9479 C64.7339,20.5809 64.1449,19.8239 63.4559,19.3909 C63.1509,19.1949 62.5319,18.7719 58.9819,18.4769 L58.9529,18.4769 C58.9429,18.4669 58.9339,18.4669 58.9239,18.4669 L58.7959,18.4669 C57.8219,18.4169 56.2299,18.3589 53.8989,18.3099 L53.8989,23.5109 L66.9669,23.5109 Z M71.8729,30.4039 C71.8729,32.8319 70.8899,34.2479 70.0729,35.0049 C69.1789,35.8609 67.9799,36.4119 66.6909,36.5589 L66.1599,36.5589 C65.3939,38.6229 63.4169,39.9999 61.2149,39.9999 C59.0019,39.9999 57.0259,38.6139 56.2779,36.5389 L38.1079,36.5389 C37.3609,38.6139 35.3749,39.9999 33.1729,39.9999 C30.9989,39.9999 29.0329,38.6429 28.2559,36.6269 C27.4989,36.5689 26.7909,36.3519 26.1329,35.9689 C24.2539,34.8479 23.3009,32.3499 23.7629,29.7749 C23.9589,29.0459 24.2339,28.4369 24.6079,27.9069 C26.2599,25.5849 29.4259,24.9169 32.2189,24.3179 L32.2479,24.3179 C34.1759,23.9049 35.9839,23.5309 36.8299,22.7239 C37.5279,22.0759 37.9319,21.6819 37.9319,21.6719 L38.7569,20.8659 C39.0319,20.5809 39.3669,20.2559 39.8579,19.8039 C40.0449,19.6369 40.2319,19.4799 40.4389,19.3229 C41.0779,18.7719 41.6879,18.2599 42.5919,17.7789 C43.1429,17.4839 43.8309,17.2079 44.6369,16.9619 C46.0329,16.5699 47.1929,16.4709 48.2349,16.4319 C48.9139,16.4119 50.7729,16.4219 53.0929,16.4609 L53.4279,16.4609 C54.6949,16.4609 56.1409,16.4609 57.7039,16.5489 C57.8919,16.5589 58.0679,16.5699 58.2449,16.5789 C58.5399,16.5989 58.8149,16.6189 59.0809,16.6479 C62.7379,16.9429 63.7719,17.4249 64.4399,17.8469 C65.4129,18.4669 66.0819,19.3319 67.4289,21.0629 L67.4389,21.0729 C68.4609,22.3799 69.3459,23.7379 70.1329,25.2319 L70.1619,25.2899 C71.1749,27.2179 71.7349,28.2799 71.8439,29.6569 C71.8629,29.9319 71.8729,30.1769 71.8729,30.4039 L71.8729,30.4039 Z M37.2399,1.8619 L37.6049,1.6749 C37.8109,1.5769 37.9779,1.3899 38.0469,1.1929 C38.1149,0.9959 38.1149,0.7109 37.9969,0.5539 C37.8989,0.3179 37.7219,0.1409 37.4859,0.0519 C37.2789,-0.0261 37.0439,-0.0161 36.8369,0.0819 L34.5859,1.1929 C34.1729,1.3899 33.9949,1.9009 34.1919,2.3639 L35.2939,4.6149 C35.4999,5.0279 36.0009,5.2039 36.4639,5.0079 C36.6799,4.9099 36.8469,4.7229 36.9159,4.5269 C36.9839,4.3389 36.9839,4.0439 36.8559,3.8679 L36.7089,3.5529 C36.8079,3.5919 36.9159,3.6409 37.0149,3.7009 C37.1909,3.7789 37.3679,3.8769 37.5449,3.9859 C37.7519,4.0939 37.9479,4.2209 38.1449,4.3589 C38.2239,4.4179 38.3129,4.4769 38.3909,4.5369 C38.5189,4.6239 38.6369,4.7229 38.7549,4.8219 C38.9409,4.9689 39.1279,5.1359 39.3049,5.3129 C39.6589,5.6469 39.9739,6.0109 40.2689,6.4049 C40.3479,6.5119 40.4359,6.6299 40.5049,6.7479 C40.5149,6.7579 40.5149,6.7679 40.5239,6.7779 C40.5339,6.7869 40.5339,6.7969 40.5439,6.8069 C40.6519,6.9449 40.7399,7.0919 40.8189,7.2399 C40.9569,7.4469 41.0749,7.6619 41.1739,7.8889 C41.2619,8.0459 41.3409,8.2129 41.3989,8.3799 C41.5369,8.7049 41.6549,9.0389 41.7539,9.3729 C41.8129,9.5409 41.8519,9.7179 41.8909,9.8849 C41.9799,10.2479 42.0379,10.6219 42.0779,10.9959 C42.0879,11.1439 42.1069,11.2909 42.1069,11.4389 C42.1269,11.6249 42.1369,11.8019 42.1269,11.9899 L42.1269,12.1069 C42.1269,12.1369 42.1269,12.1759 42.1169,12.2049 L42.1169,12.3139 C42.1169,12.4219 42.1069,12.5299 42.0979,12.6279 L42.0979,12.7069 C42.0979,12.7759 42.0879,12.8449 42.0779,12.9129 C42.0679,12.9929 42.0589,13.0609 42.0489,13.1399 C42.0379,13.2279 42.0279,13.3169 42.0089,13.4049 C41.9989,13.4939 41.9799,13.5729 41.9599,13.6509 C41.9599,13.6899 41.9499,13.7199 41.9399,13.7589 L41.9399,13.7979 C41.9309,13.8579 41.9209,13.9069 41.9009,13.9649 C41.9009,13.9749 41.8909,13.9849 41.8909,13.9959 C41.8709,14.1219 41.8419,14.2409 41.8029,14.3589 C41.6749,14.8399 41.4979,15.3029 41.2909,15.7549 C41.0949,16.1979 41.2809,16.7189 41.7329,16.9249 C41.8519,16.9839 41.9799,17.0029 42.0979,17.0029 C42.4319,17.0029 42.7559,16.8169 42.9039,16.4929 C43.5629,15.0569 43.8979,13.5229 43.8979,11.9299 C43.8979,7.5249 41.2229,3.5529 37.2399,1.8619 L37.2399,1.8619 Z M22.0389,12.7459 C22.0689,13.2779 22.1479,13.7979 22.2659,14.3099 C22.1569,13.7979 22.0779,13.2779 22.0389,12.7459 L22.0389,12.7459 Z M22.0199,11.4969 C21.9999,11.6449 21.9999,11.7829 21.9999,11.9299 C21.9999,12.2049 22.0099,12.4809 22.0389,12.7459 C22.0099,12.3329 21.9999,11.9199 22.0199,11.4969 L22.0199,11.4969 Z M31.5579,21.5269 L30.4849,19.2749 C30.3979,19.0689 30.2389,18.9119 30.0429,18.8229 C29.8259,18.7239 29.5709,18.7239 29.3059,18.8319 C28.8829,19.0689 28.7159,19.5699 28.9119,19.9829 L29.0299,20.2189 C26.8479,19.2059 25.1949,17.3769 24.3589,15.1749 C24.3199,15.0669 24.2909,14.9679 24.2519,14.8699 C24.2119,14.7229 24.1629,14.5849 24.1239,14.4379 C24.0939,14.3779 24.0739,14.3099 24.0649,14.2409 C24.0449,14.1619 24.0249,14.0829 24.0059,14.0049 C23.9859,13.9069 23.9669,13.7979 23.9469,13.6899 C23.9169,13.5519 23.8979,13.4149 23.8679,13.2669 C23.8489,13.1289 23.8389,12.9929 23.8189,12.8449 C23.7599,12.1859 23.7499,11.5369 23.8389,10.8589 L23.8389,10.8189 C23.8779,10.4749 23.9369,10.1209 24.0249,9.7769 C24.0549,9.6289 24.0939,9.4819 24.1439,9.3339 C24.1829,9.2059 24.2219,9.0789 24.2619,8.9509 L24.2909,8.8629 C25.2149,6.2669 27.2799,4.1619 29.9829,3.2389 C30.4459,3.0809 30.6919,2.5789 30.5339,2.1179 C30.3769,1.6559 29.8659,1.4099 29.4039,1.5669 C26.2079,2.6589 23.7899,5.1459 22.6889,8.2129 C22.6789,8.2329 22.6589,8.2529 22.6479,8.2729 C22.6089,8.3709 22.5899,8.4689 22.5609,8.5779 C22.4809,8.8129 22.4029,9.0589 22.3439,9.3149 C22.2359,9.7379 22.1479,10.1509 22.0989,10.5739 C22.0589,10.8779 22.0289,11.1929 22.0199,11.4969 C21.9999,11.9199 22.0099,12.3329 22.0389,12.7459 C22.0779,13.2779 22.1569,13.7979 22.2659,14.3099 C22.3149,14.5449 22.3729,14.7819 22.4519,15.0179 C22.4519,15.0469 22.4619,15.0859 22.4809,15.1159 C22.5309,15.3129 22.5999,15.4989 22.6689,15.6959 C22.6889,15.7649 22.7079,15.8239 22.7369,15.8829 C22.8069,16.0699 22.8849,16.2559 22.9739,16.4439 C23.0029,16.5119 23.0319,16.5809 23.0619,16.6399 C23.1499,16.8269 23.2489,17.0139 23.3469,17.2009 C23.3559,17.2299 23.3759,17.2589 23.3969,17.2789 C23.4939,17.4659 23.6029,17.6529 23.7109,17.8289 C23.8389,18.0369 23.9769,18.2329 24.1239,18.4289 C24.4579,18.8919 24.8219,19.3249 25.2349,19.7169 C26.1589,20.6519 27.2599,21.4279 28.5189,21.9789 L28.1059,22.1749 C27.6929,22.4119 27.5159,22.9129 27.7229,23.3459 C27.8899,23.6509 28.2039,23.8279 28.5189,23.8279 C28.6369,23.8279 28.7649,23.7979 28.8729,23.7389 L31.1049,22.6869 C31.3509,22.6089 31.5369,22.3819 31.5969,22.1959 C31.6749,21.9889 31.6549,21.7429 31.5579,21.5269 L31.5579,21.5269 Z M35.5039,13.0379 C35.5729,13.3139 35.6119,13.5499 35.6119,13.7769 C35.6119,14.8679 34.8949,15.8609 33.8529,16.1849 L33.8529,16.9819 C33.8139,17.1589 33.7149,17.3059 33.5869,17.4439 C33.3999,17.6299 33.1839,17.7189 32.9279,17.7189 C32.4849,17.7089 32.1029,17.3949 32.0329,16.9819 L32.0329,16.1849 C31.0109,15.8509 30.3319,14.9559 30.2929,13.8939 C30.3519,13.4029 30.7259,13.0589 31.1779,13.0489 L31.1969,13.0489 C31.6699,13.0489 32.0529,13.3829 32.1119,13.8449 C32.1219,13.9339 32.1609,14.1399 32.3479,14.3069 C32.4759,14.4249 32.6519,14.4949 32.8299,14.5039 L33.0749,14.5039 C33.3409,14.5039 33.5869,14.3469 33.7049,14.1109 C33.7829,13.9339 33.8029,13.7459 33.7439,13.5699 C33.6849,13.3829 33.5579,13.2359 33.3909,13.1569 L31.6799,12.3009 C31.0689,11.9869 30.5979,11.4359 30.4009,10.7969 C30.1939,10.1379 30.2639,9.4499 30.5879,8.8599 C30.8929,8.2699 31.3949,7.8369 32.0229,7.6409 L32.0229,7.0609 C32.0039,6.8439 32.0929,6.6089 32.2599,6.4209 C32.4459,6.2249 32.7119,6.1169 32.9969,6.1359 C33.3909,6.1359 33.7539,6.4209 33.8429,6.8249 C33.8529,6.8339 33.8719,6.9039 33.8719,6.9719 L33.8719,7.6409 C34.8559,7.9549 35.5639,8.8699 35.6119,9.9319 C35.5229,10.4229 35.1499,10.7469 34.7079,10.7469 L34.6479,10.7469 C34.2349,10.7279 33.8719,10.4229 33.7829,9.9999 C33.7729,9.8719 33.7339,9.6759 33.5479,9.5189 C33.3999,9.3709 33.2029,9.3319 33.0749,9.3229 L32.8199,9.3229 C32.5549,9.3229 32.3089,9.4799 32.1899,9.7149 C32.1029,9.8819 32.0929,10.0699 32.1509,10.2559 C32.2099,10.4429 32.3379,10.5899 32.5049,10.6599 L34.2159,11.5149 C34.8159,11.8199 35.2879,12.3709 35.5039,13.0289 L35.5039,13.0379 Z" id="Fill-1" fill="#01675A"></path>
    </g>
</svg>