<?xml version="1.0" encoding="UTF-8"?>
<svg width="72px" height="40px" viewBox="0 0 72 40" version="1.1" xmlns="http://www.w3.org/2000/svg" xmlns:xlink="http://www.w3.org/1999/xlink">
    <!-- Generator: Sketch 53.2 (72643) - https://sketchapp.com -->
    <title>DCU_Illustration_PLP_Non-Functional_Green_Student Loan Refinance Program</title>
    <desc>Created with Sketch.</desc>
    <defs>
        <polygon id="path-1" points="0 0 31.489 0 31.489 39.9998 0 39.9998"></polygon>
    </defs>
    <g id="DCU_Illustration_PLP_Non-Functional_Green_Student-Loan-Refinance-Program" stroke="none" stroke-width="1" fill="none" fill-rule="evenodd">
        <g id="Group-3" transform="translate(40.000000, 0.000000)">
            <mask id="mask-2" fill="white">
                <use xlink:href="#path-1"></use>
            </mask>
            <g id="Clip-2"></g>
            <path d="M16.1807,32.4188 L9.4267,29.9588 L15.9287,29.9588 C16.4437,29.9588 16.8667,29.5458 16.8667,29.0218 C16.8667,28.4968 16.4437,28.0728 15.9287,28.0728 L9.6487,28.0728 L16.1917,25.7848 L25.3557,28.9808 L16.1807,32.4188 Z M22.6137,36.4008 C22.2597,36.8448 20.8387,38.1148 16.1307,38.1148 C11.4227,38.1148 9.9707,36.8448 9.6077,36.4008 L9.6077,32.0358 L15.8587,34.3038 C16.0707,34.3848 16.3127,34.3848 16.5137,34.3038 L22.6137,32.0248 L22.6137,36.4008 Z M3.5887,37.6408 L4.0937,36.4208 L4.5577,37.6408 L3.5887,37.6408 Z M28.4297,28.0538 L16.5137,23.8998 C16.3127,23.8288 16.0797,23.8288 15.8787,23.8998 L3.9427,28.0838 L3.9017,28.1038 C3.4577,28.1938 3.1457,28.5668 3.1457,29.0218 L3.1457,34.5458 L1.7247,37.9638 C1.6137,38.2658 1.6437,38.5988 1.8147,38.8508 C1.9957,39.1128 2.2887,39.2738 2.6017,39.2738 L5.5257,39.2738 C5.8267,39.2738 6.1297,39.1128 6.2907,38.8608 C6.4727,38.5988 6.5127,38.2658 6.3917,37.9828 L5.0317,34.4958 L5.0317,30.3718 L7.7327,31.3508 L7.7327,36.7538 L7.8037,37.0158 C7.9947,37.5098 9.3157,39.9998 16.1307,39.9998 C22.8657,39.9998 24.2367,37.5098 24.4377,37.0058 L24.4887,31.3098 L28.4597,29.8278 C28.8327,29.6868 29.0757,29.3338 29.0757,28.9308 C29.0657,28.5368 28.8027,28.1848 28.4297,28.0538 L28.4297,28.0538 Z M4.0977,36.4178 L3.5877,37.6388 L4.5577,37.6388 L4.0977,36.4178 Z M4.0827,36.7638 L3.7817,37.5208 L4.3757,37.5208 L4.0827,36.7638 Z M29.2577,24.2198 C29.0757,24.7138 28.5277,24.9658 28.0437,24.7868 L25.7327,23.9348 C25.2387,23.7528 24.9947,23.2088 25.1777,22.7148 C25.3557,22.2308 25.8947,21.9758 26.3877,22.1568 L28.6997,23.0098 C29.1837,23.1888 29.4357,23.7358 29.2577,24.2198 L29.2577,24.2198 Z M2.5897,23.0098 L4.9017,22.1568 C5.3947,21.9758 5.9327,22.2308 6.1117,22.7148 C6.2937,23.2088 6.0497,23.7528 5.5567,23.9348 L3.2447,24.7868 C2.7617,24.9658 2.2137,24.7138 2.0317,24.2198 C1.8527,23.7358 2.1057,23.1888 2.5897,23.0098 L2.5897,23.0098 Z M28.0807,13.4318 L30.5457,13.4288 C31.0717,13.4278 31.4887,13.8538 31.4897,14.3688 C31.4907,14.8958 31.0747,15.3218 30.5477,15.3228 L28.0837,15.3268 C27.5687,15.3268 27.1417,14.9008 27.1407,14.3758 C27.1397,13.8588 27.5657,13.4328 28.0807,13.4318 L28.0807,13.4318 Z M0.9417,13.4318 L3.4057,13.4288 C3.9307,13.4278 4.3477,13.8538 4.3487,14.3688 C4.3497,14.8958 3.9337,15.3218 3.4077,15.3228 L0.9437,15.3268 C0.4277,15.3268 0.0007,14.9008 -0.0003,14.3758 C-0.0013,13.8588 0.4247,13.4328 0.9417,13.4318 L0.9417,13.4318 Z M27.2637,4.9118 C27.6357,5.2828 27.6357,5.8868 27.2717,6.2518 L25.5317,7.9948 C25.1597,8.3678 24.5637,8.3608 24.1917,7.9898 C23.8267,7.6248 23.8187,7.0288 24.1897,6.6568 L25.9307,4.9128 C26.2947,4.5478 26.8987,4.5478 27.2637,4.9118 L27.2637,4.9118 Z M6.6747,4.0288 L8.4147,5.7728 C8.7867,6.1458 8.7797,6.7418 8.4137,7.1068 C8.0417,7.4778 7.4457,7.4838 7.0747,7.1118 L5.3337,5.3678 C4.9697,5.0028 4.9697,4.3988 5.3417,4.0278 C5.7067,3.6638 6.3107,3.6638 6.6747,4.0288 L6.6747,4.0288 Z M17.5797,0.9418 L17.5797,3.4058 C17.5797,3.9328 17.1537,4.3488 16.6377,4.3488 C16.1127,4.3488 15.6857,3.9328 15.6857,3.4058 L15.6857,0.9418 C15.6857,0.4268 16.1127,-0.0002 16.6377,-0.0002 C17.1537,-0.0002 17.5797,0.4268 17.5797,0.9418 L17.5797,0.9418 Z M25.5717,12.6328 C24.6607,9.9868 22.7857,7.8528 20.2857,6.6318 C17.7777,5.4068 14.9417,5.2408 12.3087,6.1468 C9.6667,7.0468 7.5287,8.9318 6.2937,11.4368 C3.9577,16.1968 5.5627,21.9538 10.0327,24.8178 L10.0637,24.8448 L11.2777,24.4198 C11.3797,24.3928 11.4877,24.3558 11.5947,24.3178 C11.8057,24.2538 12.0207,24.1798 12.2537,24.1138 L12.4377,24.0588 L12.2657,23.9748 C12.2017,23.9438 12.1397,23.9128 12.0727,23.8918 C12.0087,23.8598 11.9507,23.8438 11.8867,23.8128 C9.8107,22.7988 8.2577,21.0348 7.5007,18.8318 C6.7477,16.6428 6.8967,14.3008 7.9057,12.2338 C10.0117,7.9418 15.2007,6.1498 19.4887,8.2428 C21.5547,9.2528 23.1177,11.0218 23.8657,13.2198 C24.6187,15.4088 24.4787,17.7548 23.4647,19.8308 C22.6767,21.4458 21.4217,22.7568 19.8447,23.6068 L19.6747,23.7028 L19.8647,23.7508 C20.6697,23.9538 21.3597,24.2128 21.8557,24.4098 L21.8917,24.4278 L21.9277,24.3998 C23.2837,23.4078 24.3407,22.1358 25.0807,20.6198 C26.3017,18.1198 26.4817,15.2788 25.5717,12.6328 L25.5717,12.6328 Z M18.4457,17.4628 C18.5257,17.7638 18.5657,18.0248 18.5657,18.2758 C18.5657,19.4808 17.7617,20.5658 16.6177,20.9178 L16.6177,21.8208 C16.5667,22.0128 16.4767,22.1628 16.3257,22.3138 C16.1247,22.5148 15.8837,22.6148 15.6227,22.6148 C15.1507,22.5848 14.7487,22.2538 14.6687,21.8118 L14.6687,20.9178 C13.5537,20.5658 12.7897,19.5818 12.7407,18.4068 C12.7997,17.8948 13.2117,17.5128 13.6947,17.5028 L13.7137,17.5028 C14.2167,17.5028 14.6277,17.8638 14.6987,18.3558 C14.7087,18.4778 14.7587,18.7078 14.9597,18.8888 C15.1107,19.0288 15.2907,19.0998 15.5227,19.1098 L15.7927,19.1098 C16.0947,19.1098 16.3757,18.9288 16.5167,18.6578 C16.6067,18.4568 16.6267,18.2458 16.5567,18.0348 C16.4867,17.8238 16.3457,17.6638 16.1557,17.5728 L14.2667,16.6188 C13.5937,16.2768 13.0807,15.6748 12.8707,14.9618 C12.6497,14.2588 12.7097,13.5158 13.0617,12.8618 C13.3927,12.2198 13.9547,11.7368 14.6487,11.5168 L14.6487,10.8538 C14.6387,10.6028 14.7387,10.3518 14.9097,10.1708 C15.0897,9.9698 15.3617,9.8498 15.6427,9.8498 L15.6827,9.8498 C16.1157,9.8498 16.4957,10.1608 16.6067,10.5928 C16.6177,10.6128 16.6267,10.6628 16.6267,10.7538 L16.6267,11.5068 C17.7317,11.8678 18.5047,12.8728 18.5657,14.0178 C18.4647,14.5398 18.0637,14.8918 17.5907,14.8918 L17.5407,14.8918 C17.0787,14.8708 16.6977,14.5398 16.6067,14.0878 C16.5967,13.9978 16.5567,13.7458 16.3357,13.5348 C16.1957,13.4048 16.0037,13.3248 15.7927,13.3148 L15.5017,13.3148 C15.2007,13.3148 14.9197,13.4948 14.7797,13.7758 C14.6787,13.9778 14.6587,14.1888 14.7387,14.3898 C14.8087,14.6008 14.9497,14.7718 15.1507,14.8608 L17.0287,15.8148 C17.6917,16.1368 18.2137,16.7388 18.4457,17.4628 L18.4457,17.4628 Z" id="Fill-1" fill="#01675A" mask="url(#mask-2)"></path>
        </g>
    </g>
</svg>