<?xml version="1.0" encoding="utf-8"?>
<!-- Generator: Adobe Illustrator 24.0.3, SVG Export Plug-In . SVG Version: 6.00 Build 0)  -->
<svg version="1.1" id="Layer_1" xmlns:svgjs="http://svgjs.com/svgjs"
	 xmlns="http://www.w3.org/2000/svg" xmlns:xlink="http://www.w3.org/1999/xlink" x="0px" y="0px" viewBox="0 0 40 40"
	 style="enable-background:new 0 0 40 40;" xml:space="preserve">
<style type="text/css">
	.st0{fill:#B70000;}
</style>
<title>Exported from Streamline App (https://app.streamlineicons.com)</title>
<g transform="matrix(1.6666666666666667,0,0,1.6666666666666667,0,0)">
	<g>
		<path class="st0" d="M12,18c-0.6,0-1.1-0.5-1.1-1.1s0.5-1.1,1.1-1.1c0.6,0,1.1,0.5,1.1,1.1S12.6,18,12,18z"/>
	</g>
	<g>
		<path class="st0" d="M12,14.2c-0.4,0-0.7-0.3-0.7-0.8V5.2c0-0.4,0.3-0.8,0.7-0.8c0.4,0,0.8,0.3,0.8,0.8v8.2
			C12.7,13.9,12.4,14.2,12,14.2z"/>
	</g>
	<g>
		<path class="st0" d="M12,24C5.4,24,0,18.6,0,12C0,5.4,5.4,0,12,0c6.6,0,12,5.4,12,12C24,18.6,18.6,24,12,24z M12,1.5
			C6.2,1.5,1.5,6.2,1.5,12S6.2,22.5,12,22.5S22.5,17.8,22.5,12S17.8,1.5,12,1.5z"/>
	</g>
</g>
</svg>
