<?xml version="1.0" encoding="UTF-8"?>
<svg width="1024" height="560" viewBox="0 0 1024 560" fill="none" xmlns="http://www.w3.org/2000/svg">
<path fill-rule="evenodd" clip-rule="evenodd" d="M686.908 79.7671H771.279L686.908 164.138V79.7671ZM686.908 188.462C686.243 185.746 685.521 183.075 684.741 180.447L647.286 217.902H686.908V280.031L783.849 183.089V81.3385L686.908 178.28V188.462ZM641.458 112.447C659.438 127.971 672.684 147.105 681.195 169.85L633.144 217.902H595.596C594.863 193.552 588.73 176.068 577.196 165.449C567.549 156.568 553.676 151.401 535.576 149.948L598.785 86.7385C614.724 92.9998 628.948 101.569 641.458 112.447ZM454.165 290.677C454.165 332.76 459.332 362.994 469.667 381.379L411.699 439.347L418.77 446.418L475.458 389.729C486.601 402.969 503.304 409.588 525.567 409.588C547.72 409.588 564.655 404.37 576.372 393.935C588.089 383.499 594.314 366.93 595.047 344.228H656.785L516.094 484.919C468.026 482.961 429.807 465.907 401.438 433.755C377.762 406.923 363.364 371.431 358.244 327.28L456.148 229.376C454.994 239.385 454.333 250.39 454.165 262.391V290.677ZM594.677 85.1896C576.893 78.7595 557.05 75.1008 535.149 74.2132L213.196 396.166L238.78 441.087L356.568 323.299V306.849C356.829 312.064 357.205 317.171 357.697 322.17L456.987 222.88C459.813 203.178 464.731 187.696 471.741 176.434C482.909 158.492 500.485 149.521 524.469 149.521C526.433 149.521 528.355 149.558 530.236 149.631L594.677 85.1896ZM356.568 328.956L240.833 444.691L260.725 479.617H356.568V328.956ZM524.469 74C526.21 74 527.939 74.0165 529.656 74.0495L356.884 246.821C358.996 216.754 365.517 189.905 376.447 166.273C390.178 136.797 409.86 114.095 435.491 98.1667C461.122 82.0556 490.782 74 524.469 74ZM356.568 79.7671V247.137L211.143 392.562L119.02 230.809V350.139L22.6272 446.532V237.171L141.132 118.667L260.45 328.575V79.7671H356.568ZM22.6272 457.845V479.617H119.02V361.453L22.6272 457.845ZM1001.9 90.023V79.7671H905.507V186.415L1001.9 90.023ZM783.849 308.073V219.992L686.908 316.934V343.404C686.911 343.679 686.915 343.954 686.919 344.228H659.613L518.828 485.014C521.053 485.077 523.3 485.109 525.567 485.109C557.423 485.109 585.709 479.251 610.425 467.534C635.324 455.816 654.64 439.339 668.371 418.102C678.41 402.44 685.122 385.066 688.506 365.98C689.943 376.715 692.339 386.797 695.695 396.227L783.849 308.073ZM697.236 400.343L783.849 313.73V345.327C784.931 388.432 804.669 410.306 843.063 410.947L778.662 475.348C759.849 469.033 743.544 459.654 729.749 447.211C715.215 434.102 704.377 418.479 697.236 400.343ZM905.507 192.072L1001.9 95.6799V252.111L905.328 348.682C905.447 346.179 905.507 343.596 905.507 340.933V192.072ZM686.908 314.105V285.688L783.849 188.746V217.164L686.908 314.105ZM139.081 115.06L119.02 79.7671H22.6272V231.514L139.081 115.06ZM782.947 476.72C801.28 482.313 821.903 485.109 844.815 485.109C877.038 485.109 904.958 479.434 928.575 468.083C952.193 456.732 970.318 440.254 982.95 418.651C995.583 396.864 1001.9 371.141 1001.9 341.482V257.768L904.908 354.759C903.285 372.424 898.358 385.666 890.128 394.484C880.566 404.729 866.783 410.197 848.781 410.887L782.947 476.72Z" fill="#01675A"/>
</svg>
