<?xml version="1.0" encoding="UTF-8"?>
<svg width="28px" height="40px" viewBox="0 0 28 40" version="1.1" xmlns="http://www.w3.org/2000/svg" xmlns:xlink="http://www.w3.org/1999/xlink">
    <!-- Generator: Sketch 52.5 (67469) - http://www.bohemiancoding.com/sketch -->
    <title>DCU_Illustration_Global_Non-Functional_Green_Location</title>
    <desc>Created with Sketch.</desc>
    <defs>
        <path d="M22.9984733,21.129771 C24.0256489,19.4442748 25.1236641,16.1587786 25.1236641,13.9480916 C25.1236641,7.79236641 20.1172519,2.78473282 13.9615267,2.78473282 C7.79358779,2.78473282 2.7859542,7.79236641 2.7859542,13.9480916 C2.7859542,16.1587786 3.88519084,19.4442748 4.90992366,21.129771 L13.9615267,35.9328244 L22.9984733,21.129771 Z M13.9615267,0 C21.6439695,0 27.9096183,6.26564885 27.9096183,13.9480916 C27.9096183,16.5984733 26.870229,20.1526718 25.381374,22.5832061 L15.1450382,39.3282443 C15.0351145,39.5236641 14.8653435,39.6824427 14.6699237,39.8045802 C14.448855,39.9389313 14.2058015,40 13.9615267,40 C13.4851908,40 13.0198473,39.7557252 12.7645802,39.3282443 L2.52824427,22.5832061 C1.03938931,20.1526718 -1.70530257e-13,16.5984733 -1.70530257e-13,13.9480916 C-1.70530257e-13,6.26564885 6.26687023,0 13.9615267,0 Z M13.9610382,18.1491298 C16.2694351,18.1491298 18.1503511,16.2682137 18.1503511,13.9488244 C18.1503511,11.6404275 16.2694351,9.75951145 13.9610382,9.75951145 C11.6416489,9.75951145 9.75951145,11.6404275 9.75951145,13.9488244 C9.75951145,16.2682137 11.6416489,18.1491298 13.9610382,18.1491298 Z M13.9610382,6.98577099 C17.7961527,6.98577099 20.9228702,10.1137099 20.9228702,13.9488244 C20.9228702,17.7949313 17.7961527,20.9228702 13.9610382,20.9228702 C10.1149313,20.9228702 6.98699237,17.7949313 6.98699237,13.9488244 C6.98699237,10.1137099 10.1149313,6.98577099 13.9610382,6.98577099 Z" id="path-1"></path>
    </defs>
    <g id="DCU_Illustration_Global_Non-Functional_Green_Location" stroke="none" stroke-width="1" fill="none" fill-rule="evenodd">
        <mask id="mask-2" fill="white">
            <use xlink:href="#path-1"></use>
        </mask>
        <g id="Combined-Shape"></g>
        <g id="Color/Primary/Green/Dark" mask="url(#mask-2)" fill="#01675A">
            <rect id="Rectangle" x="0" y="0" width="28" height="40"></rect>
        </g>
    </g>
</svg>