<?xml version="1.0" encoding="UTF-8"?>
<svg width="40px" height="40px" viewBox="0 0 40 40" version="1.1" xmlns="http://www.w3.org/2000/svg" xmlns:xlink="http://www.w3.org/1999/xlink">
    <!-- Generator: Sketch 52.5 (67469) - http://www.bohemiancoding.com/sketch -->
    <title>DCU_Illustration_Global_Non-Functional_Green_Chat</title>
    <desc>Created with Sketch.</desc>
    <defs>
        <path d="M39.9995,7.991 L39.9995,28.893 C39.9995,29.763 39.6885,30.553 39.1385,31.113 C38.5905,31.662 37.8135,31.974 36.9305,32.009 L35.1145,32.009 L35.1145,37.79 C35.1145,38.317 34.7795,38.806 34.3015,39.009 C34.1355,39.079 33.9545,39.116 33.7885,39.116 C33.4425,39.116 33.1065,38.985 32.8565,38.758 L25.6905,32.009 L14.6655,32.009 C14.3325,32.022 13.9865,31.878 13.7235,31.615 C13.4595,31.364 13.3175,31.018 13.3175,30.671 C13.3175,30.338 13.4595,29.991 13.7235,29.729 C13.9865,29.477 14.3325,29.346 14.6785,29.334 L26.2165,29.334 L26.2285,29.334 C26.5625,29.334 26.8955,29.465 27.1355,29.693 L32.4385,34.685 L32.4385,30.671 C32.4385,29.966 33.0595,29.334 33.7755,29.334 L36.8565,29.334 C37.0375,29.334 37.1815,29.286 37.2515,29.215 C37.2755,29.192 37.3235,29.144 37.3235,28.893 L37.3235,7.991 C37.3235,7.321 37.8615,6.724 38.5185,6.654 L38.6375,6.654 C38.9605,6.654 39.2945,6.772 39.5445,7.012 C39.8435,7.262 39.9995,7.633 39.9995,7.991 Z M33.813,0.885 C34.362,1.434 34.671,2.235 34.671,3.118 L34.671,23.566 C34.671,24.426 34.362,25.214 33.8,25.775 C33.239,26.361 32.439,26.682 31.555,26.682 L13.854,26.682 L6.7,33.419 C6.45,33.657 6.115,33.778 5.769,33.778 C5.589,33.778 5.422,33.74 5.256,33.682 C4.777,33.467 4.442,32.978 4.442,32.45 L4.442,26.682 L3.093,26.682 C2.209,26.659 1.421,26.335 0.859,25.775 C0.298,25.226 -8.8817842e-14,24.426 -8.8817842e-14,23.566 L-8.8817842e-14,3.118 C-8.8817842e-14,2.245 0.298,1.445 0.859,0.885 C1.421,0.31 2.221,1.0658141e-14 3.105,1.0658141e-14 L31.555,1.0658141e-14 C32.451,1.0658141e-14 33.251,0.31 33.813,0.885 Z M5.78,24.008 C6.485,24.008 7.118,24.629 7.118,25.344 L7.118,29.347 L12.409,24.366 C12.66,24.127 12.994,24.008 13.329,24.008 L31.555,24.008 C31.818,24.008 31.877,23.947 31.901,23.912 C31.926,23.887 31.997,23.817 31.997,23.566 L31.997,3.118 C31.997,2.856 31.926,2.782 31.901,2.76 C31.877,2.735 31.818,2.677 31.555,2.677 L3.105,2.677 C2.854,2.677 2.794,2.735 2.76,2.76 C2.747,2.782 2.675,2.856 2.675,3.118 L2.675,23.566 C2.675,23.817 2.722,23.876 2.747,23.899 C2.83,23.983 2.998,23.994 3.129,24.008 L5.78,24.008 Z" id="path-1"></path>
    </defs>
    <g id="DCU_Illustration_Global_Non-Functional_Green_Chat" stroke="none" stroke-width="1" fill="none" fill-rule="evenodd">
        <mask id="mask-2" fill="white">
            <use xlink:href="#path-1"></use>
        </mask>
        <g id="Combined-Shape"></g>
        <g id="Color/Primary/Green/Dark" mask="url(#mask-2)" fill="#01675A">
            <rect id="Rectangle" x="0" y="0" width="40" height="40"></rect>
        </g>
    </g>
</svg>