<svg xmlns="http://www.w3.org/2000/svg" xmlns:xlink="http://www.w3.org/1999/xlink" width="54" height="54" viewBox="0 0 54 54">
  <defs>
    <clipPath id="clip-path">
      <path id="Path_12760" data-name="Path 12760" d="M21.925-42.082a1.205,1.205,0,0,0,1.205-1.205v-1.607A1.205,1.205,0,0,0,21.925-46.1a1.205,1.205,0,0,0-1.205,1.205v1.607A1.205,1.205,0,0,0,21.925-42.082Z" transform="translate(-20.72 46.1)" fill="#fff" clip-rule="evenodd"/>
    </clipPath>
    <clipPath id="clip-path-2">
      <path id="Path_12759" data-name="Path 12759" d="M-697,1593.721H106.5V-865H-697Z" transform="translate(697 865)" fill="#fff"/>
    </clipPath>
    <clipPath id="clip-path-3">
      <path id="Path_12763" data-name="Path 12763" d="M43.032-27.6H41.425a1.205,1.205,0,0,0-1.205,1.205,1.205,1.205,0,0,0,1.205,1.205h1.607a1.205,1.205,0,0,0,1.205-1.205A1.205,1.205,0,0,0,43.032-27.6Z" transform="translate(-40.22 27.6)" fill="#fff" clip-rule="evenodd"/>
    </clipPath>
    <clipPath id="clip-path-5">
      <path id="Path_12766" data-name="Path 12766" d="M4.238-26.395A1.205,1.205,0,0,0,3.032-27.6H1.425A1.205,1.205,0,0,0,.22-26.395a1.205,1.205,0,0,0,1.205,1.205H3.032A1.205,1.205,0,0,0,4.238-26.395Z" transform="translate(-0.22 27.6)" fill="#fff" clip-rule="evenodd"/>
    </clipPath>
    <clipPath id="clip-path-7">
      <path id="Path_12769" data-name="Path 12769" d="M35.856-36.9a1.205,1.205,0,0,0,.852-.354l1.141-1.133a1.205,1.205,0,0,0-.03-1.674,1.205,1.205,0,0,0-1.674-.03L35-38.956a1.205,1.205,0,0,0-.261,1.313A1.205,1.205,0,0,0,35.856-36.9Z" transform="translate(-34.651 40.413)" fill="#fff" clip-rule="evenodd"/>
    </clipPath>
    <clipPath id="clip-path-9">
      <path id="Path_12772" data-name="Path 12772" d="M8.575-38.956,7.434-40.089a1.205,1.205,0,0,0-1.674.03,1.205,1.205,0,0,0-.03,1.674l1.141,1.133a1.205,1.205,0,0,0,1.674-.03,1.205,1.205,0,0,0,.03-1.674Z" transform="translate(-5.407 40.413)" fill="#fff" clip-rule="evenodd"/>
    </clipPath>
    <clipPath id="clip-path-11">
      <path id="Path_12775" data-name="Path 12775" d="M38.724-14.679a1.205,1.205,0,0,0-1.674.03,1.205,1.205,0,0,0-.03,1.674l1.141,1.133a1.205,1.205,0,0,0,1.674-.03,1.205,1.205,0,0,0,.03-1.674Z" transform="translate(-36.697 15.003)" fill="#fff" clip-rule="evenodd"/>
    </clipPath>
    <clipPath id="clip-path-13">
      <path id="Path_12778" data-name="Path 12778" d="M4.862-14.679,3.721-13.546a1.205,1.205,0,0,0,.03,1.674,1.205,1.205,0,0,0,1.674.03l1.141-1.133a1.205,1.205,0,0,0-.03-1.674A1.205,1.205,0,0,0,4.862-14.679Z" transform="translate(-3.397 15.003)" fill="#fff" clip-rule="evenodd"/>
    </clipPath>
    <clipPath id="clip-path-15">
      <path id="Path_12781" data-name="Path 12781" d="M31.218-26.355a11.249,11.249,0,0,0-9.436-11.118A11.249,11.249,0,0,0,9.3-29.934a11.249,11.249,0,0,0,5.447,13.527,2.411,2.411,0,0,0-.386,1.3V-12.7a4.821,4.821,0,0,0,4.821,4.821h1.607A4.821,4.821,0,0,0,25.609-12.7v-2.411a2.411,2.411,0,0,0-.386-1.3A11.249,11.249,0,0,0,31.218-26.355ZM23.183-15.106v.8H19.165A1.205,1.205,0,0,0,17.96-13.1a1.205,1.205,0,0,0,1.205,1.205h3.873a2.411,2.411,0,0,1-2.266,1.607H19.165A2.411,2.411,0,0,1,16.755-12.7v-2.411Zm-3.214-2.411h0a8.839,8.839,0,0,1-8.839-8.839,8.839,8.839,0,0,1,8.839-8.839,8.839,8.839,0,0,1,8.839,8.839A8.839,8.839,0,0,1,26.216-20.1a8.839,8.839,0,0,1-6.255,2.586Z" transform="translate(-8.718 37.621)" fill="#fff" clip-rule="evenodd"/>
    </clipPath>
    <clipPath id="clip-path-17">
      <path id="Path_12784" data-name="Path 12784" d="M22.425-32.1a1.205,1.205,0,0,0-1.205,1.205,1.205,1.205,0,0,0,1.205,1.205,4.427,4.427,0,0,1,4.419,4.419,1.205,1.205,0,0,0,1.205,1.205,1.205,1.205,0,0,0,1.205-1.205,6.838,6.838,0,0,0-6.83-6.83Z" transform="translate(-21.22 32.1)" fill="#fff" clip-rule="evenodd"/>
    </clipPath>
  </defs>
  <g id="Group_13456" data-name="Group 13456" transform="translate(0.219 0.219)">
    <circle id="Ellipse_1978" data-name="Ellipse 1978" cx="27" cy="27" r="27" transform="translate(-0.219 -0.219)" fill="#00916e"/>
    <g id="Group_13482" data-name="Group 13482" transform="translate(8.982 53.351)">
      <g id="Group_13465" data-name="Group 13465" transform="translate(16.692 -46.1)" clip-path="url(#clip-path)">
        <g id="Group_13464" data-name="Group 13464" transform="translate(-576.69 -657.989)" clip-path="url(#clip-path-2)">
          <path id="Path_12758" data-name="Path 12758" d="M15.72-51.1H26.166v12.053H15.72Z" transform="translate(556.953 705.071)" fill="#fff"/>
        </g>
      </g>
      <g id="Group_13467" data-name="Group 13467" transform="translate(32.36 -31.235)" clip-path="url(#clip-path-3)">
        <g id="Group_13466" data-name="Group 13466" transform="translate(-592.359 -672.854)" clip-path="url(#clip-path-2)">
          <path id="Path_12761" data-name="Path 12761" d="M35.22-32.6H47.273v10.446H35.22Z" transform="translate(553.121 701.436)" fill="#fff"/>
        </g>
      </g>
      <g id="Group_13469" data-name="Group 13469" transform="translate(0.22 -31.235)" clip-path="url(#clip-path-5)">
        <g id="Group_13468" data-name="Group 13468" transform="translate(-560.219 -672.854)" clip-path="url(#clip-path-2)">
          <path id="Path_12764" data-name="Path 12764" d="M-4.78-32.6H7.273v10.446H-4.78Z" transform="translate(560.981 701.436)" fill="#fff"/>
        </g>
      </g>
      <g id="Group_13471" data-name="Group 13471" transform="translate(27.886 -41.53)" clip-path="url(#clip-path-7)">
        <g id="Group_13470" data-name="Group 13470" transform="translate(-587.884 -662.559)" clip-path="url(#clip-path-2)">
          <path id="Path_12767" data-name="Path 12767" d="M29.651-45.413H41.207v11.548H29.651Z" transform="translate(554.216 703.954)" fill="#fff"/>
        </g>
      </g>
      <g id="Group_13473" data-name="Group 13473" transform="translate(4.388 -41.53)" clip-path="url(#clip-path-9)">
        <g id="Group_13472" data-name="Group 13472" transform="translate(-564.387 -662.559)" clip-path="url(#clip-path-2)">
          <path id="Path_12770" data-name="Path 12770" d="M.407-45.413H11.934v11.518H.407Z" transform="translate(559.962 703.954)" fill="#fff"/>
        </g>
      </g>
      <g id="Group_13475" data-name="Group 13475" transform="translate(29.53 -21.113)" clip-path="url(#clip-path-11)">
        <g id="Group_13474" data-name="Group 13474" transform="translate(-589.528 -682.976)" clip-path="url(#clip-path-2)">
          <path id="Path_12773" data-name="Path 12773" d="M31.7-20H43.224V-8.484H31.7Z" transform="translate(553.813 698.961)" fill="#fff"/>
        </g>
      </g>
      <g id="Group_13477" data-name="Group 13477" transform="translate(2.773 -21.113)" clip-path="url(#clip-path-13)">
        <g id="Group_13476" data-name="Group 13476" transform="translate(-562.772 -682.976)" clip-path="url(#clip-path-2)">
          <path id="Path_12776" data-name="Path 12776" d="M-1.6-20H9.924V-8.484H-1.6Z" transform="translate(560.357 698.961)" fill="#fff"/>
        </g>
      </g>
      <g id="Group_13479" data-name="Group 13479" transform="translate(7.048 -39.287)" clip-path="url(#clip-path-15)">
        <g id="Group_13478" data-name="Group 13478" transform="translate(-567.047 -664.802)" clip-path="url(#clip-path-2)">
          <path id="Path_12779" data-name="Path 12779" d="M3.718-42.621H34.253V-4.839H3.718Z" transform="translate(559.311 703.405)" fill="#fff"/>
        </g>
      </g>
      <g id="Group_13481" data-name="Group 13481" transform="translate(17.094 -34.851)" clip-path="url(#clip-path-17)">
        <g id="Group_13480" data-name="Group 13480" transform="translate(-577.092 -669.238)" clip-path="url(#clip-path-2)">
          <path id="Path_12782" data-name="Path 12782" d="M16.22-37.1H32.29v16.07H16.22Z" transform="translate(556.855 702.32)" fill="#fff"/>
        </g>
      </g>
    </g>
  </g>
</svg>
