<?xml version="1.0" encoding="utf-8"?>
<!-- Generator: Adobe Illustrator 24.0.3, SVG Export Plug-In . SVG Version: 6.00 Build 0)  -->
<svg version="1.1" id="Layer_1" xmlns="http://www.w3.org/2000/svg" xmlns:xlink="http://www.w3.org/1999/xlink" x="0px" y="0px"
	 viewBox="0 0 90 90" style="enable-background:new 0 0 90 90;" xml:space="preserve">
<style type="text/css">
	.st0{fill:#84CEBD;}
	.st1{fill:none;stroke:#0B1E1A;stroke-linecap:round;stroke-linejoin:round;stroke-miterlimit:10;}
	.st2{fill:#00A887;}
	.st3{fill:#FFFFFF;}
	.st4{fill:#005A4A;stroke:#0B1E1A;stroke-miterlimit:10;}
	.st5{fill:#FFFFFF;stroke:#0B1E1A;stroke-miterlimit:10;}
	.st6{fill:#00A887;stroke:#0B1E1A;stroke-miterlimit:10;}
	.st7{fill:none;stroke:#0B1E1A;stroke-miterlimit:10;}
	.st8{fill:#FFFFFF;stroke:#0B1E1A;stroke-linecap:round;stroke-linejoin:round;stroke-miterlimit:10;}
	.st9{fill:none;stroke:#0B1E1A;stroke-linejoin:round;stroke-miterlimit:10;}
	.st10{fill:#0B1E1A;}
	.st11{fill:#00A887;stroke:#0B1E1A;stroke-linecap:round;stroke-linejoin:round;stroke-miterlimit:10;}
	.st12{fill:#005A4A;stroke:#0B1E1A;stroke-linecap:round;stroke-linejoin:round;stroke-miterlimit:10;}
	.st13{fill:#005A4A;stroke:#0B1E1A;stroke-linejoin:round;stroke-miterlimit:10;}
	.st14{fill:#005A4A;stroke:#005A4A;stroke-miterlimit:10;}
	.st15{fill:#00A887;stroke:#0B1E1A;stroke-width:0.7468;stroke-miterlimit:10;}
	.st16{fill:none;stroke:#091E1A;stroke-width:0.5915;stroke-linecap:round;stroke-linejoin:round;stroke-miterlimit:10;}
	.st17{fill:#005A4A;}
	.st18{fill:none;stroke:#0B1E1A;stroke-width:0.8855;stroke-linejoin:round;stroke-miterlimit:10;}
	.st19{fill:#FFFFFF;stroke:#0B1E1A;stroke-width:0.8855;stroke-miterlimit:10;}
	.st20{fill:#00A887;stroke:#0B1E1A;stroke-linejoin:round;stroke-miterlimit:10;}
	.st21{fill:#D6EDEC;stroke:#0B1E1A;stroke-linecap:round;stroke-linejoin:round;stroke-miterlimit:10;}
	.st22{fill:none;stroke:#0B1E1A;stroke-width:1.1024;stroke-linecap:round;stroke-linejoin:round;stroke-miterlimit:10;}
	.st23{fill:none;stroke:#0B1E1A;stroke-width:1.1024;stroke-miterlimit:10;}
	.st24{fill:none;stroke:#0B1E1A;stroke-width:0.8534;stroke-miterlimit:10;}
	.st25{fill:none;stroke:#0B1E1A;stroke-width:0.8534;stroke-linecap:round;stroke-linejoin:round;stroke-miterlimit:10;}
	.st26{fill:#FFFFFF;stroke:#0B1E1A;stroke-linejoin:round;stroke-miterlimit:10;}
	.st27{clip-path:url(#SVGID_2_);fill:#005A4A;}
	.st28{clip-path:url(#SVGID_2_);fill:none;stroke:#0B1E1A;stroke-linecap:round;stroke-linejoin:round;stroke-miterlimit:10;}
	.st29{clip-path:url(#SVGID_2_);fill:#FFFFFF;}
	.st30{fill:#FFFFFF;stroke:#0B1E1A;stroke-width:1.3022;stroke-linejoin:round;stroke-miterlimit:10;}
	.st31{fill:#00A887;stroke:#0B1E1A;stroke-width:1.3022;stroke-linejoin:round;stroke-miterlimit:10;}
	.st32{fill:none;stroke:#0B1E1A;stroke-width:1.3022;stroke-linejoin:round;stroke-miterlimit:10;}
	.st33{fill:#005A4A;stroke:#0B1E1A;stroke-width:1.3022;stroke-linejoin:round;stroke-miterlimit:10;}
	.st34{fill:none;stroke:#0B1E1A;stroke-width:1.2716;stroke-linecap:round;stroke-linejoin:round;stroke-miterlimit:10;}
	.st35{fill:#FFFFFF;stroke:#0B1E1A;stroke-width:1.2716;stroke-linecap:round;stroke-linejoin:round;stroke-miterlimit:10;}
	.st36{fill:#00A887;stroke:#0A1E1A;stroke-width:1.0003;stroke-linecap:round;stroke-linejoin:round;stroke-miterlimit:10;}
	.st37{fill:#FFFFFF;stroke:#0A1E1A;stroke-width:1.0003;stroke-linecap:round;stroke-linejoin:round;stroke-miterlimit:10;}
	.st38{fill:#005A4A;stroke:#0A1E1A;stroke-width:1.0003;stroke-linejoin:round;stroke-miterlimit:10;}
	.st39{fill:#83CDBC;stroke:#0A1E1A;stroke-width:1.0003;stroke-linecap:round;stroke-linejoin:round;stroke-miterlimit:10;}
	.st40{fill:#FFFFFF;stroke:#0A1E1A;stroke-width:1.0003;stroke-miterlimit:10;}
	.st41{fill:#005A4A;stroke:#0A1E1A;stroke-width:1.0003;stroke-linecap:round;stroke-linejoin:round;stroke-miterlimit:10;}
	.st42{fill:none;stroke:#0A1E1A;stroke-width:1.0003;stroke-linecap:round;stroke-linejoin:round;stroke-miterlimit:10;}
	.st43{fill:none;stroke:#091E1A;stroke-width:1.0003;stroke-linecap:round;stroke-linejoin:round;stroke-miterlimit:10;}
	.st44{fill:#00A887;stroke:#091E1A;stroke-width:1.0003;stroke-linecap:round;stroke-linejoin:round;stroke-miterlimit:10;}
	.st45{fill:#FFFFFF;stroke:#091E1A;stroke-width:1.0003;stroke-linecap:round;stroke-linejoin:round;stroke-miterlimit:10;}
	.st46{fill:none;stroke:#0B1E1A;stroke-width:1.1127;stroke-miterlimit:10;}
	.st47{fill:#7ADBC0;stroke:#0B1E1A;stroke-width:1.065;stroke-miterlimit:10;}
	.st48{fill:#00B494;stroke:#494B4B;stroke-width:1.8719;stroke-miterlimit:10;}
	.st49{fill:none;stroke:#0B1E1A;stroke-width:1.065;stroke-miterlimit:10;}
	.st50{fill:#FFFFFF;stroke:#0B1E1A;stroke-width:1.065;stroke-linecap:round;stroke-linejoin:round;stroke-miterlimit:10;}
	.st51{fill:none;stroke:#FFFFFF;stroke-width:1.2518;stroke-linecap:round;stroke-miterlimit:10;}
	.st52{fill:none;stroke:#0B1E1A;stroke-width:1.7326;stroke-linecap:round;stroke-miterlimit:10;}
	.st53{fill:#0B1E1A;stroke:#0B1E1A;stroke-width:1.7818;stroke-miterlimit:10;}
	.st54{fill:#DBF3F1;}
</style>
<g>
	<circle class="st0" cx="45.5" cy="44.4" r="40"/>
	<g>
		<g>
			<line class="st1" x1="6" y1="60.9" x2="84" y2="60.9"/>
			<line class="st1" x1="1.5" y1="60.9" x2="4" y2="60.9"/>
			<line class="st1" x1="86" y1="60.9" x2="88.5" y2="60.9"/>
		</g>
	</g>
	<g>
		<g>
			<path class="st17" d="M65.49,71.29c1.59-0.38,2.5-0.8,2.5-1.25c0-1.52-10.2-2.76-22.77-2.76c-12.58,0-22.77,1.24-22.77,2.76
				c0,1.35,8.04,2.48,18.65,2.71c0,0.02-0.02,0.03-0.02,0.05c0,1.14,6.49,2.07,14.49,2.07c8,0,14.49-0.93,14.49-2.07
				C70.06,72.2,68.3,71.67,65.49,71.29z"/>
			<g>
				<path class="st8" d="M74.95,36.86c0.2-0.86,0.87-1.53,1.72-1.72l3.46-0.8c0.13-0.03,0.22-0.15,0.22-0.28
					c0-0.13-0.09-0.25-0.22-0.28l-3.46-0.8c-0.86-0.2-1.53-0.87-1.72-1.72l-0.8-3.46c-0.03-0.13-0.15-0.22-0.28-0.22
					c-0.13,0-0.25,0.09-0.28,0.22l-0.8,3.46c-0.2,0.86-0.87,1.53-1.72,1.72l-3.46,0.8c-0.13,0.03-0.22,0.15-0.22,0.28
					c0,0.13,0.09,0.25,0.22,0.28l3.46,0.8c0.86,0.2,1.53,0.87,1.72,1.72l0.8,3.46c0.03,0.13,0.15,0.22,0.28,0.22
					c0.13,0,0.25-0.09,0.28-0.22L74.95,36.86z"/>
			</g>
			<g>
				<g>
					<path class="st3" d="M69.37,65.9c0-1.14-0.93-2.07-2.07-2.07h-6.9c-1.14,0-2.07,0.93-2.07,2.07c0,1.14,0.93,2.07,2.07,2.07h6.9
						C68.44,67.97,69.37,67.04,69.37,65.9z"/>
				</g>
				<g>
					<path class="st1" d="M69.37,65.9c0-1.14-0.93-2.07-2.07-2.07h-6.9c-1.14,0-2.07,0.93-2.07,2.07c0,1.14,0.93,2.07,2.07,2.07h6.9
						C68.44,67.97,69.37,67.04,69.37,65.9z"/>
				</g>
			</g>
			<g>
				<g>
					<path class="st3" d="M67.99,70.04c0-1.14-0.93-2.07-2.07-2.07h-6.9c-1.14,0-2.07,0.93-2.07,2.07c0,1.14,0.93,2.07,2.07,2.07
						h6.9C67.06,72.11,67.99,71.18,67.99,70.04z"/>
				</g>
				<g>
					<path class="st1" d="M67.99,70.04c0-1.14-0.93-2.07-2.07-2.07h-6.9c-1.14,0-2.07,0.93-2.07,2.07c0,1.14,0.93,2.07,2.07,2.07
						h6.9C67.06,72.11,67.99,71.18,67.99,70.04z"/>
				</g>
			</g>
			<g>
				<path class="st3" d="M41.8,33.23c-1.97,0-3.87,0.24-5.67,0.67c-1.33-2.22-3.73-3.72-6.5-3.72c-0.34,0-0.67,0.02-1,0.07
					c-0.56,0.08-1.03,0.46-1.22,0.98c-0.19,0.53-0.08,1.12,0.3,1.54c0.96,1.08,1.62,2.42,1.84,3.92c-3.05,1.96-5.38,4.63-6.58,7.7
					c-0.6,1.53-2.07,2.53-3.71,2.53c-0.94,0-1.66,0.84-1.5,1.77l1.01,6.09c0.12,0.73,0.76,1.27,1.5,1.27h3.68
					c1.32,2.25,3.28,4.2,5.68,5.72v4.93c0,1.68,1.36,3.04,3.04,3.04h3.04c1.68,0,3.04-1.36,3.04-3.04v-1.71
					c0.99,0.12,2.01,0.19,3.04,0.19c1.04,0,2.05-0.08,3.04-0.21v1.73c0,1.68,1.36,3.04,3.04,3.04h3.04c1.68,0,3.04-1.36,3.04-3.04
					v-4.92c4.62-2.92,7.61-7.46,7.61-12.57C61.57,40.38,52.72,33.23,41.8,33.23z"/>
				<path class="st22" d="M61.57,49.21c0,0,6.9-1.48,3.73-7.81"/>
				<path class="st22" d="M41.8,33.23c-1.97,0-3.87,0.24-5.67,0.67c-1.33-2.22-3.73-3.72-6.5-3.72c-0.34,0-0.67,0.02-1,0.07
					c-0.56,0.08-1.03,0.46-1.22,0.98c-0.19,0.53-0.08,1.12,0.3,1.54c0.96,1.08,1.62,2.42,1.84,3.92c-3.05,1.96-5.38,4.63-6.58,7.7
					c-0.6,1.53-2.07,2.53-3.71,2.53c-0.94,0-1.66,0.84-1.5,1.77l1.01,6.09c0.12,0.73,0.76,1.27,1.5,1.27h3.68
					c1.32,2.25,3.28,4.2,5.68,5.72v4.93c0,1.68,1.36,3.04,3.04,3.04h3.04c1.68,0,3.04-1.36,3.04-3.04v-1.71
					c0.99,0.12,2.01,0.19,3.04,0.19c1.04,0,2.05-0.08,3.04-0.21v1.73c0,1.68,1.36,3.04,3.04,3.04h3.04c1.68,0,3.04-1.36,3.04-3.04
					v-4.92c4.62-2.92,7.61-7.46,7.61-12.57C61.57,40.38,52.72,33.23,41.8,33.23z"/>
				<path class="st22" d="M36.99,38.55c1.36-0.48,3.02-0.76,4.81-0.76c1.8,0,3.46,0.28,4.82,0.76"/>
				<circle class="st23" cx="29.63" cy="44.64" r="0.63"/>
			</g>
			<g>
				<g>
					<path class="st3" d="M54.19,70.04c0-1.14-0.93-2.07-2.07-2.07h-6.9c-1.14,0-2.07,0.93-2.07,2.07c0,1.14,0.93,2.07,2.07,2.07
						h6.9C53.26,72.11,54.19,71.18,54.19,70.04z"/>
				</g>
				<g>
					<path class="st1" d="M54.19,70.04c0-1.14-0.93-2.07-2.07-2.07h-6.9c-1.14,0-2.07,0.93-2.07,2.07c0,1.14,0.93,2.07,2.07,2.07
						h6.9C53.26,72.11,54.19,71.18,54.19,70.04z"/>
				</g>
			</g>
			<g>
				<g>
					<path class="st3" d="M56.95,65.9c0-1.14-0.93-2.07-2.07-2.07h-6.9c-1.14,0-2.07,0.93-2.07,2.07c0,1.14,0.93,2.07,2.07,2.07h6.9
						C56.02,67.97,56.95,67.04,56.95,65.9z"/>
				</g>
				<g>
					<path class="st1" d="M56.95,65.9c0-1.14-0.93-2.07-2.07-2.07h-6.9c-1.14,0-2.07,0.93-2.07,2.07c0,1.14,0.93,2.07,2.07,2.07h6.9
						C56.02,67.97,56.95,67.04,56.95,65.9z"/>
				</g>
			</g>
			<g>
				<g>
					<path class="st3" d="M54.19,61.76c0-1.14-0.93-2.07-2.07-2.07h-6.9c-1.14,0-2.07,0.93-2.07,2.07c0,1.14,0.93,2.07,2.07,2.07
						h6.9C53.26,63.83,54.19,62.9,54.19,61.76z"/>
				</g>
				<g>
					<path class="st1" d="M54.19,61.76c0-1.14-0.93-2.07-2.07-2.07h-6.9c-1.14,0-2.07,0.93-2.07,2.07c0,1.14,0.93,2.07,2.07,2.07
						h6.9C53.26,63.83,54.19,62.9,54.19,61.76z"/>
				</g>
			</g>
			<g>
				<circle class="st2" cx="42.36" cy="20.98" r="6.48"/>
				<path class="st3" d="M42.36,14.5c-3.58,0-6.48,2.9-6.48,6.48c0,1.79,0.72,3.41,1.9,4.58l9.16-9.16
					C45.77,15.22,44.15,14.5,42.36,14.5z"/>
				<circle class="st24" cx="42.36" cy="20.98" r="6.48"/>
				<line class="st25" x1="42.36" y1="24.21" x2="42.36" y2="25.02"/>
				<line class="st25" x1="42.36" y1="16.93" x2="42.36" y2="17.74"/>
				<path class="st25" d="M40.74,22.59c0,0.89,0.73,1.62,1.62,1.62c0.89,0,1.62-0.73,1.62-1.62c0-0.89-0.72-1.62-1.62-1.62
					c-0.89,0-1.62-0.72-1.62-1.62c0-0.89,0.73-1.62,1.62-1.62c0.89,0,1.62,0.72,1.62,1.62"/>
			</g>
			<g>
				<path class="st8" d="M62.44,11.96l3.06-1.02c0.12-0.04,0.2-0.15,0.2-0.27c0-0.12-0.08-0.23-0.2-0.27l-2.52-0.84
					c-0.34-0.11-0.61-0.38-0.73-0.73l-0.84-2.52c-0.04-0.12-0.15-0.2-0.27-0.2s-0.23,0.08-0.27,0.2l-0.84,2.52
					c-0.11,0.34-0.38,0.61-0.73,0.73l-2.52,0.84c-0.12,0.04-0.2,0.15-0.2,0.27c0,0.12,0.08,0.23,0.2,0.27l2.52,0.84
					c0.34,0.11,0.61,0.38,0.73,0.73l0.84,2.52c0.04,0.12,0.15,0.2,0.27,0.2s0.23-0.08,0.27-0.2L62.44,11.96z"/>
			</g>
			<g>
				<path class="st8" d="M16.46,26.51l3.06-1.02c0.12-0.04,0.2-0.15,0.2-0.27c0-0.12-0.08-0.23-0.2-0.27l-2.52-0.84
					c-0.34-0.11-0.61-0.38-0.73-0.73l-0.84-2.52c-0.04-0.12-0.15-0.2-0.27-0.2c-0.12,0-0.23,0.08-0.27,0.2l-0.84,2.52
					c-0.11,0.34-0.38,0.61-0.73,0.73l-2.52,0.84c-0.12,0.04-0.2,0.15-0.2,0.27c0,0.12,0.08,0.23,0.2,0.27l2.52,0.84
					c0.34,0.11,0.61,0.38,0.73,0.73l0.84,2.52c0.04,0.12,0.15,0.2,0.27,0.2c0.12,0,0.23-0.08,0.27-0.2L16.46,26.51z"/>
			</g>
		</g>
	</g>
</g>
</svg>
