<?xml version="1.0" encoding="utf-8"?>
<!-- Generator: Adobe Illustrator 24.0.1, SVG Export Plug-In . SVG Version: 6.00 Build 0)  -->
<svg version="1.1" id="Layer_1" xmlns="http://www.w3.org/2000/svg" xmlns:xlink="http://www.w3.org/1999/xlink" x="0px" y="0px"
	 viewBox="0 0 92 92" style="enable-background:new 0 0 92 92;" xml:space="preserve">
<style type="text/css">
	.st0{fill-rule:evenodd;clip-rule:evenodd;fill:#FFFFFF;}
</style>
<title>DCU_Illustration_Homepage_Non-Functional_BALANCE SM</title>
<desc>Created with Sketch.</desc>
<g id="DCU_Illustration_Homepage_Non-Functional_BALANCE-SM">
	<path id="Fill-1" class="st0" d="M21.8,48.9c0,2.1-1.4,3.8-3.3,4.2V54c0,0.7-0.5,1.2-1.2,1.2s-1.2-0.6-1.2-1.2v-0.9
		c-1.3-0.4-2.5-1.4-3-2.7c-0.2-0.6,0.1-1.4,0.7-1.6c0.6-0.2,1.2,0.1,1.5,0.6c0.3,0.8,1.1,1.4,2,1.4l0,0c1,0,2.1-0.6,2.1-1.9
		c0-0.3,0-1.4-2.4-1.9c-3.7-0.9-4.3-3.1-4.3-4.3c0-2.1,1.4-3.8,3.3-4.2v-0.9c0-0.7,0.5-1.2,1.2-1.2s1.2,0.6,1.2,1.2v0.9
		c1.3,0.4,2.4,1.4,3,2.7c0.2,0.7-0.2,1.4-0.8,1.5c-0.5,0.2-1.1-0.1-1.4-0.6c-0.3-0.8-1.1-1.4-2-1.4l0,0c-1,0-2.1,0.6-2.1,1.9
		c0,0.3,0,1.4,2.4,2C21.3,45.4,21.8,47.6,21.8,48.9L21.8,48.9z M84,62c0,0.7-0.6,1.2-1.2,1.2h-5.6v5.6c0,0.7-0.6,1.2-1.2,1.2l0,0
		c-0.7,0-1.2-0.6-1.2-1.2v-5.6h-5.6c-0.7,0-1.2-0.6-1.2-1.2c0-0.7,0.6-1.2,1.2-1.2h5.6v-5.6c0-0.7,0.6-1.2,1.2-1.2
		c0.7,0,1.2,0.6,1.2,1.2v5.6h5.6C83.4,60.8,84,61.3,84,62L84,62z M75.8,74.4c-7.1,0-12.8-5.7-12.8-12.8s5.8-12.8,12.8-12.8
		s12.8,5.8,12.8,12.8S82.9,74.4,75.8,74.4L75.8,74.4z M75.8,28.8L84,48.7c-2.4-1.5-5.2-2.4-8.2-2.4s-5.9,0.9-8.2,2.4L75.8,28.8z
		 M46.6,20.7c-1.5,0-2.7-1.2-2.7-2.7s1.2-2.7,2.7-2.7s2.7,1.2,2.7,2.7S48.1,20.7,46.6,20.7L46.6,20.7z M58.7,78.3
		c0.8,0.7,1.4,1.6,1.7,2.7H32.5c0.5-1,1.3-2.2,2.8-3.1c0.9-0.5,2.1-1.3,11-1.2h0.3C56.9,76.7,58.1,77.7,58.7,78.3L58.7,78.3z
		 M25.6,33.4c-2.4-1.6-5.3-2.5-8.3-2.5c-3.1,0-5.9,0.9-8.3,2.5l8.3-20.1L25.6,33.4z M17.3,59c-7.1,0-12.8-5.8-12.8-12.8
		s5.7-12.8,12.8-12.8s12.8,5.8,12.8,12.8S24.4,59,17.3,59L17.3,59z M88.4,53L77,25.3c-0.2-0.5-0.7-0.8-1.2-0.8l-24-6.4V18
		c0-2.5-1.7-4.5-4-5V9.7c0-0.7-0.6-1.2-1.2-1.2c-0.7,0-1.2,0.5-1.2,1.2v3.2c-1.4,0.4-2.6,1.3-3.2,2.5L17.7,9c0,0,0,0-0.1,0
		s-0.2,0-0.3,0l0,0c-0.5,0-1,0.3-1.2,0.8L4.4,38l0,0C2.9,40.4,2,43.2,2,46.2c0,8.5,6.9,15.3,15.3,15.3s15.3-6.9,15.3-15.3
		c0-2.9-0.8-5.6-2.2-8l0,0l0,0L19.5,12.1l22,5.8V18c0,2.4,1.6,4.4,3.9,5v51.1c-8,0-9.8,0.7-11.3,1.6c-3,1.8-4,4.5-4.4,6
		c-0.1,0.4,0,0.9,0.3,1.2c0.3,0.4,0.7,0.6,1.2,0.6h30.6c0.4,0,0.9-0.2,1.2-0.5s0.4-0.7,0.3-1.2c-0.3-2.2-1.3-4.1-2.8-5.4
		c-1.3-1.2-3.2-2.1-12.5-2.2V23c1.4-0.3,2.6-1.3,3.3-2.5L74,26.6L63,53.3c-1.6,2.4-2.5,5.3-2.5,8.4c0,8.4,6.9,15.3,15.3,15.3
		s15.3-6.9,15.3-15.3C91.1,58.4,90.1,55.4,88.4,53L88.4,53z"/>
</g>
</svg>
