<?xml version="1.0" encoding="utf-8"?>
<!-- Generator: Adobe Illustrator 24.1.0, SVG Export Plug-In . SVG Version: 6.00 Build 0)  -->
<svg version="1.1" id="Layer_1" xmlns:svgjs="http://svgjs.com/svgjs"
	 xmlns="http://www.w3.org/2000/svg" xmlns:xlink="http://www.w3.org/1999/xlink" x="0px" y="0px" viewBox="0 0 140 140"
	 style="enable-background:new 0 0 140 140;" xml:space="preserve">
<style type="text/css">
	.st0{fill:#01675A;}
</style>
<g>
	<path class="st0" d="M132.3,2.3H92.6c-2.9,0-5.2,2.3-5.2,5.2V67L70.8,50.3c-2-2-5.3-2-7.3,0L42.8,71c0,0,0,0,0,0
		c-0.2,0.2-0.3,0.4-0.4,0.6c0,0.1,0,0.1-0.1,0.2c-0.1,0.2-0.1,0.4-0.1,0.7c0,0,0,0.1,0,0.1v14.6H17.7c-1.7,0-3.3,0.9-4.3,2.3
		l-7.5,11.3c-1.6,2.4-0.9,5.6,1.4,7.2c0.3,0.2,0.6,0.3,0.9,0.5v23.5c0,2.9,2.3,5.2,5.2,5.2h31.1h45.3c0,0,0,0,0,0s0,0,0,0h42.5
		c2.9,0,5.2-2.3,5.2-5.2V7.5C137.5,4.7,135.1,2.3,132.3,2.3z M66.8,53.7c0.2-0.2,0.5-0.2,0.7,0l16.7,16.6h-34L66.8,53.7z M9.7,103.5
		l8-11.6h24.5v12.3h-15l-17.3,0C9.6,104.1,9.6,103.8,9.7,103.5z M12.8,132.1V109h29.3v23.6H13.3C13.1,132.6,12.8,132.4,12.8,132.1z
		 M46.8,75h40.6v57.6H46.8V75z M132.8,132.1c0,0.3-0.2,0.5-0.5,0.5H92.1V7.5c0-0.3,0.2-0.5,0.5-0.5h39.6c0.3,0,0.5,0.2,0.5,0.5
		V132.1z"/>
	<path class="st0" d="M101.1,13.7c-1.3,0-2.3,1.1-2.3,2.3v5.7c0,1.3,1,2.3,2.3,2.3c1.3,0,2.3-1.1,2.3-2.3V16
		C103.4,14.7,102.4,13.7,101.1,13.7z"/>
	<path class="st0" d="M112.4,13.7c-1.3,0-2.3,1.1-2.3,2.3v5.7c0,1.3,1,2.3,2.3,2.3c1.3,0,2.3-1.1,2.3-2.3V16
		C114.8,14.7,113.7,13.7,112.4,13.7z"/>
	<path class="st0" d="M123.8,13.7c-1.3,0-2.3,1.1-2.3,2.3v5.7c0,1.3,1,2.3,2.3,2.3c1.3,0,2.3-1.1,2.3-2.3V16
		C126.1,14.7,125,13.7,123.8,13.7z"/>
	<path class="st0" d="M101.1,36.3c-1.3,0-2.3,1.1-2.3,2.3v5.7c0,1.3,1,2.3,2.3,2.3c1.3,0,2.3-1.1,2.3-2.3v-5.7
		C103.4,37.4,102.4,36.3,101.1,36.3z"/>
	<path class="st0" d="M112.4,36.3c-1.3,0-2.3,1.1-2.3,2.3v5.7c0,1.3,1,2.3,2.3,2.3c1.3,0,2.3-1.1,2.3-2.3v-5.7
		C114.8,37.4,113.7,36.3,112.4,36.3z"/>
	<path class="st0" d="M123.8,36.3c-1.3,0-2.3,1.1-2.3,2.3v5.7c0,1.3,1,2.3,2.3,2.3c1.3,0,2.3-1.1,2.3-2.3v-5.7
		C126.1,37.4,125,36.3,123.8,36.3z"/>
	<path class="st0" d="M101.1,59c-1.3,0-2.3,1.1-2.3,2.3V67c0,1.3,1,2.3,2.3,2.3c1.3,0,2.3-1,2.3-2.3v-5.7
		C103.4,60,102.4,59,101.1,59z"/>
	<path class="st0" d="M112.4,59c-1.3,0-2.3,1.1-2.3,2.3V67c0,1.3,1,2.3,2.3,2.3c1.3,0,2.3-1,2.3-2.3v-5.7
		C114.8,60,113.7,59,112.4,59z"/>
	<path class="st0" d="M123.8,59c-1.3,0-2.3,1.1-2.3,2.3V67c0,1.3,1,2.3,2.3,2.3c1.3,0,2.3-1,2.3-2.3v-5.7C126.1,60,125,59,123.8,59z
		"/>
	<path class="st0" d="M101.1,81.6c-1.3,0-2.3,1-2.3,2.3v5.7c0,1.3,1,2.3,2.3,2.3c1.3,0,2.3-1,2.3-2.3V84
		C103.4,82.7,102.4,81.6,101.1,81.6z"/>
	<path class="st0" d="M112.4,81.6c-1.3,0-2.3,1-2.3,2.3v5.7c0,1.3,1,2.3,2.3,2.3c1.3,0,2.3-1,2.3-2.3V84
		C114.8,82.7,113.7,81.6,112.4,81.6z"/>
	<path class="st0" d="M123.8,81.6c-1.3,0-2.3,1-2.3,2.3v5.7c0,1.3,1,2.3,2.3,2.3c1.3,0,2.3-1,2.3-2.3V84
		C126.1,82.7,125,81.6,123.8,81.6z"/>
	<path class="st0" d="M56.2,90c-1.3,0-2.3,1-2.3,2.3V98c0,1.3,1,2.3,2.3,2.3c1.3,0,2.3-1,2.3-2.3v-5.7C58.5,91,57.5,90,56.2,90z"/>
	<path class="st0" d="M67.5,90c-1.3,0-2.3,1-2.3,2.3V98c0,1.3,1,2.3,2.3,2.3c1.3,0,2.3-1,2.3-2.3v-5.7C69.8,91,68.8,90,67.5,90z"/>
	<path class="st0" d="M78.8,90c-1.3,0-2.3,1-2.3,2.3V98c0,1.3,1,2.3,2.3,2.3c1.3,0,2.3-1,2.3-2.3v-5.7C81.2,91,80.1,90,78.8,90z"/>
	<path class="st0" d="M56.2,112.6c-1.3,0-2.3,1-2.3,2.3v5.7c0,1.3,1,2.3,2.3,2.3c1.3,0,2.3-1,2.3-2.3V115
		C58.5,113.7,57.5,112.6,56.2,112.6z"/>
	<path class="st0" d="M67.5,112.6c-1.3,0-2.3,1-2.3,2.3v5.7c0,1.3,1,2.3,2.3,2.3c1.3,0,2.3-1,2.3-2.3V115
		C69.8,113.7,68.8,112.6,67.5,112.6z"/>
	<path class="st0" d="M78.8,112.6c-1.3,0-2.3,1-2.3,2.3v5.7c0,1.3,1,2.3,2.3,2.3c1.3,0,2.3-1,2.3-2.3V115
		C81.2,113.7,80.1,112.6,78.8,112.6z"/>
	<path class="st0" d="M101.1,104.3c-1.3,0-2.3,1-2.3,2.3v5.7c0,1.3,1,2.3,2.3,2.3c1.3,0,2.3-1,2.3-2.3v-5.7
		C103.4,105.3,102.4,104.3,101.1,104.3z"/>
	<path class="st0" d="M112.4,104.3c-1.3,0-2.3,1-2.3,2.3v5.7c0,1.3,1,2.3,2.3,2.3c1.3,0,2.3-1,2.3-2.3v-5.7
		C114.8,105.3,113.7,104.3,112.4,104.3z"/>
	<path class="st0" d="M123.8,104.3c-1.3,0-2.3,1-2.3,2.3v5.7c0,1.3,1,2.3,2.3,2.3c1.3,0,2.3-1,2.3-2.3v-5.7
		C126.1,105.3,125,104.3,123.8,104.3z"/>
	<path class="st0" d="M14.4,41c0.1,0,0.1,0,0.2,0h35.9c0.1,0,0.2,0,0.3,0c7.3-0.9,12.9-7.1,13-14.5c0-3.9-1.5-7.5-4.3-10.3
		c-2.4-2.4-5.5-3.9-9.3-4.2c-3.4-6-9.8-9.7-16.9-9.8c-9.6,0-17.6,6.6-19.5,15.8c-2.2,0-4.3,0.6-6.2,1.9c-2.6,1.7-4.3,4.2-5,7.3
		c-0.2,0.8-0.3,1.6-0.2,2.4c0,3.1,1.3,6,3.5,8.2C8.2,39.8,11,41,14.4,41z M7.3,28.1c0.4-1.8,1.4-3.3,2.9-4.3
		c1.1-0.7,2.4-1.1,3.7-1.1c0.5,0,0.9,0,1.4,0.2c0.6,0.1,1.3,0,1.9-0.4c0.5-0.4,0.9-1,0.9-1.7c0.7-7.9,7.2-13.9,15.2-13.9
		c0,0,0,0,0.1,0c5.7,0,10.9,3.3,13.3,8.4c0.4,0.8,1.7,1.3,2.6,1.3h0c2.6,0,5.1,1,6.9,2.9c1.9,1.9,2.9,4.3,2.9,6.9
		c-0.1,5-3.8,9.2-8.8,9.9l-36.2,0c-1.6-0.1-3.6-0.7-4.9-2c-1.3-1.3-2.1-3-2.1-4.9C7.2,29.1,7.2,28.6,7.3,28.1z"/>
</g>
</svg>
