<?xml version="1.0" encoding="utf-8"?>
<!-- Generator: Adobe Illustrator 24.1.0, SVG Export Plug-In . SVG Version: 6.00 Build 0)  -->
<svg version="1.1" id="Layer_1" xmlns:svgjs="http://svgjs.com/svgjs"
	 xmlns="http://www.w3.org/2000/svg" xmlns:xlink="http://www.w3.org/1999/xlink" x="0px" y="0px" viewBox="0 0 140 140"
	 style="enable-background:new 0 0 140 140;" xml:space="preserve">
<style type="text/css">
	.st0{fill:#01675A;}
</style>
<g>
	<path class="st0" d="M138.5,76.8L78,16.3c0,0,0,0,0,0c-4.4-4.4-11.6-4.4-16,0L1.6,76.8c-1,1-1,2.5,0,3.4c0.5,0.5,1.1,0.7,1.7,0.7
		s1.2-0.2,1.7-0.7l60.4-60.4c1.2-1.2,2.8-1.9,4.6-1.9c0,0,0,0,0,0c1.7,0,3.3,0.7,4.6,1.9c0,0,0,0,0,0L135,80.2c1,0.9,2.5,0.9,3.4,0
		C139.4,79.2,139.4,77.7,138.5,76.8z"/>
	<path class="st0" d="M119,78.4c-1.3,0-2.4,1.1-2.4,2.4v44.6H85.7v-28c0-5-4.1-9-9-9H63.4c-5,0-9,4.1-9,9v28H23.5V80.9
		c0-1.3-1.1-2.4-2.4-2.4s-2.4,1.1-2.4,2.4v47.1c0,1.3,1.1,2.4,2.4,2.4h35.7c1.3,0,2.4-1.1,2.4-2.4V97.5c0-2.3,1.9-4.2,4.2-4.2h13.3
		c2.3,0,4.2,1.9,4.2,4.2v30.4c0,1.3,1.1,2.4,2.4,2.4H119c1.3,0,2.4-1.1,2.4-2.4V80.9C121.4,79.5,120.3,78.4,119,78.4z"/>
	<path class="st0" d="M70,34c-1.3,0-2.4,1.1-2.4,2.4v4.1c-2.2,0-4.2,0.9-5.7,2.4c-1.6,1.6-2.4,3.6-2.4,5.8c0,3.4,2,6.4,5.2,7.6
		l8.9,3.6c0.8,0.3,1.5,1,1.8,1.8s0.4,1.7,0,2.6c-0.5,1.3-1.7,2.1-3.1,2.1h-8.8c-1.3,0-2.4,1.1-2.4,2.4s1.1,2.4,2.4,2.4h4v4
		c0,1.3,1.1,2.4,2.4,2.4c1.3,0,2.4-1.1,2.4-2.4v-4.1c3.3-0.1,6.3-2.1,7.5-5.1c0.8-2,0.8-4.3-0.1-6.3s-2.5-3.6-4.5-4.4l-8.9-3.6
		c-1.3-0.5-2.1-1.7-2.1-3.1c0-1.9,1.5-3.4,3.4-3.4h8.8c1.3,0,2.4-1.1,2.4-2.4s-1.1-2.4-2.4-2.4h-4v-4C72.5,35,71.4,34,70,34z"/>
	<path class="st0" d="M98.7,27.4c1.3,0,2.4-1.1,2.4-2.4v-6.5c0-0.7,0.6-1.2,1.2-1.2h12.8c0.8,0,1.4,0.6,1.4,1.4v25.4
		c0,1.3,1.1,2.4,2.4,2.4s2.4-1.1,2.4-2.4V18.7c0-3.5-2.8-6.3-6.3-6.3h-12.8c-3.4,0-6.1,2.7-6.1,6.1V25
		C96.3,26.4,97.4,27.4,98.7,27.4z"/>
</g>
</svg>
