<?xml version="1.0" encoding="utf-8"?>
<!-- Generator: Adobe Illustrator 24.1.0, SVG Export Plug-In . SVG Version: 6.00 Build 0)  -->
<svg version="1.1" id="Layer_1" xmlns:svgjs="http://svgjs.com/svgjs"
	 xmlns="http://www.w3.org/2000/svg" xmlns:xlink="http://www.w3.org/1999/xlink" x="0px" y="0px" viewBox="0 0 40 40"
	 style="enable-background:new 0 0 40 40;" xml:space="preserve">
<style type="text/css">
	.st0{fill:#01675A;}
</style>
<g>
	<path class="st0" d="M31.2,0H8.8C6.7,0,5,1.7,5,3.8v32.5c0,2,1.7,3.7,3.8,3.7h22.5c2.1,0,3.8-1.7,3.8-3.8V3.8C35,1.7,33.3,0,31.2,0
		z M32.5,36.2c0,0.7-0.6,1.2-1.2,1.2H8.8c-0.7,0-1.2-0.6-1.2-1.2V3.8c0-0.7,0.6-1.2,1.2-1.2h22.5c0.7,0,1.2,0.6,1.2,1.2V36.2z"/>
	<path class="st0" d="M27.5,5h-15C11.1,5,10,6.1,10,7.5v5c0,1.4,1.1,2.5,2.5,2.5h15c1.4,0,2.5-1.1,2.5-2.5v-5C30,6.1,28.9,5,27.5,5z
		 M27.5,12.5h-15v-5l0,0h15V12.5z"/>
	<path class="st0" d="M13.1,18.8c-1,0-1.9,0.8-1.9,1.9c0,1,0.8,1.9,1.9,1.9s1.9-0.8,1.9-1.9C15,19.6,14.2,18.8,13.1,18.8z
		 M13.1,21.2c-0.3,0-0.6-0.3-0.6-0.6s0.3-0.6,0.6-0.6s0.6,0.3,0.6,0.6S13.5,21.2,13.1,21.2z"/>
	<path class="st0" d="M20.3,18.8c-1,0-1.9,0.8-1.9,1.9c0,1,0.8,1.9,1.9,1.9c1,0,1.9-0.8,1.9-1.9C22.1,19.6,21.3,18.8,20.3,18.8z
		 M20.3,21.2c-0.3,0-0.6-0.3-0.6-0.6S20,20,20.3,20s0.6,0.3,0.6,0.6S20.6,21.2,20.3,21.2z"/>
	<path class="st0" d="M26.9,18.8c-1,0-1.9,0.8-1.9,1.9c0,1,0.8,1.9,1.9,1.9s1.9-0.8,1.9-1.9C28.8,19.6,27.9,18.8,26.9,18.8z
		 M26.9,21.2c-0.3,0-0.6-0.3-0.6-0.6s0.3-0.6,0.6-0.6s0.6,0.3,0.6,0.6S27.2,21.2,26.9,21.2z"/>
	<path class="st0" d="M13.1,25c-1,0-1.9,0.8-1.9,1.9s0.8,1.9,1.9,1.9S15,28,15,26.9S14.2,25,13.1,25z M13.1,27.5
		c-0.3,0-0.6-0.3-0.6-0.6s0.3-0.6,0.6-0.6s0.6,0.3,0.6,0.6S13.5,27.5,13.1,27.5z"/>
	<path class="st0" d="M20.3,25c-1,0-1.9,0.8-1.9,1.9s0.8,1.9,1.9,1.9c1,0,1.9-0.8,1.9-1.9S21.3,25,20.3,25z M20.3,27.5
		c-0.3,0-0.6-0.3-0.6-0.6s0.3-0.6,0.6-0.6s0.6,0.3,0.6,0.6S20.6,27.5,20.3,27.5z"/>
	<path class="st0" d="M26.9,25c-1,0-1.9,0.8-1.9,1.9s0.8,1.9,1.9,1.9s1.9-0.8,1.9-1.9S27.9,25,26.9,25z M26.9,27.5
		c-0.3,0-0.6-0.3-0.6-0.6s0.3-0.6,0.6-0.6s0.6,0.3,0.6,0.6S27.2,27.5,26.9,27.5z"/>
	<path class="st0" d="M13.1,31.2c-1,0-1.9,0.8-1.9,1.9S12,35,13.1,35s1.9-0.8,1.9-1.9S14.2,31.2,13.1,31.2z M13.1,33.8
		c-0.3,0-0.6-0.3-0.6-0.6s0.3-0.6,0.6-0.6s0.6,0.3,0.6,0.6S13.5,33.8,13.1,33.8z"/>
	<path class="st0" d="M20.3,31.2c-1,0-1.9,0.8-1.9,1.9s0.8,1.9,1.9,1.9c1,0,1.9-0.8,1.9-1.9S21.3,31.2,20.3,31.2z M20.3,33.8
		c-0.3,0-0.6-0.3-0.6-0.6s0.3-0.6,0.6-0.6s0.6,0.3,0.6,0.6S20.6,33.8,20.3,33.8z"/>
	<path class="st0" d="M26.9,31.2c-1,0-1.9,0.8-1.9,1.9s0.8,1.9,1.9,1.9s1.9-0.8,1.9-1.9S27.9,31.2,26.9,31.2z M26.9,33.8
		c-0.3,0-0.6-0.3-0.6-0.6s0.3-0.6,0.6-0.6s0.6,0.3,0.6,0.6S27.2,33.8,26.9,33.8z"/>
</g>
</svg>
