<svg xmlns="http://www.w3.org/2000/svg" version="1.1" xmlns:xlink="http://www.w3.org/1999/xlink" xmlns:svgjs="http://svgjs.com/svgjs" viewBox="0 0 40 40" width="40" height="40"><title>Exported from Streamline App (https://app.streamlineicons.com)</title><g transform="matrix(1.6666666666666667,0,0,1.6666666666666667,0,0)"><path d="M 8.25,20.25L9,15.75 " stroke="#ffffff" fill="none" stroke-width="1.5" stroke-linecap="round" stroke-linejoin="round"></path><path d="M 6,20.25h2.25 " stroke="#ffffff" fill="none" stroke-width="1.5" stroke-linecap="round" stroke-linejoin="round"></path><path d="M 0.75,12.75h9.133 " stroke="#ffffff" fill="none" stroke-width="1.5" stroke-linecap="round" stroke-linejoin="round"></path><path d="M 9,15.75H3.75c-1.657,0-3-1.343-3-3v-9 c0-1.657,1.343-3,3-3h16.5c1.657,0,3,1.343,3,3v7.5 " stroke="#ffffff" fill="none" stroke-width="1.5" stroke-linecap="round" stroke-linejoin="round"></path><path d="M 18.75,14.25h-2.033c-0.741,0.001-1.342,0.602-1.341,1.343 c0,0.547,0.333,1.04,0.841,1.244l2.064,0.826c0.688,0.277,1.021,1.058,0.744,1.746c-0.204,0.508-0.697,0.841-1.244,0.841H15.75 " stroke="#ffffff" fill="none" stroke-width="1.5" stroke-linecap="round" stroke-linejoin="round"></path><path d="M 17.25,14.25V13.5 " stroke="#ffffff" fill="none" stroke-width="1.5" stroke-linecap="round" stroke-linejoin="round"></path><path d="M 17.25,21v-0.75 " stroke="#ffffff" fill="none" stroke-width="1.5" stroke-linecap="round" stroke-linejoin="round"></path><path d="M 17.25,11.25c3.314,0,6,2.686,6,6s-2.686,6-6,6s-6-2.686-6-6S13.936,11.25,17.25,11.25z" stroke="#ffffff" fill="none" stroke-width="1.5" stroke-linecap="round" stroke-linejoin="round"></path></g></svg>