<?xml version="1.0" encoding="utf-8"?>
<!-- Generator: Adobe Illustrator 24.1.0, SVG Export Plug-In . SVG Version: 6.00 Build 0)  -->
<svg version="1.1" id="Layer_1" xmlns:svgjs="http://svgjs.com/svgjs"
	 xmlns="http://www.w3.org/2000/svg" xmlns:xlink="http://www.w3.org/1999/xlink" x="0px" y="0px" viewBox="0 0 40 40"
	 style="enable-background:new 0 0 40 40;" xml:space="preserve">
<style type="text/css">
	.st0{fill:#FFFFFF;}
</style>
<g>
	<path class="st0" d="M37.6,5.9l-4.9-4.8C32,0.4,31.1,0,30.1,0H5C2.9,0,1.2,1.7,1.2,3.8v32.5c0,2,1.7,3.7,3.8,3.7h30
		c2.1,0,3.8-1.7,3.8-3.8V8.6C38.8,7.5,38.3,6.6,37.6,5.9z M36.2,36.2c0,0.7-0.6,1.2-1.2,1.2H5c-0.7,0-1.2-0.6-1.2-1.2V3.8
		c0-0.7,0.6-1.2,1.2-1.2h25.1c0.3,0,0.6,0.1,0.9,0.4l4.9,4.8c0.2,0.2,0.4,0.6,0.4,0.9v27.5H36.2z"/>
	<path class="st0" d="M30.1,12.5h-20c-0.7,0-1.2,0.6-1.2,1.2S9.4,15,10.1,15h20c0.7,0,1.2-0.6,1.2-1.2S30.8,12.5,30.1,12.5z"/>
	<path class="st0" d="M30.1,20h-20c-0.7,0-1.2,0.6-1.2,1.2s0.6,1.2,1.2,1.2h20c0.7,0,1.2-0.6,1.2-1.2S30.8,20,30.1,20z"/>
	<path class="st0" d="M20.1,27.5h-10c-0.7,0-1.2,0.6-1.2,1.2S9.4,30,10.1,30h10c0.7,0,1.2-0.6,1.2-1.2S20.8,27.5,20.1,27.5z"/>
</g>
</svg>
