<?xml version="1.0" encoding="utf-8"?>
<!-- Generator: Adobe Illustrator 24.1.0, SVG Export Plug-In . SVG Version: 6.00 Build 0)  -->
<svg version="1.1" id="Layer_1" xmlns:svgjs="http://svgjs.com/svgjs"
	 xmlns="http://www.w3.org/2000/svg" xmlns:xlink="http://www.w3.org/1999/xlink" x="0px" y="0px" viewBox="0 0 140 140"
	 style="enable-background:new 0 0 140 140;" xml:space="preserve">
<style type="text/css">
	.st0{fill:#01675A;}
</style>
<g>
	<path class="st0" d="M126.9,0h-70c-7.2,0-13.1,5.9-13.1,13.1v26.2c0,2.4,2,4.4,4.4,4.4s4.4-2,4.4-4.4V13.1c0-2.4,2-4.4,4.4-4.4h70
		c2.4,0,4.4,2,4.4,4.4v70c0,2.4-2,4.4-4.4,4.4h-8.7c-1.2,0-2.3,0.5-3.1,1.3l-18.8,18.8V91.9c0-2.4-2-4.4-4.4-4.4H74.4
		c-2.4,0-4.4,2-4.4,4.4s2,4.4,4.4,4.4h13.1v21.9c0,1.8,1.1,3.4,2.7,4c0.5,0.2,1.1,0.3,1.7,0.3c1.1,0,2.3-0.4,3.1-1.3l25-25h6.9
		c7.3,0,13.2-5.9,13.2-13.2V13C140,5.9,134.1,0,126.9,0z"/>
	<path class="st0" d="M122.5,48.1c0-3.5-2.8-6.4-6.3-6.5c0,0,0,0-0.1,0s-0.1,0-0.2,0s-0.2,0-0.3,0h-0.1c-3.5,0.2-6.2,3-6.2,6.5
		c0,3.6,2.9,6.6,6.6,6.6S122.5,51.7,122.5,48.1z M115.6,50.3c0.1,0,0.2,0,0.3,0c0.1,0,0.2,0,0.3,0c-0.1,0-0.2,0-0.3,0
		C115.8,50.3,115.7,50.3,115.6,50.3z"/>
	<path class="st0" d="M78.8,48.1c0-3.5-2.8-6.4-6.3-6.5c0,0,0,0-0.1,0s-0.1,0-0.2,0s-0.2,0-0.3,0h-0.1c-3.5,0.2-6.2,3-6.2,6.5
		c0,3.6,2.9,6.6,6.6,6.6C75.8,54.7,78.8,51.7,78.8,48.1z M72.1,50.3C72.2,50.3,72.2,50.3,72.1,50.3c0.2,0,0.3,0,0.5,0
		C72.5,50.3,72.3,50.3,72.1,50.3C72.2,50.3,72.2,50.3,72.1,50.3z"/>
	<path class="st0" d="M100.6,48.1c0-3.6-2.9-6.5-6.5-6.6l0,0c0,0,0,0-0.1,0c-3.6,0-6.5,3-6.5,6.6s2.9,6.6,6.6,6.6
		S100.6,51.7,100.6,48.1z M93.8,50.3c0.1,0,0.2,0,0.3,0c0.1,0,0.2,0,0.3,0c-0.1,0-0.2,0-0.3,0S93.9,50.3,93.8,50.3z"/>
	<path class="st0" d="M39.4,100.6c13.3,0,24.1-10.8,24.1-24.1S52.7,52.4,39.4,52.4S15.3,63.3,15.3,76.6
		C15.3,89.8,26.1,100.6,39.4,100.6z M39.4,61.2c8.4,0,15.3,6.9,15.3,15.3s-6.9,15.3-15.3,15.3S24.1,85,24.1,76.6
		S30.9,61.2,39.4,61.2z"/>
	<path class="st0" d="M34.1,101c-17.7,2.4-31.7,16.4-34,34c-0.3,2.4,1.4,4.6,3.8,4.9c2.4,0.3,4.6-1.4,4.9-3.8
		c1.9-13.8,12.8-24.7,26.5-26.5c16.9-2.3,32.5,9.6,34.8,26.5c0.3,2.2,2.2,3.8,4.3,3.8c0.2,0,0.4,0,0.6,0c2.4-0.3,4.1-2.5,3.8-4.9
		C75.8,113.4,55.8,98.1,34.1,101z"/>
</g>
</svg>
