<?xml version="1.0" encoding="UTF-8"?>
<svg width="24px" height="24px" viewBox="0 0 24 24" version="1.1" xmlns="http://www.w3.org/2000/svg" xmlns:xlink="http://www.w3.org/1999/xlink">
    <!-- Generator: Sketch 53.2 (72643) - https://sketchapp.com -->
    <title>Icon/ReadArticle Copy</title>
    <desc>Created with Sketch.</desc>
    <g id="PLP-(Mortgage)-Desktop" stroke="none" stroke-width="1" fill="none" fill-rule="evenodd">
        <g id="DCU_PLP_Mortgage_Desktop" transform="translate(-183.000000, -3702.000000)">
            <g id="Resources" transform="translate(0.000000, 3479.000000)">
                <g id="Home-Buying-Guides" transform="translate(183.000000, 223.000000)">
                    <g id="Icon/ReadArticle-Copy-3">
                        <path d="M12,0 C5.376,0 0,5.376 0,12 C0,18.624 5.376,24 12,24 C18.624,24 24,18.624 24,12 C24,5.376 18.624,0 12,0 L12,0 Z" id="Path" fill="#01675A"></path>
                        <g id="Group-2" stroke-width="1" transform="translate(11.000000, 5.000000)" fill="#FFFFFF">
                            <g id="Group" fill-rule="nonzero">
                                <path d="M1.40467487,-4.88498131e-15 C1.77722208,-1.38169974e-05 2.1345147,0.147973883 2.39794534,0.411404565 C2.66137598,0.674835248 2.80936362,1.03212788 2.80934974,1.4046751 C2.80936356,1.77722227 2.66137589,2.13451485 2.39794526,2.39794548 C2.13451462,2.66137612 1.77722205,2.80936378 1.40467487,2.80934997 C1.0321277,2.80936378 0.674835119,2.66137612 0.411404486,2.39794548 C0.147973852,2.13451485 -1.38169938e-05,1.77722227 -3.15303339e-14,1.4046751 C-1.38768857e-05,1.03212788 0.147973766,0.674835248 0.411404406,0.411404565 C0.674835046,0.147973883 1.03212766,-1.38169974e-05 1.40467487,-4.88498131e-15 Z" id="Path"></path>
                                <path d="M1.40467487,4.56596542 C2.14343545,4.56596542 2.73834423,5.16087419 2.73834423,5.89963477 L2.73834423,12.6204639 C2.73834423,13.3592243 2.14343545,13.9541333 1.40467487,13.9541333 C0.66591429,13.9541333 0.0710055161,13.3592243 0.0710055161,12.6204639 L0.0710055161,5.89963477 C0.0710055161,5.16087419 0.66591429,4.56596542 1.40467487,4.56596542 Z" id="Path"></path>
                            </g>
                        </g>
                    </g>
                </g>
            </g>
        </g>
    </g>
</svg>