<?xml version="1.0" encoding="utf-8"?>
<!-- Generator: Adobe Illustrator 24.0.3, SVG Export Plug-In . SVG Version: 6.00 Build 0)  -->
<svg version="1.1" id="Layer_1" xmlns:svgjs="http://svgjs.com/svgjs"
	 xmlns="http://www.w3.org/2000/svg" xmlns:xlink="http://www.w3.org/1999/xlink" x="0px" y="0px" viewBox="0 0 40 40"
	 style="enable-background:new 0 0 40 40;" xml:space="preserve">
<style type="text/css">
	.st0{fill:#01675A;}
</style>
<title>Exported from Streamline App (https://app.streamlineicons.com)</title>
<g>
	<path class="st0" d="M28.8,17.5c-6.2,0-11.2,5-11.2,11.2S22.5,40,28.8,40S40,35,40,28.8S35,17.5,28.8,17.5z M28.8,37.5
		c-4.8,0-8.8-3.9-8.8-8.8s3.9-8.8,8.8-8.8s8.8,3.9,8.8,8.8S33.6,37.5,28.8,37.5z"/>
	<path class="st0" d="M33.2,27.5H30v-3.2c0-0.7-0.6-1.2-1.2-1.2s-1.2,0.6-1.2,1.2v4.4c0,0.7,0.6,1.2,1.2,1.2h4.4
		c0.7,0,1.2-0.6,1.2-1.2S33.9,27.5,33.2,27.5z"/>
	<path class="st0" d="M13.8,25h-10c-0.7,0-1.2-0.6-1.2-1.2V4.3l12.1,9.3c1.2,0.9,2.7,1.4,4.1,1.4c1.5,0,2.9-0.5,4.1-1.4L35,4.3V15
		c0,0.7,0.6,1.2,1.2,1.2s1.2-0.6,1.2-1.2V3.8c0-0.9-0.3-1.6-0.8-2.3c0,0,0,0,0-0.1c0,0-0.1,0-0.1-0.1C35.9,0.5,34.9,0,33.8,0h-30
		C2.6,0,1.6,0.5,0.9,1.3c0,0-0.1,0-0.1,0.1c0,0,0,0,0,0.1C0.3,2.1,0,2.9,0,3.8v20c0,2.1,1.7,3.8,3.8,3.8h10c0.7,0,1.2-0.6,1.2-1.2
		S14.4,25,13.8,25z M21.3,11.6c-1.5,1.2-3.7,1.2-5.2,0L4.3,2.5h28.9L21.3,11.6z"/>
</g>
</svg>
