<svg xmlns="http://www.w3.org/2000/svg" width="54" height="54" viewBox="0 0 54 54">
  <g id="Group_13456" data-name="Group 13456" transform="translate(0.219 0.219)">
    <circle id="Ellipse_1978" data-name="Ellipse 1978" cx="27" cy="27" r="27" transform="translate(-0.219 -0.219)" fill="#f85255"/>
    <g id="Group_13455" data-name="Group 13455" transform="translate(7.268 10.829)">
      <g id="Group_13454" data-name="Group 13454" transform="translate(28.693 2.022)">
        <g id="Group_13452" data-name="Group 13452" transform="translate(1.337 0)">
          <path id="Path_12753" data-name="Path 12753" d="M629.638,132.772a10.165,10.165,0,0,0,.738-3.655,11.2,11.2,0,0,0-2.629-7.37,10.162,10.162,0,0,0-2.884-2.363,9.43,9.43,0,0,0-1.187-.546l-.412,1.61a8.944,8.944,0,0,1,4.463,12.512l1.338.986A9.418,9.418,0,0,0,629.638,132.772Z" transform="translate(-623.263 -118.838)" fill="#fdfdfd"/>
        </g>
        <g id="Group_13453" data-name="Group 13453" transform="translate(0 2.807)">
          <path id="Path_12754" data-name="Path 12754" d="M612,162.565a7.934,7.934,0,0,0-3.468-9.724,6.926,6.926,0,0,0-.862-.4l-.413,1.609a5.989,5.989,0,0,1,2.989,8.379l1.338.985A6.876,6.876,0,0,0,612,162.565Z" transform="translate(-607.26 -152.444)" fill="#fdfdfd"/>
        </g>
      </g>
      <path id="Path_12755" data-name="Path 12755" d="M377.162,105.893l-3.608-10.116a.784.784,0,0,0-.04-.114l-.255-.716a.435.435,0,0,0-.539-.294l-.674.24a.436.436,0,0,0-.231.569l.235.66c-7.874,8.9-13.1,11.664-15.034,12.191a.779.779,0,0,0-.466,1.042l1.23,3.45,1.23,3.449a.779.779,0,0,0,1.021.512c1.83-.815,7.625-1.983,19.355-.074l.235.66a.436.436,0,0,0,.539.294l.674-.24a.436.436,0,0,0,.231-.569l-.255-.716a.793.793,0,0,0-.041-.114Z" transform="translate(-348.749 -94.632)" fill="#fdfdfd"/>
      <path id="Path_12756" data-name="Path 12756" d="M266.122,271.811c-.085.03-.168.064-.249.1-.067.018-.133.037-.2.061-1.672.6-2.4,2.84-1.625,5.011s2.758,3.448,4.43,2.852c.066-.024.13-.05.193-.079.085-.024.17-.05.255-.081l4.02-1.434-2.8-7.863Z" transform="translate(-263.739 -255.698)" fill="#fdfdfd"/>
      <ellipse id="Ellipse_1979" data-name="Ellipse 1979" cx="1.601" cy="2.624" rx="1.601" ry="2.624" transform="translate(26.025 9.326) rotate(-19.629)" fill="#fdfdfd"/>
      <path id="Path_12757" data-name="Path 12757" d="M333.343,368.034l1.461-.521a1.185,1.185,0,0,0,.605-1.747l-4.887-7.773-3.747,1.336,5.168,8.219A1.185,1.185,0,0,0,333.343,368.034Z" transform="translate(-321.509 -335.996)" fill="#fdfdfd"/>
    </g>
  </g>
</svg>
