<svg xmlns="http://www.w3.org/2000/svg" width="54" height="54" viewBox="0 0 54 54">
  <g id="Group_13456" data-name="Group 13456" transform="translate(0.219 0.219)">
    <circle id="Ellipse_1978" data-name="Ellipse 1978" cx="27" cy="27" r="27" transform="translate(-0.219 -0.219)" fill="#f85255"/>
    <g id="streamline-icon-time-clock-circle_140x140" data-name="streamline-icon-time-clock-circle@140x140" transform="translate(7.629 7.629)">
      <path id="Path_12785" data-name="Path 12785" d="M19.152,0A19.152,19.152,0,1,0,38.3,19.152,19.152,19.152,0,0,0,19.152,0Zm8.3,27.485a1.622,1.622,0,0,1-2.255.1l-7.915-7.256a1.6,1.6,0,0,1-.524-1.176V10.374a1.6,1.6,0,0,1,3.192,0V18.45l7.4,6.78a1.6,1.6,0,0,1,.105,2.257Z" fill="#fff"/>
    </g>
  </g>
</svg>
