<?xml version="1.0" encoding="utf-8"?>
<!-- Generator: Adobe Illustrator 24.0.3, SVG Export Plug-In . SVG Version: 6.00 Build 0)  -->
<svg version="1.1" id="Layer_1" xmlns:svgjs="http://svgjs.com/svgjs"
	 xmlns="http://www.w3.org/2000/svg" xmlns:xlink="http://www.w3.org/1999/xlink" x="0px" y="0px" viewBox="0 0 40 40"
	 style="enable-background:new 0 0 40 40;" xml:space="preserve">
<style type="text/css">
	.st0{fill:#01675A;}
</style>
<title>Exported from Streamline App (https://app.streamlineicons.com)</title>
<g>
	<path class="st0" d="M23.8,20c-0.7,0-1.2,0.6-1.2,1.2V30H5V8.3C5,6.5,6.5,5,8.3,5h2.9c0.7,0,1.2-0.6,1.2-1.2s-0.6-1.2-1.2-1.2H8.3
		c-3.2,0-5.8,2.6-5.8,5.8v25.9c0,1.5,0.6,3,1.7,4.1C5.3,39.4,6.8,40,8.3,40c0,0,0,0,0,0h10.9c3.2,0,5.8-2.6,5.8-5.8V21.2
		C25,20.6,24.4,20,23.8,20z M19.2,37.5H8.3c0,0,0,0,0,0c-0.9,0-1.7-0.3-2.3-1c-0.6-0.6-1-1.5-1-2.3v-1.7h17.5v1.7
		C22.5,36,21,37.5,19.2,37.5z"/>
	<path class="st0" d="M33.8,0h-15C16.7,0,15,1.7,15,3.8v10c0,2.1,1.7,3.8,3.8,3.8h15c2.1,0,3.8-1.7,3.8-3.8v-10
		C37.5,1.7,35.8,0,33.8,0z M18.8,2.5h15c0.7,0,1.2,0.6,1.2,1.2V5H17.5V3.8C17.5,3.1,18.1,2.5,18.8,2.5z M33.8,15h-15
		c-0.7,0-1.2-0.6-1.2-1.2V7.5H35v6.2C35,14.4,34.4,15,33.8,15z"/>
	<path class="st0" d="M31.2,10h-5c-0.7,0-1.2,0.6-1.2,1.2s0.6,1.2,1.2,1.2h5c0.7,0,1.2-0.6,1.2-1.2S31.9,10,31.2,10z"/>
</g>
</svg>
