<?xml version="1.0" encoding="UTF-8"?>
<svg width="72px" height="40px" viewBox="0 0 72 40" version="1.1" xmlns="http://www.w3.org/2000/svg" xmlns:xlink="http://www.w3.org/1999/xlink">
    <!-- Generator: Sketch 53.2 (72643) - https://sketchapp.com -->
    <title>DCU_Illustration_PLP_Non-Functional_Green_Mobile wallet</title>
    <desc>Created with Sketch.</desc>
    <g id="DCU_Illustration_PLP_Non-Functional_Green_Mobile-wallet" stroke="none" stroke-width="1" fill="none" fill-rule="evenodd">
        <path d="M67.3184,13.8008 C67.3184,14.0598 67.2094,14.3088 67.0194,14.4978 L64.1144,17.4028 C63.9244,17.5818 63.6764,17.6818 63.4274,17.6818 C63.1694,17.6818 62.9104,17.5818 62.7314,17.4028 C62.5424,17.2138 62.4424,16.9658 62.4424,16.7068 C62.4424,16.4478 62.5424,16.1988 62.7314,16.0098 L63.9554,14.7758 L59.2684,14.7758 C58.7214,14.7758 58.2834,14.3388 58.2834,13.7908 C58.2834,13.2538 58.7214,12.8058 59.2684,12.8058 L63.9554,12.8058 L62.7314,11.5818 C62.5424,11.4028 62.4424,11.1548 62.4424,10.8858 C62.4424,10.6268 62.5424,10.3778 62.7314,10.1888 C63.1094,9.8108 63.7364,9.8108 64.1144,10.1888 L67.0194,13.0948 C67.2184,13.2838 67.3184,13.5428 67.3184,13.8008 L67.3184,13.8008 Z M51.0694,21.1048 C51.1494,21.3928 51.1894,21.6418 51.1894,21.8808 C51.1894,23.0248 50.4224,24.0698 49.3384,24.4178 L49.3284,25.2538 C49.2884,25.4528 49.1994,25.5918 49.0494,25.7408 C48.8504,25.9408 48.6224,26.0398 48.3634,26.0398 C47.8954,26.0098 47.5074,25.6818 47.4274,25.2438 L47.4274,24.4078 C46.3634,24.0698 45.6364,23.1248 45.5964,22.0098 C45.6574,21.5028 46.0544,21.1248 46.5224,21.1138 L46.5514,21.1138 C47.0404,21.1138 47.4374,21.4728 47.5074,21.9598 C47.5174,22.0498 47.5574,22.2688 47.7464,22.4478 C47.8854,22.5768 48.0544,22.6368 48.2634,22.6468 L48.5224,22.6468 C48.8004,22.6468 49.0594,22.4878 49.1894,22.2388 C49.2684,22.0498 49.2884,21.8508 49.2284,21.6618 C49.1594,21.4728 49.0294,21.3228 48.8504,21.2338 L47.0594,20.3388 C46.4134,20.0098 45.9254,19.4328 45.7164,18.7458 C45.5074,18.0698 45.5674,17.3528 45.8954,16.7268 C46.2144,16.1098 46.7514,15.6618 47.4084,15.4428 L47.4084,14.8258 C47.3984,14.5868 47.4874,14.3388 47.6674,14.1588 C47.8364,13.9598 48.1044,13.8508 48.3824,13.8508 L48.4224,13.8508 C48.8404,13.8508 49.2094,14.1498 49.3184,14.5678 C49.3384,14.5968 49.3484,14.6468 49.3484,14.7368 L49.3484,15.4328 C50.4034,15.7808 51.1294,16.7458 51.1894,17.8408 C51.0894,18.3678 50.6624,18.7268 50.1834,18.6968 C49.7264,18.6768 49.3584,18.3478 49.2684,17.9108 C49.2584,17.8208 49.2284,17.5918 49.0194,17.4028 C48.8904,17.2838 48.7114,17.2038 48.5224,17.2038 L48.2544,17.2038 C47.9754,17.2038 47.7064,17.3638 47.5874,17.6218 C47.4874,17.8008 47.4774,17.9998 47.5474,18.1788 C47.6074,18.3778 47.7464,18.5368 47.9254,18.6168 L49.7064,19.5228 C50.3534,19.8308 50.8404,20.4078 51.0694,21.1048 L51.0694,21.1048 Z M48.3934,36.0898 C48.1544,36.0898 47.9644,35.9008 47.9644,35.6618 C47.9644,35.4328 48.1544,35.2338 48.3934,35.2338 C48.6224,35.2338 48.8214,35.4328 48.8214,35.6618 C48.8214,35.9008 48.6224,36.0898 48.3934,36.0898 L48.3934,36.0898 Z M48.3934,33.6518 C47.2884,33.6518 46.3824,34.5568 46.3824,35.6618 C46.3824,36.7658 47.2884,37.6718 48.3934,37.6718 C49.4974,37.6718 50.4034,36.7658 50.4034,35.6618 C50.4034,34.5568 49.4974,33.6518 48.3934,33.6518 L48.3934,33.6518 Z M62.8004,20.4878 C59.0304,20.4878 55.9644,17.4828 55.9644,13.7908 C55.9644,10.0998 59.0304,7.1048 62.8004,7.1048 C66.5724,7.1048 69.6364,10.0998 69.6364,13.7908 C69.6364,17.4828 66.5724,20.4878 62.8004,20.4878 L62.8004,20.4878 Z M57.9154,31.3628 L38.8714,31.3628 L38.8714,6.8858 L57.8664,6.8858 C55.5674,8.4878 54.2044,11.0548 54.2044,13.7908 C54.2044,16.5478 55.5874,19.1338 57.9154,20.7268 L57.9154,31.3628 Z M57.9154,36.6768 C57.9154,37.4828 57.2884,38.1298 56.5224,38.1298 L40.2634,38.1298 C39.4974,38.1298 38.8714,37.4828 38.8714,36.6768 L38.8714,33.2338 L57.9154,33.2338 L57.9154,36.6768 Z M38.8714,3.3138 C38.8714,2.5178 39.4974,1.8708 40.2634,1.8708 L56.5224,1.8708 C57.2884,1.8708 57.9154,2.5178 57.9154,3.3138 L57.9154,5.0148 L38.8714,5.0148 L38.8714,3.3138 Z M62.8004,5.3628 C61.7464,5.3628 60.7314,5.5428 59.7764,5.9008 L59.7764,3.3138 C59.7764,1.4828 58.3234,-0.0002 56.5224,-0.0002 L40.2634,-0.0002 C38.4634,-0.0002 37.0004,1.4828 37.0004,3.3138 L37.0004,36.6768 C37.0004,38.5078 38.4634,39.9998 40.2634,39.9998 L56.5224,39.9998 C58.3234,39.9998 59.7764,38.5078 59.7764,36.6768 L59.7764,21.6818 C60.7314,22.0398 61.7464,22.2188 62.8004,22.2188 C67.5474,22.2188 71.4084,18.4378 71.4084,13.7908 C71.4084,9.1438 67.5474,5.3628 62.8004,5.3628 L62.8004,5.3628 Z" id="Fill-1" fill="#01675A"></path>
    </g>
</svg>