<?xml version="1.0" encoding="UTF-8"?>
<svg width="75px" height="56px" viewBox="0 0 75 56" version="1.1" xmlns="http://www.w3.org/2000/svg" xmlns:xlink="http://www.w3.org/1999/xlink">
    <!-- Generator: Sketch 52.5 (67469) - http://www.bohemiancoding.com/sketch -->
    <title>DCU_Illustration_PLP_Non-Functional_Green_Auto-Insurance</title>
    <desc>Created with Sketch.</desc>
    <g id="DCU_Illustration_PLP_Non-Functional_Green_Auto-Insurance" stroke="none" stroke-width="1" fill="none" fill-rule="evenodd">
        <path d="M48.6444154,19.3087448 C51.2343598,19.3772609 53.6902474,19.4595262 55.2041197,19.5348075 C60.8280634,20.002883 62.4358099,20.7256 63.4752465,21.3849208 C64.9699648,22.3348075 66.0210211,23.6904302 68.1231338,26.3889962 C69.7319366,28.4546566 71.0882746,30.5699774 72.2903873,32.8511849 C73.8875704,35.8920906 74.773838,37.5646943 74.9386268,39.6673358 C75.2798239,44.0131472 73.6720775,46.5225811 72.2534155,47.8528453 C70.8844014,49.1577509 69.0484859,49.9935245 67.0858099,50.2217509 L66.1097535,50.2217509 C65.0322887,53.3514113 62.0565845,55.6062038 58.5601056,55.6062038 C55.0509507,55.6062038 52.0615141,53.3387321 50.9977817,50.1837132 L22.2189085,50.1837132 C21.1541197,53.3387321 18.1646831,55.6062038 14.6565845,55.6062038 C11.1981338,55.6062038 8.24566901,53.4021283 7.14390845,50.3231849 C5.91538732,50.2597887 4.77559859,49.9174491 3.78792254,49.3215245 C0.925246479,47.6119396 -0.531443662,43.8102792 0.177359155,39.882883 C0.481584507,38.7554868 0.912570423,37.8425811 1.4703169,37.0575245 C3.99073944,33.5094491 8.93123239,32.4581283 13.2759507,31.5462792 C16.3150352,30.8996377 19.1914437,30.2920906 20.5710211,28.9861283 C21.6358099,27.9855245 22.2822887,27.3526189 22.2939085,27.338883 L23.1812324,26.4523925 C23.8773592,25.7677132 24.4224296,25.210883 25.2960211,24.4247698 C25.5622183,24.1838642 25.8410915,23.9440151 26.1833451,23.6650717 C27.2851056,22.7278642 28.1597535,21.9924679 29.5277113,21.2834868 C30.4266549,20.8016755 31.5167958,20.3705811 32.6808803,20.0282415 C34.9118662,19.3826566 36.7213732,19.2685434 38.2551761,19.2051472 C39.3696127,19.1544302 42.4858099,19.1797887 45.8417958,19.2431849 C45.8682042,19.2558642 45.9062324,19.2558642 45.9305282,19.2431849 C45.9401795,19.2433957 45.949833,19.2436067 45.9594884,19.243818 C48.0556762,19.2436985 50.4270759,19.2307682 53.0497183,19.382234 C53.8219014,19.4329509 54.5444366,19.4836679 55.2035915,19.5343849 C53.6896503,19.4591001 51.2341899,19.3768307 48.6444154,19.3087448 Z M36.6092958,17.7503094 L34.3233803,18.234234 L34.3117606,6.13189434 C30.5427465,6.2597434 26.2846479,4.82487547 23.4684507,2.73491321 C20.5909859,5.01929057 16.4501408,6.09068679 12.6716197,5.8413283 L12.6716197,16.7856302 C12.6716197,19.5729509 14.0216197,22.2028377 16.341338,23.9441208 L20.2571831,26.8857057 L18.6779577,28.3818566 L15.0357042,25.6484226 C12.0240845,23.3872906 10.2673944,19.9628377 10.2673944,16.3439698 L10.2673944,4.77310189 C10.269507,3.95951698 11.0226761,3.32872453 11.8857042,3.41113962 L13.0297183,3.52419623 C16.4955634,3.86125283 19.9402817,2.71483774 22.4047183,0.404045283 C22.6614085,0.159969811 23.0057746,0.0321207547 23.3702113,0.00147924528 C23.7652817,-0.0154264151 24.1508451,0.118762264 24.4392254,0.371290566 C26.9966197,2.62819623 31.100493,3.87287547 34.9635211,3.42170566 C35.838169,3.31921509 36.6103521,3.95846038 36.6103521,4.78472453 L36.6092958,17.7503094 Z M29.5925704,9.59618113 L29.5925704,9.59301132 C30.0203873,9.57821887 30.4313028,9.76418113 30.7017254,10.0959547 C31.1823592,10.6823698 31.0957394,11.5466717 30.5094718,12.0274264 L22.2975,18.8805585 C21.7513732,19.3348981 20.9496127,19.2989736 20.4478521,18.7970868 L17.0232042,15.3652377 C17.0084155,15.3525585 16.9946831,15.3388226 16.982007,15.3240302 C16.4580634,14.7756528 16.4791901,13.9071245 17.0274296,13.3830491 C17.5767254,12.8600302 18.4450352,12.8811623 18.9679225,13.4295396 L21.5041901,15.9717283 L28.750669,9.9237283 C28.9872887,9.72191698 29.2830634,9.60674717 29.5925704,9.59618113 Z M70.6319366,46.1295245 C72.139331,44.6978264 72.7974296,42.5941283 72.5703169,39.8575245 C72.4435563,38.2356377 71.7463732,36.8926943 70.2009507,33.9532226 C69.9358099,33.4587321 69.6696127,32.9779774 69.3896831,32.5088453 L69.3896831,32.6609962 L18.595669,32.6609962 C17.1389789,33.1554868 15.4794718,33.5094491 13.7703169,33.8644679 C9.65271127,34.7393358 5.39672535,35.6385057 3.40764085,38.4385057 C3.00306338,39.0090717 2.68616197,39.6673358 2.48334507,40.4154113 C1.97735915,43.2661283 2.99038732,46.0788075 5.00376761,47.2949585 C5.56045775,47.6246189 6.13088028,47.8021283 6.6759507,47.890883 C6.66327465,47.8021283 6.66327465,47.7006943 6.66327465,47.6119396 C6.66327465,43.2027321 10.2484859,39.6292981 14.6565845,39.6292981 C19.0646831,39.6292981 22.648838,43.2027321 22.648838,47.6119396 C22.648838,47.6753358 22.648838,47.7514113 22.636162,47.8148075 L50.5805282,47.8148075 C50.5678521,47.7514113 50.5678521,47.6753358 50.5678521,47.6119396 C50.5678521,43.2027321 54.152007,39.6292981 58.5601056,39.6292981 C62.9682042,39.6292981 66.5534155,43.2027321 66.5534155,47.6119396 C66.5534155,47.6880151 66.5534155,47.7767698 66.5396831,47.8528453 L66.957993,47.8528453 C67.6678521,47.7640906 69.2766549,47.4090717 70.6319366,46.1295245 Z M58.5601056,53.2372981 C61.6636268,53.2372981 64.1840493,50.7162415 64.1840493,47.6119396 C64.1840493,44.520317 61.6636268,41.9992604 58.5601056,41.9992604 C55.4692606,41.9992604 52.948838,44.520317 52.948838,47.6119396 C52.948838,50.7162415 55.4692606,53.2372981 58.5601056,53.2372981 Z M14.6565845,53.2372981 C17.7474296,53.2372981 20.2678521,50.7162415 20.2678521,47.6119396 C20.2678521,44.520317 17.7474296,41.9992604 14.6565845,41.9992604 C11.5530634,41.9992604 9.03264085,44.520317 9.03264085,47.6119396 C9.03264085,50.7162415 11.5530634,53.2372981 14.6565845,53.2372981 Z M23.9544718,29.0368453 C23.9544718,29.0368453 23.4601056,29.5186566 22.636162,30.2920906 L44.4875704,30.2920906 L44.4875704,21.6004679 C41.6998944,21.5486943 39.2808803,21.5370717 38.3555282,21.5740528 C36.9622183,21.6258264 35.3153873,21.7399396 33.3400352,22.3094491 C32.327007,22.6010717 31.3900352,22.9687698 30.6294718,23.3734491 C29.5403873,23.9566943 28.8812324,24.4892226 27.7034155,25.4771472 C27.3875704,25.7434113 27.132993,25.9589585 26.8794718,26.1861283 C26.0439085,26.946883 25.5252465,27.4656755 24.8660915,28.1376755 L23.9544718,29.0368453 Z M52.8981338,21.7515623 C50.7189085,21.6258264 48.6917958,21.6120906 46.8558803,21.6120906 L46.8558803,30.2920906 L68.0217254,30.2920906 C67.4777113,29.4679396 66.895669,28.6575245 66.2745423,27.8714113 C64.3234859,25.363034 63.3474296,24.1215245 62.1960211,23.3861283 C61.6636268,23.032166 60.5872183,22.360166 55.0889789,21.9037132 C55.0129225,21.9037132 54.9379225,21.891034 54.8608099,21.891034 L54.7720775,21.891034 C54.2027113,21.840317 53.5699648,21.7896 52.8981338,21.7515623 Z M54.7723944,21.8911396 C52.9227465,21.8023849 49.8583099,21.7136302 46.8561972,21.6375547 L46.8561972,21.6121962 C48.6921127,21.6121962 50.7192254,21.6259321 52.8984507,21.7516679 C53.5692254,21.7897057 54.2030282,21.8404226 54.7723944,21.8911396 Z" id="Combined-Shape" fill="#01675A"></path>
    </g>
</svg>