<?xml version="1.0" encoding="UTF-8"?>
<svg width="72px" height="40px" viewBox="0 0 72 40" version="1.1" xmlns="http://www.w3.org/2000/svg" xmlns:xlink="http://www.w3.org/1999/xlink">
    <!-- Generator: Sketch 53.2 (72643) - https://sketchapp.com -->
    <title>DCU_Illustration_PLP_Non-Functional_Green_DCU Retirement Guide</title>
    <desc>Created with Sketch.</desc>
    <g id="DCU_Illustration_PLP_Non-Functional_Green_DCU-Retirement-Guide" stroke="none" stroke-width="1" fill="none" fill-rule="evenodd">
        <path d="M66.7598109,13.831 C65.2018109,13.831 63.9238109,12.562 63.9238109,11.004 C63.9238109,9.446 65.2018109,8.178 66.7598109,8.178 C68.3188109,8.178 69.5868109,9.446 69.5868109,11.004 C69.5868109,12.562 68.3188109,13.831 66.7598109,13.831 L66.7598109,13.831 Z M54.7948109,13.831 C53.2378109,13.831 51.9688109,12.562 51.9688109,11.004 C51.9688109,9.446 53.2378109,8.178 54.7948109,8.178 C56.3538109,8.178 57.6208109,9.446 57.6208109,11.004 C57.6208109,12.562 56.3538109,13.831 54.7948109,13.831 L54.7948109,13.831 Z M71.3048109,10.096 C70.8848109,7.928 68.9668109,6.36 66.7598109,6.36 C65.1428109,6.36 63.6238109,7.209 62.7848109,8.587 C62.2258109,8.118 61.5168109,7.858 60.7778109,7.858 C60.0288109,7.858 59.3198109,8.118 58.7598109,8.587 C57.9218109,7.209 56.4038109,6.36 54.7948109,6.36 C53.7168109,6.36 52.6678109,6.729 51.8388109,7.419 C51.0198109,8.098 50.4508109,9.047 50.2398109,10.096 L49.4418109,10.096 L49.4418109,11.903 L50.2398109,11.903 C50.4508109,12.962 51.0198109,13.911 51.8388109,14.59 C52.6678109,15.268 53.7168109,15.648 54.7948109,15.648 C57.3518109,15.648 59.4398109,13.571 59.4398109,11.004 C59.4398109,10.275 60.0388109,9.676 60.7778109,9.676 C61.5068109,9.676 62.1058109,10.275 62.1058109,11.004 C62.1058109,13.571 64.1938109,15.648 66.7598109,15.648 C67.8388109,15.648 68.8878109,15.268 69.7168109,14.59 C70.5348109,13.911 71.1048109,12.962 71.3048109,11.903 L72.1038109,11.903 L72.1038109,10.096 L71.3048109,10.096 Z M55.6078109,36.086 L53.6788109,34.389 L51.7128109,36.021 L51.7128109,32.618 L55.6078109,32.618 L55.6078109,36.086 Z M56.2198109,30.847 L51.0918109,30.847 C50.4608109,30.847 49.9498109,31.365 49.9498109,31.996 L49.9498109,39.787 L53.6418109,36.708 L57.3698109,40 L57.3698109,31.996 C57.3698109,31.365 56.8508109,30.847 56.2198109,30.847 L56.2198109,30.847 Z M40.1388109,27.267 L39.9348109,27.267 C39.1368109,27.267 38.3858109,27.508 37.7638109,27.925 L37.7638109,4.822 L37.7818109,4.535 C37.9588109,2.959 38.8498109,2.124 39.6188109,1.864 C39.7488109,1.817 39.9438109,1.78 40.1388109,1.762 L40.1388109,27.267 Z M61.0798109,14.488 C60.5878109,14.488 60.1988109,14.888 60.1988109,15.37 L60.1988109,27.267 L41.9008109,27.267 L41.9008109,1.762 L60.1988109,1.762 L60.1988109,4.442 C60.1988109,4.934 60.5878109,5.323 61.0798109,5.323 C61.5628109,5.323 61.9608109,4.934 61.9608109,4.442 L61.9608109,1.048 C61.9608109,0.473 61.4888109,0 60.9128109,0 L40.3148109,0 C40.2318109,0 40.1568109,0 40.0828109,0.01 C40.0458109,0.01 40.0178109,0.01 39.9808109,0.018 C39.4978109,0.056 39.1268109,0.177 39.0628109,0.194 C37.4208109,0.742 36.2618109,2.328 36.0298109,4.368 L36.0018109,30.93 C36.0018109,30.948 36.0018109,30.967 36.0118109,30.985 C36.0018109,31.014 36.0018109,31.032 36.0018109,31.06 C35.9378109,33.137 37.5778109,34.945 39.7208109,35.094 L47.9008109,35.094 C48.3928109,35.094 48.7818109,34.704 48.7818109,34.213 C48.7818109,33.73 48.3928109,33.332 47.9008109,33.332 L39.7858109,33.341 C38.6358109,33.258 37.7268109,32.256 37.7638109,31.115 C37.8008109,29.956 38.8028109,29.028 39.9618109,29.028 L60.1988109,29.028 L60.1988109,33.332 L59.4388109,33.332 C58.9558109,33.332 58.5568109,33.73 58.5568109,34.213 C58.5568109,34.704 58.9558109,35.094 59.4388109,35.094 L60.9038109,35.094 C61.4788109,35.094 61.9608109,34.621 61.9608109,34.046 L61.9608109,28.463 C61.9608109,28.417 61.9608109,28.37 61.9428109,28.323 L61.9428109,28.314 C61.9508109,28.259 61.9608109,28.203 61.9608109,28.147 L61.9608109,15.37 C61.9608109,14.888 61.5628109,14.488 61.0798109,14.488 L61.0798109,14.488 Z" id="Fill-1" fill="#01675A"></path>
    </g>
</svg>