<?xml version="1.0" encoding="UTF-8"?>
<svg width="72px" height="40px" viewBox="0 0 72 40" version="1.1" xmlns="http://www.w3.org/2000/svg" xmlns:xlink="http://www.w3.org/1999/xlink">
    <!-- Generator: Sketch 53.2 (72643) - https://sketchapp.com -->
    <title>DCU_Illustration_PLP_Non-Functional_Green_Free Credit Score</title>
    <desc>Created with Sketch.</desc>
    <g id="DCU_Illustration_PLP_Non-Functional_Green_Free-Credit-Score" stroke="none" stroke-width="1" fill="none" fill-rule="evenodd">
        <path d="M51.7839,19.182 C51.3499,18.779 50.6609,18.796 50.2509,19.238 C49.8399,19.678 49.8729,20.368 50.3049,20.77 C50.7469,21.181 51.4359,21.163 51.8459,20.723 C52.2569,20.282 52.2239,19.592 51.7839,19.182 M58.4929,11.972 C58.9499,12.397 58.9679,13.102 58.5429,13.559 L53.9969,18.444 C54.6299,19.661 54.4609,21.195 53.4829,22.245 C52.2359,23.584 50.1229,23.668 48.7749,22.414 C47.4359,21.167 47.3679,19.054 48.6139,17.714 C49.5929,16.664 51.1089,16.384 52.3609,16.921 L56.9059,12.036 C57.3319,11.579 58.0439,11.554 58.4929,11.972 M68.7649,20.005 C68.7649,10.2 60.7999,2.235 51.0059,2.235 C41.2109,2.235 33.2459,10.2 33.2459,20.005 C33.2459,29.8 41.2109,37.765 51.0059,37.765 C60.7999,37.765 68.7649,29.8 68.7649,20.005 M71.0109,20.005 C71.0109,31.027 62.0379,40 51.0059,40 C39.9729,40 30.9999,31.027 30.9999,20.005 C30.9999,8.973 39.9729,0 51.0059,0 C62.0379,0 71.0109,8.973 71.0109,20.005 M66.3439,20.005 C66.3439,20.619 65.8499,21.123 65.2259,21.123 C64.6129,21.123 64.1089,20.619 64.1089,20.005 C64.1089,12.775 58.2249,6.891 51.0059,6.891 C43.7739,6.891 37.9019,12.775 37.9019,20.005 C37.9019,20.619 37.3979,21.123 36.7849,21.123 C36.1609,21.123 35.6669,20.619 35.6669,20.005 C35.6669,11.536 42.5479,4.657 51.0059,4.657 C59.4639,4.657 66.3439,11.536 66.3439,20.005" id="Fill-1" fill="#01675A"></path>
    </g>
</svg>