<?xml version="1.0" encoding="UTF-8"?>
<svg width="56px" height="56px" viewBox="0 0 56 56" version="1.1" xmlns="http://www.w3.org/2000/svg" xmlns:xlink="http://www.w3.org/1999/xlink">
    <!-- Generator: Sketch 52.5 (67469) - http://www.bohemiancoding.com/sketch -->
    <title>DCU_Illustration_PLP_Non-Functional_Green_Track-Rates</title>
    <desc>Created with Sketch.</desc>
    <g id="DCU_Illustration_PLP_Non-Functional_Green_Track-Rates" stroke="none" stroke-width="1" fill="none" fill-rule="evenodd">
        <path d="M31.8487,35.9846 C32.4707,37.9936 31.3407,40.1396 29.3317,40.7606 L29.0967,40.8366 L29.0667,40.8446 L29.0667,42.4286 C29.0137,42.6336 28.8997,42.8156 28.7407,42.9746 C28.5207,43.1946 28.2627,43.3236 27.9447,43.3236 C27.4207,43.2936 26.9657,42.9216 26.8747,42.4286 L26.8747,40.8366 L26.8527,40.8296 L26.6107,40.7606 C25.0717,40.2756 24.0097,38.8956 23.9337,37.2886 C24.0097,36.7466 24.4687,36.3376 25.0047,36.3246 C25.5617,36.3106 26.0527,36.7256 26.1327,37.2886 C26.1457,37.4136 26.2137,37.9266 26.6607,38.3346 C26.9517,38.6006 27.3377,38.7626 27.7627,38.7666 L28.1867,38.7666 C28.8167,38.7666 29.3767,38.4186 29.6587,37.8646 C30.0597,37.0536 29.7337,36.0676 28.9227,35.6666 L26.0487,34.2256 C25.1237,33.7626 24.4187,32.9286 24.1087,31.9436 C23.8047,30.9656 23.9037,29.9346 24.3807,29.0316 C24.8517,28.1306 25.6477,27.4706 26.6247,27.1676 L26.8527,27.0986 L26.8527,25.7946 C26.8147,25.1806 27.3297,24.6656 27.9747,24.6656 C28.4827,24.6426 28.9297,24.9986 29.0507,25.4996 C29.0747,25.5446 29.0817,25.5896 29.0817,25.6436 L29.0817,27.0836 L29.0967,27.0906 L29.3467,27.1676 C30.8857,27.6516 31.9477,29.0316 32.0237,30.6396 C31.9117,31.1926 31.4137,31.5806 30.8697,31.5546 C30.3637,31.5306 29.9267,31.1526 29.8247,30.6396 C29.8117,30.5146 29.7437,30.0006 29.2967,29.5926 C29.0057,29.3276 28.6197,29.1646 28.1947,29.1606 L27.7627,29.1606 C27.1407,29.1606 26.5797,29.5096 26.2987,30.0706 C26.1017,30.4576 26.0717,30.9046 26.2157,31.3216 C26.3527,31.7316 26.6407,32.0726 27.0347,32.2616 L29.9087,33.7026 C30.8327,34.1646 31.5377,34.9986 31.8487,35.9846 Z M27.9786,2.8816 L4.4656,26.3936 L7.0426,26.3936 C7.9446,26.3936 8.6536,27.1026 8.6536,28.0046 L8.6536,53.7716 L47.3036,53.7716 L47.3036,28.0046 C47.3036,27.1026 48.0126,26.3936 48.9146,26.3936 L51.4916,26.3936 L27.9786,2.8816 Z M1.5486,29.5696 C0.1806,29.5696 -0.5034,27.8916 0.4296,26.8966 L26.9206,0.4666 C27.4816,-0.1554 28.4756,-0.1554 29.0976,0.4666 L55.5276,26.8966 C56.4596,27.8916 55.7766,29.5696 54.4086,29.5696 L49.7446,29.5696 L49.7446,54.4456 C49.7446,55.3166 49.0606,56.0006 48.1896,56.0006 L7.7676,56.0006 C6.8966,56.0006 6.2126,55.3166 6.2126,54.4456 L6.2126,29.5696 L1.5486,29.5696 Z" id="Combined-Shape" fill="#01675A"></path>
    </g>
</svg>