<?xml version="1.0" encoding="UTF-8"?>
<svg width="93px" height="72px" viewBox="0 0 93 72" version="1.1" xmlns="http://www.w3.org/2000/svg" xmlns:xlink="http://www.w3.org/1999/xlink">
    <!-- Generator: Sketch 52.5 (67469) - http://www.bohemiancoding.com/sketch -->
    <title>DCU_Icon_PLP_Large_Black_Buying-Home</title>
    <desc>Created with Sketch.</desc>
    <defs>
        <path d="M88.3761039,68.223 C83.0114286,68.163 77.6109091,68.115 72.294026,68.103 C70.4420779,68.091 68.5889351,68.091 66.7262338,68.091 C62.8909091,68.091 59.0197403,68.103 55.1605195,68.127 C54.8857143,66.819 54.6825974,64.515 56.0327273,62.607 C56.2358442,62.319 57.0124675,61.323 58.3852987,60.663 C60.4415584,59.667 62.9136104,59.859 65.1598442,61.179 L66.6784416,62.067 L67.3116883,60.411 C67.7537662,59.271 68.3511688,58.215 69.1038961,57.291 C71.9821818,53.751 76.1174026,53.163 76.9298701,53.079 C78.3027013,52.935 81.8393247,52.839 84.7558442,55.095 C88.3163636,57.843 89.7142857,63.015 88.3761039,68.223 Z M53.7984416,50.679 L69.4264935,50.679 L69.4264935,42.951 L53.7984416,42.951 L53.7984416,50.679 Z M53.7984416,40.359 L69.4264935,40.359 L69.4264935,36.579 L53.7984416,36.579 L53.7984416,40.359 Z M53.5953247,60.867 C51.7792208,63.435 51.8138701,66.327 52.1496104,68.223 L39.125039,68.235 L39.125039,49.095 C39.125039,44.355 35.3506494,40.491 30.7148052,40.491 C26.0909091,40.491 22.3153247,44.355 22.3153247,49.095 L22.3153247,57.039 C20.9890909,56.535 19.5911688,56.211 18.1335065,56.091 C15.3376623,55.863 12.6135065,56.451 10.1880519,57.651 L10.1402597,27.243 L45.9724675,3.087 C46.1516883,2.967 46.3787013,2.967 46.5698701,3.087 L82.2109091,27.243 L82.198961,50.559 C79.8332468,49.899 77.6945455,49.983 76.6192208,50.091 C76.0564675,50.151 74.1818182,50.415 72.0192208,51.399 L72.0192208,33.975 L51.2057143,33.975 L51.2057143,53.283 L68.9354286,53.283 C68.1946494,53.871 67.467013,54.567 66.7967273,55.395 C66.1766234,56.151 65.638961,56.967 65.1849351,57.843 C62.4715325,56.727 59.5932468,56.751 57.0841558,57.963 C55.1246753,58.911 54.0003636,60.303 53.5953247,60.867 Z M36.6171429,68.475 L32.1724675,68.475 C32.1473766,68.391 32.1366234,68.307 32.1127273,68.235 C31.0254545,63.963 28.361039,60.411 24.8244156,58.263 L24.8244156,49.095 C24.8244156,45.735 27.4649351,43.011 30.7148052,43.011 C33.9766234,43.011 36.6171429,45.735 36.6171429,49.095 L36.6171429,68.475 Z M4.7038961,68.235 C6.55584416,62.535 12.0388052,58.611 17.8945455,59.079 C22.9724675,59.487 27.4051948,63.231 29.0062338,68.235 L4.7038961,68.235 Z M86.5719481,52.719 C86.1167273,52.371 85.6519481,52.059 85.185974,51.795 L85.1979221,25.647 L48.2294545,0.603 C47.0346494,-0.201 45.4933506,-0.201 44.2985455,0.603 L7.15324675,25.647 L7.15324675,53.283 L7.20103896,59.583 C4.22477922,61.971 2.05142857,65.451 1.3225974,69.471 L1,71.235 L32.6862338,71.235 L83.6924675,71.223 L83.6924675,71.175 C85.6149091,71.187 87.5397403,71.211 89.4633766,71.235 L90.5625974,71.247 L90.8959481,70.203 C93.1194805,63.447 91.387013,56.415 86.5719481,52.719 Z" id="path-1"></path>
    </defs>
    <g id="DCU_Icon_PLP_Large_Black_Buying-Home" stroke="none" stroke-width="1" fill="none" fill-rule="evenodd">
        <mask id="mask-2" fill="white">
            <use xlink:href="#path-1"></use>
        </mask>
        <g id="Buying_Home"></g>
        <g id="Color/Primary/Grey/Dark" mask="url(#mask-2)" fill="#3A3A3A">
            <rect id="Rectangle-Copy-12" x="0" y="0" width="93" height="72"></rect>
        </g>
    </g>
</svg>