<?xml version="1.0" encoding="UTF-8"?>
<svg width="72px" height="40px" viewBox="0 0 72 40" version="1.1" xmlns="http://www.w3.org/2000/svg" xmlns:xlink="http://www.w3.org/1999/xlink">
    <!-- Generator: Sketch 53.2 (72643) - https://sketchapp.com -->
    <title>DCU_Illustration_PLP_Non-Functional_Green_Are you financially fit</title>
    <desc>Created with Sketch.</desc>
    <g id="DCU_Illustration_PLP_Non-Functional_Green_Are-you-financially-fit" stroke="none" stroke-width="1" fill="none" fill-rule="evenodd">
        <path d="M58.9045,9.9753 C58.7055,9.3573 58.2565,8.8293 57.6875,8.5383 L56.1115,7.7503 C55.9815,7.7013 55.8725,7.5813 55.8325,7.4323 C55.7825,7.2723 55.7925,7.1223 55.8625,6.9933 C55.9625,6.7933 56.1615,6.6733 56.3715,6.6733 L56.6005,6.6733 C56.7105,6.6833 56.8695,6.7133 56.9895,6.8333 C57.0985,6.9333 57.1695,7.0633 57.1785,7.2323 C57.2685,7.6513 57.6285,7.9603 58.0475,7.9803 L58.0965,7.9803 C58.5465,7.9803 58.9145,7.6413 59.0045,7.1533 C58.9645,6.1753 58.3265,5.3173 57.4085,4.9973 L57.4085,4.4393 C57.4085,4.4393 57.4085,4.3393 57.3785,4.2803 C57.2895,3.8803 56.9295,3.6013 56.5405,3.6013 L56.4705,3.6013 C56.2215,3.6013 55.9815,3.7013 55.8025,3.8903 C55.6335,4.0793 55.5435,4.3093 55.5625,4.5193 L55.5625,4.9973 C55.0045,5.1873 54.5355,5.5963 54.2565,6.1353 C53.9475,6.7043 53.8865,7.3523 54.0875,7.9703 C54.2665,8.5793 54.7055,9.0973 55.2945,9.3973 L56.8595,10.1743 C56.9995,10.2453 57.0985,10.3653 57.1495,10.5143 C57.1885,10.6543 57.1785,10.8033 57.1195,10.9533 C57.0195,11.1423 56.8195,11.2723 56.6105,11.2723 L56.3815,11.2723 C56.2315,11.2623 56.0915,11.2033 55.9925,11.1133 C55.8425,10.9833 55.8025,10.8233 55.7925,10.7333 C55.7325,10.2753 55.3535,9.9353 54.8845,9.9353 L54.8645,9.9353 C54.4065,9.9463 54.0375,10.3043 53.9765,10.7933 C54.0165,11.7713 54.6345,12.6193 55.5735,12.9383 L55.5735,13.6263 C55.6425,14.0453 56.0325,14.3643 56.4705,14.3743 C56.7295,14.3743 56.9395,14.2853 57.1295,14.0953 C57.2685,13.9353 57.3585,13.7953 57.3885,13.6163 L57.3885,12.9383 C58.3455,12.6193 59.0045,11.7013 59.0045,10.6833 C59.0045,10.4843 58.9745,10.2753 58.9045,9.9963 L58.9045,9.9753 Z M70.0365,22.7933 C70.0475,22.6733 70.0565,22.5343 70.0565,22.3943 C70.0665,22.1553 70.0565,21.9053 70.0265,21.6563 L70.0075,21.6563 C69.7075,21.6363 69.4585,21.6263 69.2285,21.6363 C69.1085,21.6463 68.9795,21.6563 68.8595,21.6653 L68.8005,21.6653 C68.7905,21.6653 68.7695,21.6763 68.7595,21.6763 L68.7105,21.6763 L68.6905,21.6863 L68.6105,21.6863 C68.4005,21.7263 68.1615,21.7763 67.9125,21.8453 L67.8625,21.8663 C67.7525,21.8953 67.6425,21.9253 67.5435,21.9653 C67.4935,21.9853 67.4535,21.9953 67.4235,22.0153 C67.3935,22.0153 67.3735,22.0253 67.3535,22.0353 C67.3335,22.0443 67.3035,22.0553 67.2735,22.0653 C67.0445,22.1643 66.8045,22.2943 66.6055,22.4043 C66.4955,22.4743 66.3955,22.5343 66.3055,22.5933 L66.2465,22.6333 C66.1965,22.6733 66.1465,22.7043 66.0965,22.7443 C66.0875,22.7533 66.0665,22.7733 66.0265,22.7933 C66.0165,22.8033 66.0165,22.8133 66.0075,22.8133 L65.9665,22.8533 L65.9665,22.8433 C65.7875,22.9833 65.6285,23.1323 65.4775,23.2723 C65.4385,23.3223 65.3885,23.3713 65.3485,23.4213 C65.2885,23.4713 65.2385,23.5313 65.1885,23.5803 C65.1485,23.6413 65.0985,23.6913 65.0585,23.7413 C65.0585,23.7503 65.0495,23.7603 65.0395,23.7813 C65.0295,23.7813 65.0195,23.8003 65.0085,23.8003 C65.0085,23.8103 64.9995,23.8213 64.9995,23.8303 L64.9895,23.8403 L64.9895,23.8713 L64.9595,23.8713 C64.8095,24.0793 64.6795,24.2793 64.5805,24.4493 L64.3815,24.8183 C64.3605,24.8683 64.3315,24.9273 64.3005,24.9883 L64.3005,25.0073 L64.2915,25.0283 C64.2915,25.0283 64.2915,25.0383 64.2815,25.0383 C64.2815,25.0473 64.2815,25.0573 64.2715,25.0673 L64.2605,25.0873 C64.2605,25.0873 64.2605,25.0973 64.2515,25.1073 C64.1815,25.2963 64.1115,25.4963 64.0515,25.7053 C63.9715,25.9753 63.9225,26.2243 63.8825,26.4743 L63.8825,26.4943 C63.8825,26.5033 63.8825,26.5243 63.8725,26.5433 C63.8725,26.5933 63.8725,26.6433 63.8525,26.7043 L63.8525,26.7333 C63.8415,26.8533 63.8415,26.9723 63.8415,27.0823 C63.8415,27.3313 63.8415,27.5803 63.8625,27.8303 L63.8825,27.8303 C64.1915,27.8503 64.4305,27.8603 64.6705,27.8503 C64.7105,27.8503 64.7505,27.8403 64.7905,27.8403 C64.8895,27.8403 64.9795,27.8303 65.0585,27.8213 C65.1295,27.8213 65.1885,27.8103 65.2495,27.8003 C65.2685,27.7903 65.2785,27.7903 65.2885,27.7903 C65.4885,27.7603 65.7175,27.7103 65.9865,27.6413 C66.1165,27.6013 66.2465,27.5613 66.3665,27.5113 L66.4055,27.5013 C66.4455,27.4923 66.4955,27.4713 66.5455,27.4523 C66.5755,27.4413 66.6345,27.4123 66.6755,27.4023 C66.8745,27.3123 67.0935,27.2023 67.2935,27.0823 L67.3635,27.0333 C67.4535,26.9833 67.5435,26.9223 67.6335,26.8633 C67.6525,26.8433 67.6735,26.8323 67.6925,26.8233 C67.7325,26.7933 67.7725,26.7733 67.8015,26.7433 C67.8015,26.7433 67.8225,26.7233 67.8425,26.7133 C68.0715,26.5433 68.2515,26.3733 68.4115,26.2143 C68.5105,26.1053 68.6105,26.0053 68.7005,25.9053 C68.7195,25.8753 68.7405,25.8553 68.7695,25.8263 C68.7905,25.8053 68.8095,25.7763 68.8295,25.7553 C68.8405,25.7363 68.8495,25.7263 68.8695,25.7053 C68.9095,25.6653 68.9195,25.6463 68.9195,25.6363 C69.0695,25.4473 69.1985,25.2463 69.3085,25.0383 C69.3785,24.9173 69.4485,24.8083 69.5085,24.6783 C69.5175,24.6483 69.5385,24.6193 69.5485,24.5883 C69.5675,24.5593 69.5785,24.5293 69.5885,24.4983 C69.5975,24.4793 69.6285,24.4093 69.6375,24.3793 C69.7075,24.2093 69.7775,24.0203 69.8375,23.7813 C69.8965,23.5713 69.9475,23.3623 69.9865,23.1423 L69.9765,23.1523 L70.0075,23.0023 C70.0165,22.9723 70.0165,22.9533 70.0165,22.9533 C70.0265,22.9223 70.0265,22.8933 70.0265,22.8723 C70.0265,22.8433 70.0265,22.8133 70.0365,22.7933 L70.0365,22.7933 Z M57.4675,16.0903 C57.6285,16.0603 57.7675,16.0303 57.9175,16.0003 C58.2265,15.9303 58.5455,15.8303 58.8755,15.7213 C58.9345,15.6913 59.0145,15.6613 59.0845,15.6313 L59.1035,15.6313 C59.1035,15.6313 59.1145,15.6313 59.1145,15.6213 L59.1435,15.6213 C59.1945,15.5913 59.2235,15.5813 59.2235,15.5813 C59.2635,15.5613 59.3135,15.5413 59.3635,15.5113 C59.4235,15.4813 59.4835,15.4523 59.5435,15.4213 C59.7825,15.3023 60.1015,15.1323 60.3905,14.9333 C60.4615,14.8833 60.5305,14.8333 60.6005,14.7833 C60.6305,14.7633 60.6605,14.7443 60.6905,14.7133 C60.7005,14.7133 60.7195,14.7043 60.7505,14.6733 C60.7805,14.6543 60.8095,14.6233 60.8095,14.6233 C60.8305,14.6143 60.8495,14.5933 60.8595,14.5833 C60.9095,14.5433 60.9495,14.5143 60.9895,14.4743 C61.2185,14.2853 61.4285,14.0753 61.6185,13.8663 L61.9975,13.4473 C61.9975,13.4373 61.9975,13.4373 62.0075,13.4373 L62.0165,13.4073 C62.0365,13.3763 62.0475,13.3673 62.0475,13.3673 C62.3855,12.8983 62.6555,12.4493 62.8645,12.0003 C62.8945,11.9403 62.9145,11.8903 62.9445,11.8303 C62.9445,11.8213 62.9545,11.8003 62.9655,11.7903 C62.9655,11.7713 62.9745,11.7713 62.9745,11.7613 C62.9745,11.7503 62.9845,11.7413 62.9845,11.7413 C63.0045,11.6613 63.0345,11.6013 63.0535,11.5413 C63.0745,11.4713 63.1035,11.4123 63.1245,11.3523 C63.2145,11.0733 63.2835,10.8133 63.3335,10.5743 C63.3735,10.4143 63.4035,10.2543 63.4335,10.1053 L63.4725,9.8663 C63.4835,9.5963 63.5035,9.3073 63.5035,9.0283 C63.5035,8.8183 63.4935,8.5993 63.4725,8.3703 L63.4725,8.3293 C63.4635,8.2593 63.4635,8.2003 63.4635,8.1293 L63.4435,8.0203 C63.4435,8.0103 63.4435,8.0003 63.4335,8.0003 L63.4335,7.9603 C63.3635,7.5323 63.2735,7.1623 63.1645,6.8333 C63.0935,6.6233 63.0345,6.4443 62.9655,6.2943 C62.9545,6.2643 62.9545,6.2453 62.9445,6.2253 L62.9255,6.1953 C62.8845,6.1243 62.8545,6.0363 62.8045,5.9353 C62.6255,5.5773 62.4355,5.2573 62.2365,4.9573 C62.1865,4.8883 62.1365,4.8293 62.0965,4.7683 L62.0365,4.6893 C62.0265,4.6783 62.0165,4.6683 62.0165,4.6593 C62.0075,4.6493 62.0075,4.6493 62.0075,4.6383 C61.9675,4.5993 61.9365,4.5593 61.8975,4.5193 C61.8075,4.4193 61.7275,4.3203 61.6285,4.2193 C61.3585,3.9203 61.0895,3.6713 60.8095,3.4523 C60.8005,3.4323 60.7805,3.4213 60.7695,3.4123 C60.7505,3.4023 60.7405,3.3813 60.7195,3.3713 C60.7195,3.3713 60.7195,3.3623 60.7105,3.3623 L60.6795,3.3313 L60.6305,3.3023 C60.5905,3.2723 60.5505,3.2433 60.5015,3.2223 C60.3505,3.1023 60.1915,3.0023 60.0215,2.9133 C59.8725,2.8133 59.7135,2.7233 59.5335,2.6333 C59.4835,2.6143 59.4435,2.5943 59.3935,2.5643 C59.3535,2.5433 59.3135,2.5243 59.2735,2.5143 C59.2445,2.5043 59.2145,2.4943 59.1945,2.4743 L59.1745,2.4643 C59.1435,2.4643 59.1245,2.4543 59.1035,2.4443 C58.6345,2.2643 58.2065,2.1243 57.7975,2.0453 L57.7175,2.0253 C57.5975,2.0053 57.4985,1.9853 57.3885,1.9753 L57.3585,1.9653 L57.3395,1.9653 L57.3185,1.9653 C57.2895,1.9553 57.2585,1.9553 57.2185,1.9553 C56.9295,1.9153 56.7105,1.9063 56.5015,1.9063 C56.0915,1.9063 55.7725,1.9153 55.4735,1.9553 C55.4535,1.9553 55.4335,1.9653 55.4235,1.9653 C55.4135,1.9653 55.3935,1.9653 55.3835,1.9753 L55.2045,1.9963 C55.1435,2.0053 55.0845,2.0253 55.0245,2.0363 C54.9655,2.0453 54.9045,2.0553 54.8445,2.0653 C54.6055,2.1153 54.3555,2.1953 54.1165,2.2643 C54.0075,2.3043 53.8975,2.3443 53.7775,2.3843 C53.7375,2.3943 53.7085,2.4143 53.6775,2.4343 L53.6585,2.4343 C53.6475,2.4443 53.6475,2.4443 53.6375,2.4443 C53.6375,2.4443 53.6285,2.4443 53.6285,2.4543 L53.5975,2.4543 C53.6075,2.4643 53.5975,2.4643 53.5885,2.4643 C53.1695,2.6443 52.7595,2.8733 52.3615,3.1423 C52.2515,3.2123 52.1615,3.2723 52.0715,3.3423 C52.0715,3.3523 52.0615,3.3523 52.0515,3.3623 C52.0425,3.3623 52.0425,3.3623 52.0425,3.3713 C52.0325,3.3813 52.0215,3.3813 52.0115,3.3923 C52.0115,3.3923 52.0025,3.3923 52.0025,3.4023 C51.9715,3.4123 51.9625,3.4323 51.9425,3.4423 C51.9225,3.4613 51.9125,3.4713 51.8925,3.4823 C51.7425,3.6013 51.5835,3.7503 51.3935,3.9403 L51.3835,3.9513 C51.2145,4.1203 51.0345,4.2993 50.8845,4.4893 C50.8545,4.5193 50.7645,4.6193 50.7355,4.6683 L50.7255,4.6683 L50.7255,4.6893 L50.7155,4.7083 C50.6555,4.7683 50.6155,4.8293 50.5655,4.8883 C50.2965,5.2973 50.0475,5.7053 49.8575,6.1353 C49.8475,6.1643 49.8275,6.1953 49.8275,6.1953 C49.8175,6.2143 49.8175,6.2253 49.8175,6.2353 L49.8175,6.2543 L49.7875,6.3043 L49.7775,6.3253 C49.7775,6.3343 49.7675,6.3443 49.7675,6.3543 C49.7275,6.4443 49.6975,6.5343 49.6685,6.6143 L49.6475,6.6833 C49.5785,6.8833 49.4985,7.1323 49.4385,7.3623 C49.3795,7.6113 49.3285,7.8613 49.2995,8.0903 C49.2895,8.1693 49.2785,8.2703 49.2785,8.2893 C49.2785,8.4293 49.2685,8.5483 49.2585,8.6683 C49.2495,8.9883 49.2495,9.2573 49.2685,9.5063 L49.2685,9.5163 C49.2785,9.6653 49.2785,9.7953 49.2995,9.9463 C49.3085,9.9963 49.3085,10.0153 49.3085,10.0253 C49.3185,10.0453 49.3185,10.0753 49.3285,10.1053 C49.3285,10.1353 49.3395,10.1643 49.3395,10.1953 C49.4485,10.7733 49.5975,11.3023 49.7985,11.8113 C49.8075,11.8213 49.8075,11.8303 49.8175,11.8403 L49.8275,11.8613 C49.8375,11.9013 49.8675,11.9513 49.8775,11.9703 C49.8975,12.0103 49.9075,12.0393 49.9265,12.0793 C49.9375,12.1103 49.9575,12.1403 49.9665,12.1693 C49.9875,12.2093 50.0075,12.2493 50.0265,12.2893 C50.0765,12.3703 50.1165,12.4493 50.1665,12.5293 C50.2965,12.7583 50.4355,12.9973 50.6055,13.2273 C50.6155,13.2573 50.6355,13.2773 50.6555,13.3073 C50.6755,13.3273 50.6955,13.3573 50.7155,13.3763 L50.7455,13.4163 C50.7755,13.4563 50.7855,13.4763 50.7955,13.4763 C50.8445,13.5373 50.8945,13.5963 50.9445,13.6463 C50.9945,13.7053 51.0345,13.7553 51.0845,13.8163 C51.3135,14.0653 51.5235,14.2643 51.7225,14.4443 C51.8125,14.5143 51.8825,14.5743 51.9525,14.6333 C51.9625,14.6433 51.9715,14.6543 51.9825,14.6543 C51.9925,14.6633 52.0025,14.6733 52.0115,14.6733 L52.0325,14.6943 L52.0425,14.7043 C52.0515,14.7043 52.0615,14.7133 52.0615,14.7233 L52.3505,14.9223 C52.5505,15.0623 52.7805,15.1923 53.0695,15.3523 C53.2285,15.4313 53.3685,15.5013 53.4985,15.5613 C53.5085,15.5613 53.5285,15.5713 53.5485,15.5813 C53.5575,15.5813 53.5675,15.5913 53.5785,15.5913 C53.5885,15.6013 53.5975,15.6013 53.6075,15.6113 C53.6375,15.6213 53.6585,15.6313 53.6775,15.6413 C53.6975,15.6513 53.7175,15.6613 53.7375,15.6613 L53.7475,15.6713 C54.0075,15.7603 54.2765,15.8503 54.5465,15.9203 C54.7855,15.9803 55.0535,16.0393 55.3535,16.0903 C55.3635,16.0903 55.3735,16.1003 55.3835,16.1003 L55.4235,16.1003 C55.4335,16.1103 55.4635,16.1103 55.4935,16.1103 C55.5735,16.1203 55.6425,16.1293 55.7025,16.1293 L56.1615,16.1603 L56.4805,16.1603 C56.7005,16.1603 56.9395,16.1503 57.1595,16.1293 L57.1695,16.1293 C57.2385,16.1203 57.3185,16.1103 57.3885,16.1003 C57.4185,16.0903 57.4585,16.0903 57.4675,16.0903 L57.4675,16.0903 Z M49.1195,22.6033 C49.1195,22.4743 49.1095,22.3543 49.0895,22.2143 C49.0895,22.1743 49.0895,22.1453 49.0795,22.1153 L49.0795,22.0753 C49.0695,22.0553 49.0695,22.0353 49.0695,22.0253 C49.0595,22.0053 49.0595,21.9953 49.0595,21.9853 C49.0295,21.7953 48.9895,21.5373 48.9095,21.2963 L48.7905,20.9173 C48.7805,20.8883 48.7695,20.8583 48.7595,20.8183 C48.7405,20.7883 48.7305,20.7583 48.7195,20.7283 L48.7195,20.7083 C48.7105,20.7083 48.7105,20.6993 48.7105,20.6883 C48.7005,20.6683 48.6905,20.6593 48.6905,20.6593 L48.6805,20.6383 C48.5915,20.4193 48.4805,20.1903 48.3505,19.9803 L48.3115,19.9203 C48.2515,19.8303 48.1915,19.7313 48.1225,19.6413 C48.0915,19.5813 48.0515,19.5313 48.0115,19.4713 C48.0025,19.4613 47.9925,19.4523 47.9825,19.4313 C47.8325,19.2423 47.6735,19.0623 47.4735,18.8633 C47.4335,18.8233 47.4035,18.7833 47.3635,18.7533 C47.3035,18.6933 47.2445,18.6333 47.1745,18.5743 C47.1545,18.5643 47.1335,18.5433 47.1245,18.5343 C47.0845,18.5033 47.0545,18.4743 47.0145,18.4443 C47.0055,18.4343 47.0055,18.4343 46.9945,18.4343 C46.9845,18.4133 46.9655,18.4043 46.9445,18.3843 L46.9155,18.3543 C46.7355,18.2243 46.5255,18.0843 46.2965,17.9653 C46.1965,17.9063 46.0875,17.8453 45.9775,17.7863 L45.9475,17.7663 C45.9175,17.7553 45.8775,17.7363 45.8475,17.7263 C45.8175,17.7053 45.7875,17.6963 45.7585,17.6863 L45.7375,17.6763 C45.7175,17.6653 45.6875,17.6563 45.6685,17.6363 C45.6475,17.6363 45.6375,17.6363 45.6375,17.6263 C45.5885,17.6063 45.5285,17.5863 45.4785,17.5763 C45.3395,17.5263 45.1995,17.4763 45.0505,17.4363 C44.8495,17.3763 44.6605,17.3273 44.4515,17.2963 L44.3815,17.2373 L44.3215,17.1773 C44.3115,17.1773 44.3005,17.1673 44.2915,17.1673 C44.2815,17.1573 44.2715,17.1573 44.2615,17.1573 L44.2215,17.1573 L44.2215,17.2573 C44.1815,17.2573 44.1225,17.2463 44.0615,17.2373 L44.0325,17.2373 C43.9125,17.2273 43.7935,17.2173 43.6735,17.2173 C43.4245,17.2173 43.1745,17.2173 42.9345,17.2463 L42.9345,17.2673 C42.9045,17.5263 42.8945,17.7953 42.9045,18.0453 C42.9155,18.1853 42.9255,18.3043 42.9345,18.4343 L42.9345,18.4843 C42.9345,18.4943 42.9445,18.5143 42.9445,18.5243 C42.9445,18.5743 42.9555,18.6333 42.9555,18.6543 C42.9945,18.8833 43.0445,19.1223 43.1145,19.3623 C43.1645,19.5113 43.1945,19.6313 43.2345,19.7413 C43.2445,19.7603 43.2545,19.7813 43.2635,19.8103 C43.2735,19.8503 43.2945,19.8903 43.3035,19.9303 L43.3035,19.9513 C43.3035,19.9513 43.3135,19.9513 43.3135,19.9603 C43.4245,20.2093 43.5435,20.4493 43.6825,20.6683 C43.7535,20.7983 43.8225,20.9083 43.8925,21.0173 L43.9125,21.0383 C43.9425,21.0873 43.9715,21.1373 44.0115,21.1773 C44.0215,21.1973 44.0425,21.2173 44.0515,21.2373 C44.0725,21.2573 44.0825,21.2773 44.0915,21.2873 C44.2415,21.4763 44.3905,21.6363 44.5415,21.7953 C44.6505,21.8953 44.7505,21.9853 44.8495,22.0843 L44.8705,22.0953 C44.9105,22.1343 44.9605,22.1743 45.0005,22.2143 C45.0195,22.2243 45.0295,22.2353 45.0505,22.2543 C45.0595,22.2543 45.0695,22.2643 45.0795,22.2743 L45.0895,22.2853 L45.0995,22.2853 L45.1195,22.2943 C45.3395,22.4543 45.5385,22.5933 45.7175,22.6933 C45.8375,22.7633 45.9575,22.8323 46.0875,22.8823 C46.1165,22.9033 46.1465,22.9133 46.1675,22.9333 C46.2065,22.9433 46.2365,22.9623 46.2665,22.9723 C46.2765,22.9833 46.3455,23.0123 46.3665,23.0123 C46.5655,23.1023 46.7645,23.1623 46.9745,23.2223 C47.2445,23.3023 47.4935,23.3523 47.7425,23.3913 C47.7535,23.3913 47.7625,23.3913 47.7725,23.4023 L47.8025,23.4023 C47.8415,23.4023 47.8625,23.4023 47.8925,23.4123 L47.9715,23.4123 C48.0915,23.4213 48.2215,23.4313 48.3505,23.4313 C48.5915,23.4423 48.8305,23.4313 49.0985,23.4123 L49.0985,23.3913 L49.0985,23.3813 C49.1195,23.0823 49.1295,22.8433 49.1195,22.6033 L49.1195,22.6033 Z M71.9525,22.2353 C71.9525,24.2993 71.1435,26.2643 69.6685,27.6613 C67.9715,29.2773 65.6685,30.0153 63.3335,29.6863 C63.0935,29.8953 62.8545,30.1053 62.6255,30.3143 C62.3765,30.5343 62.1365,30.7533 61.8975,30.9723 L57.4385,34.9723 L57.4385,38.0843 L63.1035,38.0843 C63.6235,38.0843 64.0615,38.5243 64.0615,39.0423 C64.0615,39.5713 63.6335,39.9993 63.1035,39.9993 L49.6685,39.9993 C49.1385,39.9993 48.7105,39.5713 48.7105,39.0423 C48.7105,38.5133 49.1385,38.0843 49.6685,38.0843 L55.5235,38.0843 L55.5235,30.5743 C55.0645,30.1453 54.6155,29.7363 54.1365,29.3173 L53.9875,29.1773 C53.3585,28.6093 52.7305,28.0503 52.1015,27.4813 C51.2835,26.7533 50.4465,26.0053 49.6285,25.2563 C47.1645,25.5963 44.7205,24.7783 43.0845,23.0523 C41.3885,21.2463 40.6605,18.7133 41.1495,16.2693 C41.1495,16.2403 41.1595,16.2003 41.1695,16.1693 C41.1995,16.0303 41.2495,15.9203 41.3295,15.8303 C41.3485,15.7903 41.3885,15.7603 41.4195,15.7213 L41.4285,15.7213 C41.4285,15.7103 41.4385,15.7013 41.4485,15.6913 C41.4685,15.6713 41.4985,15.6613 41.5285,15.6413 C41.5685,15.6113 41.6285,15.5813 41.6475,15.5613 L41.7875,15.5113 C41.8075,15.4923 41.8275,15.4813 41.8475,15.4813 L41.8575,15.4813 C41.8875,15.4713 41.9175,15.4613 41.9575,15.4613 C41.9975,15.4523 42.0275,15.4523 42.0565,15.4423 L42.1065,15.4423 C44.6705,14.9933 47.2235,15.8003 48.9295,17.6163 C50.5255,19.2823 51.2635,21.5663 50.9655,23.8803 C51.4335,24.3193 51.9125,24.7483 52.4215,25.1973 L52.5805,25.3363 C53.5485,26.2043 54.5465,27.1023 55.5235,27.9903 L55.5235,18.0353 C55.1245,17.9953 54.7455,17.9453 54.3765,17.8553 C51.8625,17.2963 49.6475,15.6213 48.4405,13.3763 C47.2735,11.2123 47.0145,8.6683 47.7135,6.3943 C48.3615,4.3493 49.6975,2.5833 51.4835,1.4163 C53.3785,0.2003 55.7825,-0.2687 58.0665,0.1503 C60.0715,0.5093 61.9675,1.6063 63.2545,3.1633 C64.6605,4.8483 65.4085,6.8633 65.4185,8.9973 L65.4185,9.0573 C65.4185,9.2673 65.4185,9.4763 65.3985,9.6763 C65.1995,12.1903 64.0115,14.4843 62.1665,15.9803 C61.0195,16.9083 59.7925,17.5263 58.4955,17.8353 C58.1565,17.9153 57.8175,17.9753 57.4385,18.0053 L57.4385,32.3993 C57.4675,32.3793 57.4985,32.3493 57.5285,32.3193 L57.6185,32.2393 C58.1275,31.7813 58.6345,31.3313 59.1335,30.8723 C60.0815,30.0253 61.0585,29.1473 62.0165,28.2893 C61.6975,25.8553 62.5255,23.4423 64.2315,21.8163 C66.0365,20.1203 68.5705,19.3913 71.0045,19.8803 C71.0345,19.8803 71.0635,19.8903 71.1035,19.9003 L71.1145,19.9003 C71.2435,19.9303 71.3535,19.9803 71.4435,20.0603 C71.4635,20.0703 71.4725,20.0793 71.4825,20.0893 C71.5035,20.1003 71.5225,20.1203 71.5435,20.1403 L71.5625,20.1603 C71.5925,20.1903 71.6125,20.2193 71.6335,20.2403 C71.7025,20.3393 71.7615,20.4493 71.7925,20.5693 C71.8015,20.6093 71.8125,20.6483 71.8125,20.6883 C71.8225,20.7183 71.8225,20.7583 71.8325,20.7883 L71.8325,20.8383 C71.9125,21.3073 71.9525,21.7763 71.9525,22.2353 L71.9525,22.2353 Z M44.2815,17.2673 L44.2815,17.2573 L44.2615,17.2573 L44.2215,17.2573 L44.2215,17.1573 L44.2615,17.1573 C44.2715,17.1573 44.2815,17.1573 44.2915,17.1673 C44.3005,17.1673 44.3115,17.1773 44.3215,17.1773 L44.3815,17.2373 L44.4515,17.2963 C44.4015,17.2873 44.3415,17.2773 44.2815,17.2673 L44.2815,17.2673 Z M44.2815,17.2673 L44.2815,17.2573 L44.2615,17.2573 L44.2215,17.2573 L44.2215,17.1573 L44.2615,17.1573 C44.2715,17.1573 44.2815,17.1573 44.2915,17.1673 C44.3005,17.1673 44.3115,17.1773 44.3215,17.1773 L44.3815,17.2373 L44.4515,17.2963 C44.4015,17.2873 44.3415,17.2773 44.2815,17.2673 L44.2815,17.2673 Z M44.2815,17.2673 L44.2815,17.2573 L44.2615,17.2573 L44.2215,17.2573 L44.2215,17.1573 L44.2615,17.1573 C44.2715,17.1573 44.2815,17.1573 44.2915,17.1673 C44.3005,17.1673 44.3115,17.1773 44.3215,17.1773 L44.3815,17.2373 L44.4515,17.2963 C44.4015,17.2873 44.3415,17.2773 44.2815,17.2673 L44.2815,17.2673 Z M44.2815,17.2173 C44.3315,17.2173 44.3715,17.2173 44.2615,17.2073 L44.2215,17.2073 L44.2215,17.1573 L44.2615,17.1573 C44.2715,17.1573 44.2815,17.1573 44.2915,17.1673 C44.3005,17.1673 44.3115,17.1773 44.3215,17.1773 L44.3815,17.2373 C44.3505,17.2273 44.3115,17.2173 44.2815,17.2173 L44.2815,17.2173 Z M44.3815,17.2373 L44.3215,17.1773 C44.3115,17.1773 44.3005,17.1673 44.2915,17.1673 C44.2815,17.1573 44.2715,17.1573 44.2615,17.1573 L44.2215,17.1573 L44.2215,17.2573 C44.2215,17.2573 44.2415,17.2573 44.2715,17.2673 L44.2815,17.2673 C44.3415,17.2773 44.4015,17.2873 44.4515,17.2963 L44.3815,17.2373 Z" id="Fill-1" fill="#01675A"></path>
    </g>
</svg>