<?xml version="1.0" encoding="UTF-8"?>
<svg width="72px" height="40px" viewBox="0 0 72 40" version="1.1" xmlns="http://www.w3.org/2000/svg" xmlns:xlink="http://www.w3.org/1999/xlink">
    <!-- Generator: Sketch 53.2 (72643) - https://sketchapp.com -->
    <title>DCU_Illustration_PLP_Non-Functional_Green_Direct Deposit</title>
    <desc>Created with Sketch.</desc>
    <g id="DCU_Illustration_PLP_Non-Functional_Green_Direct-Deposit" stroke="none" stroke-width="1" fill="none" fill-rule="evenodd">
        <path d="M64.3489,23.9372 C65.3289,23.9372 66.1249,24.7332 66.1249,25.7142 C66.1249,26.6962 65.3289,27.4912 64.3489,27.4912 C63.3679,27.4912 62.5719,26.6962 62.5719,25.7142 C62.5719,24.7332 63.3679,23.9372 64.3489,23.9372 L64.3489,23.9372 Z M70.0949,29.5242 L63.4279,29.5242 C61.3249,29.5242 59.6189,27.8182 59.6189,25.7142 C59.6189,23.6102 61.3249,21.9052 63.4279,21.9052 L70.0949,21.9052 L70.0949,29.5242 Z M66.2859,38.0952 L36.7619,38.0952 C35.1839,38.0952 33.9049,36.8162 33.9049,35.2382 L33.9049,14.2862 C33.9419,14.3142 33.9849,14.3342 34.0229,14.3612 C34.0999,14.4162 34.1819,14.4632 34.2619,14.5132 C34.4239,14.6142 34.5919,14.7062 34.7649,14.7872 C34.8599,14.8292 34.9489,14.8702 35.0439,14.9072 C35.2299,14.9782 35.4209,15.0372 35.6159,15.0832 C35.7039,15.1062 35.7899,15.1332 35.8819,15.1512 C36.1719,15.2082 36.4659,15.2372 36.7619,15.2382 L66.2859,15.2382 L66.2859,20.0002 L63.4279,20.0002 C60.2729,20.0002 57.7139,22.5582 57.7139,25.7142 C57.7139,28.8712 60.2729,31.4282 63.4279,31.4282 L66.2859,31.4282 L66.2859,38.0952 Z M36.7619,7.6202 L40.7489,7.6202 L34.1159,11.5412 C33.9769,11.2032 33.9059,10.8412 33.9049,10.4762 C33.9049,8.8982 35.1839,7.6202 36.7619,7.6202 L36.7619,7.6202 Z M53.5699,2.2572 L55.5239,5.5672 L40.1749,10.1722 L53.5699,2.2572 Z M60.8179,5.9692 L62.4709,13.3332 L36.7619,13.3332 C36.6379,13.3302 36.5139,13.3172 36.3919,13.2962 L60.8179,5.9692 Z M66.2859,7.6202 L66.2859,13.3332 L64.4219,13.3332 L63.1429,7.6202 L66.2859,7.6202 Z M71.0469,20.0002 L68.1899,20.0002 L68.1899,6.6662 C68.1899,6.1412 67.7639,5.7142 67.2379,5.7142 L62.7129,5.7142 L62.4529,4.5532 C62.3379,4.0412 61.8279,3.7172 61.3159,3.8332 C61.2929,3.8372 61.2719,3.8432 61.2499,3.8502 L57.4049,5.0032 L54.7249,0.4682 C54.4569,0.0152 53.8719,-0.1348 53.4199,0.1322 L53.4189,0.1322 L43.9729,5.7142 L36.7619,5.7142 C34.1329,5.7172 32.0029,7.8482 31.9999,10.4762 L31.9999,35.2382 C32.0029,37.8672 34.1329,39.9972 36.7619,39.9992 L67.2379,39.9992 C67.7639,39.9992 68.1899,39.5742 68.1899,39.0472 L68.1899,31.4282 L71.0469,31.4282 C71.5739,31.4282 71.9989,31.0022 71.9989,30.4762 L71.9989,20.9532 C71.9989,20.4262 71.5739,20.0002 71.0469,20.0002 L71.0469,20.0002 Z" id="Fill-1" fill="#01675A"></path>
    </g>
</svg>