<?xml version="1.0" encoding="UTF-8"?>
<svg width="56px" height="56px" viewBox="0 0 56 56" version="1.1" xmlns="http://www.w3.org/2000/svg" xmlns:xlink="http://www.w3.org/1999/xlink">
    <!-- Generator: Sketch 52.5 (67469) - http://www.bohemiancoding.com/sketch -->
    <title>DCU_Illustration_PLP_Non-Functional_Green_View-Rates</title>
    <desc>Created with Sketch.</desc>
    <g id="DCU_Illustration_PLP_Non-Functional_Green_View-Rates" stroke="none" stroke-width="1" fill="none" fill-rule="evenodd">
        <path d="M27.9788,2.8816 L4.4658,26.3936 L7.0418,26.3936 C7.9448,26.3936 8.6528,27.1026 8.6528,28.0046 L8.6528,53.7716 L47.3038,53.7716 L47.3038,28.0046 C47.3038,27.1026 48.0118,26.3936 48.9148,26.3936 L51.4918,26.3936 L27.9788,2.8816 Z M1.5488,29.5696 C0.1808,29.5696 -0.5032,27.8916 0.4288,26.8966 L26.9208,0.4666 C27.4808,-0.1554 28.4758,-0.1554 29.0978,0.4666 L55.5278,26.8966 C56.4598,27.8916 55.7768,29.5696 54.4088,29.5696 L49.7448,29.5696 L49.7448,54.4456 C49.7448,55.3166 49.0598,56.0006 48.1898,56.0006 L7.7678,56.0006 C6.8968,56.0006 6.2128,55.3166 6.2128,54.4456 L6.2128,29.5696 L1.5488,29.5696 Z M20.9427,41.8078 C20.5007,41.3158 20.5007,40.5288 20.9927,40.0858 L33.2877,27.7908 C33.7297,27.2998 34.5167,27.2998 35.0087,27.7908 C35.5007,28.2338 35.5007,29.0208 35.0087,29.5128 L22.7137,41.8078 C22.4677,42.0538 22.1717,42.1518 21.8287,42.1518 C21.4837,42.1518 21.1887,42.0538 20.9427,41.8078 Z M34.9398,39.9333 C34.9398,38.9223 34.1458,38.1273 33.1338,38.1273 C32.1228,38.1273 31.3278,38.9223 31.3278,39.9333 C31.3278,40.9453 32.1228,41.7393 33.1338,41.7393 C34.1458,41.7393 34.9398,40.9453 34.9398,39.9333 Z M29.2648,39.9333 C29.2648,37.8183 31.0188,36.0643 33.1338,36.0643 C35.2498,36.0643 37.0028,37.8183 37.0028,39.9333 C37.0028,42.0483 35.2498,43.8033 33.1338,43.8033 C31.0188,43.8033 29.2648,42.0483 29.2648,39.9333 Z M24.6292,29.5959 C24.6292,28.5849 23.8342,27.7899 22.8232,27.7899 C21.8122,27.7899 21.0172,28.5849 21.0172,29.5959 C21.0172,30.6069 21.8122,31.4019 22.8232,31.4019 C23.8342,31.4019 24.6292,30.6069 24.6292,29.5959 Z M18.9532,29.5959 C18.9532,27.4809 20.7082,25.7259 22.8232,25.7259 C24.9392,25.7259 26.6922,27.4809 26.6922,29.5959 C26.6922,31.7109 24.9392,33.4649 22.8232,33.4649 C20.7082,33.4649 18.9532,31.7109 18.9532,29.5959 Z" id="Combined-Shape" fill="#01675A"></path>
    </g>
</svg>