<?xml version="1.0" encoding="UTF-8"?>
<svg width="72px" height="40px" viewBox="0 0 72 40" version="1.1" xmlns="http://www.w3.org/2000/svg" xmlns:xlink="http://www.w3.org/1999/xlink">
    <!-- Generator: Sketch 53.2 (72643) - https://sketchapp.com -->
    <title>DCU_Illustration_PLP_Non-Functional_Green_Mobile Banking</title>
    <desc>Created with Sketch.</desc>
    <g id="DCU_Illustration_PLP_Non-Functional_Green_Mobile-Banking" stroke="none" stroke-width="1" fill="none" fill-rule="evenodd">
        <path d="M61.2496,21.8649 C61.3396,21.6659 61.3586,21.4569 61.2896,21.2469 C61.2206,21.0379 61.0806,20.8789 60.8916,20.7889 L59.0186,19.8429 C58.3516,19.5039 57.8426,18.9069 57.6336,18.1989 C57.4146,17.5019 57.4746,16.7639 57.8226,16.1159 C58.1516,15.4789 58.7096,15.0009 59.3966,14.7819 L59.3966,14.1239 C59.3876,13.8749 59.4856,13.6259 59.6556,13.4469 C59.8356,13.2469 60.1036,13.1279 60.3836,13.1279 L60.4236,13.1279 C60.8516,13.1279 61.2296,13.4369 61.3396,13.8649 C61.3496,13.8849 61.3586,13.9349 61.3586,14.0249 L61.3586,14.7719 C62.4556,15.1309 63.2226,16.1269 63.2816,17.2619 C63.1836,17.7809 62.7836,18.1289 62.3156,18.1289 L62.2666,18.1289 C61.8086,18.1089 61.4296,17.7809 61.3396,17.3319 C61.3296,17.2419 61.2896,16.9929 61.0706,16.7839 C60.9316,16.6549 60.7416,16.5749 60.5326,16.5649 L60.2436,16.5649 C59.9446,16.5649 59.6656,16.7439 59.5256,17.0229 C59.4266,17.2219 59.4066,17.4319 59.4856,17.6309 C59.5566,17.8399 59.6956,18.0099 59.8956,18.0989 L61.7576,19.0459 C62.4156,19.3649 62.9336,19.9619 63.1626,20.6789 C63.2416,20.9779 63.2816,21.2379 63.2816,21.4869 C63.2816,22.6819 62.4846,23.7579 61.3496,24.1069 L61.3496,25.0029 C61.2996,25.1929 61.2106,25.3419 61.0606,25.4909 C60.8606,25.6909 60.6226,25.7899 60.3626,25.7899 C59.8956,25.7609 59.4966,25.4319 59.4166,24.9929 L59.4166,24.1069 C58.3116,23.7579 57.5536,22.7819 57.5036,21.6159 C57.5636,21.1079 57.9726,20.7289 58.4506,20.7189 L58.4706,20.7189 C58.9686,20.7189 59.3766,21.0779 59.4466,21.5659 C59.4566,21.6859 59.5066,21.9149 59.7056,22.0939 C59.8546,22.2339 60.0346,22.3029 60.2636,22.3139 L60.5326,22.3139 C60.8316,22.3139 61.1106,22.1339 61.2496,21.8649 L61.2496,21.8649 Z M69.9156,5.0149 L50.8706,5.0149 L50.8706,3.3139 C50.8706,2.5179 51.4976,1.8709 52.2536,1.8709 L68.5216,1.8709 C69.2886,1.8709 69.9156,2.5179 69.9156,3.3139 L69.9156,5.0149 Z M50.8706,31.3639 L69.9156,31.3639 L69.9156,6.8859 L50.8706,6.8859 L50.8706,31.3639 Z M69.9156,36.6769 C69.9156,37.4829 69.2886,38.1299 68.5216,38.1299 L52.2536,38.1299 C51.4976,38.1299 50.8706,37.4829 50.8706,36.6769 L50.8706,33.2339 L69.9156,33.2339 L69.9156,36.6769 Z M68.5216,-0.0001 L52.2536,-0.0001 C50.4626,-0.0001 48.9996,1.4829 48.9996,3.3139 L48.9996,36.6769 C48.9996,38.5079 50.4626,39.9999 52.2536,39.9999 L68.5216,39.9999 C70.3236,39.9999 71.7856,38.5079 71.7856,36.6769 L71.7856,3.3139 C71.7856,1.4829 70.3236,-0.0001 68.5216,-0.0001 L68.5216,-0.0001 Z M60.3936,35.1639 C60.6616,35.1639 60.8906,35.3929 60.8906,35.6619 C60.8906,35.9499 60.6716,36.1689 60.3936,36.1689 C60.1146,36.1689 59.8856,35.9399 59.8856,35.6619 C59.8856,35.3929 60.1146,35.1639 60.3936,35.1639 L60.3936,35.1639 Z M60.3936,37.7209 C61.5266,37.7209 62.4426,36.7959 62.4426,35.6619 C62.4426,34.5369 61.5266,33.6119 60.3936,33.6119 C59.2586,33.6119 58.3336,34.5369 58.3336,35.6619 C58.3336,36.7959 59.2586,37.7209 60.3936,37.7209 L60.3936,37.7209 Z" id="Fill-1" fill="#01675A"></path>
    </g>
</svg>