<?xml version="1.0" encoding="UTF-8"?>
<svg width="82px" height="56px" viewBox="0 0 82 56" version="1.1" xmlns="http://www.w3.org/2000/svg" xmlns:xlink="http://www.w3.org/1999/xlink">
    <!-- Generator: Sketch 52.5 (67469) - http://www.bohemiancoding.com/sketch -->
    <title>DCU_Illustration_PLP_Non-Functional_Green_Payment-Protection</title>
    <desc>Created with Sketch.</desc>
    <g id="DCU_Illustration_PLP_Non-Functional_Green_Payment-Protection" stroke="none" stroke-width="1" fill="none" fill-rule="evenodd">
        <path d="M63.8907,53.7457 L79.4917,53.7217 L79.4667,42.0417 L63.8777,42.0537 L63.8667,42.0537 L63.8907,53.7457 Z M66.9607,37.2937 L66.9607,39.7877 L76.3977,39.7877 L76.3977,37.2937 C76.3977,34.6557 74.3237,32.5807 71.6847,32.5807 C69.0357,32.5807 66.9607,34.6557 66.9607,37.2937 Z M14.2217,22.8077 L69.7057,22.8077 L69.7057,13.2267 C69.7057,12.5667 69.1667,12.0277 68.5077,12.0277 L15.4207,12.0277 C14.7617,12.0277 14.2217,12.5667 14.2217,13.2267 L14.2217,22.8077 Z M11.8247,13.1907 C11.8477,11.2247 13.4537,9.6287 15.4207,9.6287 L57.8707,9.6287 L57.8707,3.5977 C57.8707,2.9377 57.3437,2.3987 56.6717,2.3987 L3.5977,2.3987 C2.9257,2.3987 2.3987,2.9377 2.3987,3.5977 L2.3987,13.1907 L11.8247,13.1907 Z M11.8247,40.2667 L11.8247,15.7207 L2.3987,15.7207 L2.3987,39.0677 C2.3987,39.7277 2.9257,40.2667 3.5977,40.2667 L11.8247,40.2667 Z M79.4917,39.7877 C80.7267,39.7877 81.7337,40.7947 81.7337,42.0417 L81.7337,53.7457 C81.7337,54.9927 80.7267,55.9997 79.4917,55.9997 L63.8777,55.9997 C62.6307,55.9997 61.6237,54.9927 61.6237,53.7457 L61.6237,42.0417 C61.6237,40.7947 62.6307,39.7877 63.8777,39.7877 L64.6947,39.7877 L64.6947,37.2937 C64.6947,34.1277 66.8047,31.4417 69.7057,30.5907 L69.7057,25.3497 L14.2217,25.3497 L14.2217,48.6977 C14.2217,49.3567 14.7617,49.8967 15.4207,49.8967 L59.1187,49.8967 L59.1187,52.2947 L15.4207,52.2947 C13.4427,52.2947 11.8247,50.6757 11.8247,48.6977 L11.8247,42.6657 L3.5977,42.6657 C1.6077,42.6657 -0.0003,41.0587 -0.0003,39.0677 L-0.0003,3.5977 C-0.0003,1.6187 1.6077,-0.0003 3.5977,-0.0003 L56.6717,-0.0003 C58.6617,-0.0003 60.2697,1.6187 60.2697,3.5977 L60.2697,9.6287 L68.5077,9.6287 C70.4867,9.6287 72.1047,11.2477 72.1047,13.2267 L72.1047,30.3267 C75.7617,30.5307 78.6637,33.5877 78.6637,37.2937 L78.6637,39.7877 L79.4917,39.7877 Z M72.8126,46.503 L72.8126,49.285 C72.8126,49.621 72.6926,49.897 72.4756,50.112 C72.2606,50.316 71.9726,50.436 71.6846,50.436 L71.6616,50.436 C71.3616,50.424 71.0736,50.304 70.8696,50.088 C70.6546,49.873 70.5346,49.585 70.5456,49.285 L70.5456,46.491 C70.5346,45.867 71.0376,45.352 71.6616,45.339 L71.6966,45.339 C72.3336,45.352 72.8246,45.879 72.8126,46.503 Z" id="Combined-Shape" fill="#01675A"></path>
    </g>
</svg>