<?xml version="1.0" encoding="UTF-8"?>
<svg width="93px" height="72px" viewBox="0 0 93 72" version="1.1" xmlns="http://www.w3.org/2000/svg" xmlns:xlink="http://www.w3.org/1999/xlink">
    <!-- Generator: Sketch 52.5 (67469) - http://www.bohemiancoding.com/sketch -->
    <title>DCU_Icon_PLP_Large_Black_Improve-Home</title>
    <desc>Created with Sketch.</desc>
    <defs>
        <path d="M89.7454568,31.6285417 L84.7326363,28.3708368 L84.7326363,52.7885417 C84.7326363,53.6029679 84.070944,54.2639515 83.2582773,54.2639515 C82.4432517,54.2639515 81.7839183,53.6029679 81.7839183,52.7885417 L81.7839183,26.4587056 L46.0324824,3.24165645 L11.2258158,26.6475581 L11.2258158,52.7767384 C11.2258158,53.5911646 10.5653029,54.2521483 9.75145679,54.2521483 C8.93761063,54.2521483 8.27709781,53.5911646 8.27709781,52.7767384 L8.27709781,28.6305089 L3.29966191,31.9826401 C3.04017473,32.1596892 2.75709781,32.2423122 2.47402089,32.2423122 C2.00222602,32.2423122 1.53043114,32.0062466 1.24735422,31.5813286 C0.799149093,30.9085417 0.97607217,29.987886 1.64837986,29.5393614 L45.1950465,0.255426945 C45.6904311,-0.0750648585 46.3273542,-0.0868681372 46.8227388,0.231820387 L91.3483799,29.1498532 C92.0324824,29.5983778 92.2212004,30.5072302 91.7847901,31.1918204 C91.336585,31.8764106 90.416585,32.0770663 89.7454568,31.6285417 Z M62.9357132,54.200804 C62.0145337,54.200804 61.2667388,53.4536565 61.2667388,52.5306401 L61.2667388,39.7642138 C61.2667388,39.6202138 61.0945337,39.4596892 60.8492004,39.4596892 L32.1664311,39.4596892 C31.9210978,39.4596892 31.7512517,39.6202138 31.7512517,39.7642138 L31.7512517,52.5306401 C31.7512517,53.4536565 31.0034568,54.200804 30.0822773,54.200804 C29.1599183,54.200804 28.4121235,53.4536565 28.4121235,52.5306401 L28.4121235,39.7642138 C28.4121235,37.7541155 30.0964311,36.1193614 32.1664311,36.1193614 L60.8492004,36.1193614 C62.9203799,36.1193614 64.6046876,37.7541155 64.6046876,39.7642138 L64.6046876,52.5306401 C64.6046876,53.4536565 63.8568927,54.200804 62.9357132,54.200804 Z M51.3667132,22.6892368 L41.628867,22.7104827 L41.6500978,27.4790073 L51.3667132,27.4589417 L51.3667132,22.6892368 Z M51.387944,27.4589417 L51.387944,28.8163187 L51.387944,27.4589417 Z M51.387944,30.1736958 L41.628867,30.1736958 C40.1438927,30.1736958 38.9360978,28.9650401 38.9360978,27.4790073 L38.9360978,22.6892368 C38.9360978,21.2043843 40.1438927,19.9957286 41.628867,19.9957286 L51.387944,19.9957286 C52.8717388,19.9957286 54.0807132,21.2043843 54.0807132,22.6892368 L54.0807132,27.4790073 C54.0807132,28.9650401 52.8717388,30.1736958 51.387944,30.1736958 Z M82.0068414,68.2033876 L82.0068414,60.0591253 L10.9545337,60.0591253 L10.9545337,68.2033876 L17.7483799,68.2033876 L17.7483799,64.1312565 L20.4612004,64.1312565 L20.4612004,68.2033876 L28.6114568,68.2033876 L28.6114568,62.7738794 L31.3242773,62.7738794 L31.3242773,68.2033876 L39.4745337,68.2033876 L39.4745337,64.1312565 L42.1873542,64.1312565 L42.1873542,68.2033876 L50.7504311,68.2033876 L50.7504311,62.7738794 L53.4632517,62.7738794 L53.4632517,68.2033876 L62.3919696,68.2033876 L62.3919696,64.1430597 L65.1047901,64.1430597 L65.1047901,68.2033876 L72.8186363,68.2033876 L72.8186363,62.7738794 L75.5314568,62.7738794 L75.5314568,68.2033876 L82.0068414,68.2033876 Z M83.3632517,57.3325679 C84.1181235,57.3325679 84.7196619,57.9463384 84.7196619,58.689945 L84.7196619,69.5607646 C84.7196619,70.3161745 84.1181235,70.929945 83.3632517,70.929945 L9.59812345,70.929945 C8.85504653,70.929945 8.2417132,70.3161745 8.2417132,69.5607646 L8.2417132,58.689945 C8.2417132,57.9463384 8.85504653,57.3325679 9.59812345,57.3325679 L83.3632517,57.3325679 Z" id="path-1"></path>
    </defs>
    <g id="DCU_Icon_PLP_Large_Black_Improve-Home" stroke="none" stroke-width="1" fill="none" fill-rule="evenodd">
        <mask id="mask-2" fill="white">
            <use xlink:href="#path-1"></use>
        </mask>
        <g id="Improve_Home"></g>
        <g id="Color/Primary/Grey/Dark" mask="url(#mask-2)" fill="#3A3A3A">
            <rect id="Rectangle-Copy-12" x="0" y="0" width="93" height="72"></rect>
        </g>
    </g>
</svg>