<?xml version="1.0" encoding="UTF-8"?>
<svg width="93px" height="72px" viewBox="0 0 93 72" version="1.1" xmlns="http://www.w3.org/2000/svg" xmlns:xlink="http://www.w3.org/1999/xlink">
    <!-- Generator: Sketch 52.5 (67469) - http://www.bohemiancoding.com/sketch -->
    <title>DCU_Icon_PLP_Large_Black_Refinance-Home  </title>
    <desc>Created with Sketch.</desc>
    <defs>
        <path d="M88.7773617,31.1184039 L83.8295284,27.9248555 L83.8295284,67.6435652 L88.240695,67.6435652 C89.0445284,67.6435652 89.6990284,68.2822749 89.6990284,69.0951781 C89.6990284,69.8964684 89.0445284,70.546791 88.240695,70.546791 L66.3190284,70.546791 C65.5128617,70.546791 64.860695,69.8964684 64.860695,69.0951781 C64.860695,68.2822749 65.5128617,67.6435652 66.3190284,67.6435652 L80.9128617,67.6435652 L80.9128617,26.0435652 L45.5395284,3.18937167 L11.111195,26.2177588 L11.111195,67.6435652 L25.6945284,67.6435652 C26.4995284,67.6435652 27.1528617,68.2822749 27.1528617,69.0951781 C27.1528617,69.8964684 26.4995284,70.546791 25.6945284,70.546791 L3.32952838,70.546791 C2.52452838,70.546791 1.87119505,69.8964684 1.87119505,69.0951781 C1.87119505,68.2822749 2.52452838,67.6435652 3.32952838,67.6435652 L8.19452838,67.6435652 L8.19452838,28.1687265 L3.27119505,31.466791 C3.02736171,31.6409846 2.73569505,31.7222749 2.45452838,31.7222749 C1.98786171,31.7222749 1.53286171,31.4900168 1.25286171,31.0719523 C0.797861714,30.4100168 0.972861714,29.5042104 1.64952838,29.0629201 L44.711195,0.251307155 C45.201195,-0.073854135 45.831195,-0.0854670382 46.321195,0.228081349 L90.3628617,28.6796943 C91.0395284,29.1209846 91.226195,30.0151781 90.7945284,30.6887265 C90.351195,31.3622749 89.4540284,31.5596943 88.7773617,31.1184039 Z M46.4488284,68.9592943 C55.752995,68.966262 63.3013284,61.4631652 63.3071617,52.2018749 C63.3036617,42.9452297 55.7716617,35.4374878 46.4721617,35.4212297 C37.167995,35.414262 29.6196617,42.9173588 29.6138284,52.1786491 C29.6068284,61.4399394 37.1446617,68.9534878 46.4488284,68.9592943 Z M46.4476617,71.378262 C35.8018284,71.370133 27.1766617,62.774262 27.1836617,52.1774878 C27.203495,41.5841975 35.8321617,33.0069072 46.4733284,33.002262 C57.1191617,33.010391 65.7443284,41.606262 65.7373284,52.2030362 C65.7291617,62.7998104 57.093495,71.3852297 46.4476617,71.378262 Z M48.0434284,60.9254878 L47.7517617,61.018391 L47.7144284,61.0276813 L47.7144284,62.9844555 C47.6479284,63.2364555 47.5067617,63.4617459 47.309595,63.6580039 C47.036595,63.9297459 46.7169284,64.0888426 46.322595,64.0888426 C45.6739284,64.0516813 45.1092617,63.5929717 44.9972617,62.9844555 L44.9972617,61.018391 L44.968095,61.0091007 L44.6682617,60.9254878 C42.7584284,60.326262 41.4424284,58.6226491 41.3479284,56.6380039 C41.4424284,55.9691007 42.0117617,55.4639394 42.6767617,55.4476813 C43.3662617,55.430262 43.9764284,55.9435523 44.075595,56.6380039 C44.0919284,56.7924555 44.1759284,57.4265201 44.7289284,57.9305201 C45.090595,58.2568426 45.570095,58.4589072 46.0962617,58.4635523 L46.6224284,58.4635523 C47.4029284,58.4635523 48.0994284,58.0327136 48.447095,57.3498749 C48.9464284,56.3476813 48.541595,55.1306491 47.5359284,54.6347781 L43.9717617,52.8568426 C42.8249284,52.2854878 41.9499284,51.2565846 41.5649284,50.0395523 C41.188095,48.8318104 41.310595,47.5590362 41.9032617,46.4453588 C42.486595,45.3316813 43.4724284,44.5176168 44.6857617,44.1425201 L44.968095,44.0589072 L44.968095,42.4481975 C44.9202617,41.6910362 45.5607617,41.0534878 46.3599284,41.0534878 C46.9899284,41.0256168 47.544095,41.4657459 47.694595,42.0835523 C47.7237617,42.1392943 47.733095,42.1961975 47.733095,42.2612297 L47.733095,44.0403265 L47.7517617,44.0484555 L48.062095,44.1425201 C49.9719284,44.7417459 51.2867617,46.4453588 51.3824284,48.4288426 C51.2424284,49.1128426 50.6252617,49.5912943 49.9509284,49.5599394 C49.3232617,49.5297459 48.7807617,49.0640684 48.6547617,48.4288426 C48.6384284,48.2755523 48.5544284,47.6414878 47.999095,47.1386491 C47.6397617,46.8100039 47.159095,46.6091007 46.6329284,46.6044555 L46.0962617,46.6044555 C45.325095,46.6044555 44.6297617,47.0352943 44.282095,47.7274233 C44.0382617,48.2047136 43.9997617,48.7574878 44.1782617,49.2719394 C44.3474284,49.7771007 44.705595,50.1986491 45.1944284,50.4320684 L48.758595,52.2111652 C49.9054284,52.7813588 50.7792617,53.8114233 51.1654284,55.0284555 C51.9354284,57.5089717 50.5354284,60.1578749 48.0434284,60.9254878 Z" id="path-1"></path>
    </defs>
    <g id="DCU_Icon_PLP_Large_Black_Refinance-Home--" stroke="none" stroke-width="1" fill="none" fill-rule="evenodd">
        <mask id="mask-2" fill="white">
            <use xlink:href="#path-1"></use>
        </mask>
        <g id="Combined-Shape"></g>
        <g id="Color/Primary/Grey/Dark" mask="url(#mask-2)" fill="#3A3A3A">
            <rect id="Rectangle-Copy-12" x="0" y="0" width="93" height="72"></rect>
        </g>
    </g>
</svg>