<?xml version="1.0" encoding="utf-8"?>
<!-- Generator: Adobe Illustrator 24.0.1, SVG Export Plug-In . SVG Version: 6.00 Build 0)  -->
<svg version="1.1" id="Layer_1" xmlns="http://www.w3.org/2000/svg" xmlns:xlink="http://www.w3.org/1999/xlink" x="0px" y="0px"
	 viewBox="0 0 93 72" style="enable-background:new 0 0 93 72;" xml:space="preserve">
<style type="text/css">
	.st0{display:none;}
	
		.st1{display:inline;fill:none;stroke:#07926D;stroke-width:1.6667;stroke-linecap:round;stroke-linejoin:round;stroke-miterlimit:6.6667;}
	.st2{fill:none;stroke:#3A3A3A;stroke-width:1.6667;stroke-linecap:round;stroke-linejoin:round;stroke-miterlimit:6.6667;}
</style>
<title>DCU_Icon_PLP_Large_Green_Buying-Home</title>
<desc>Created with Sketch.</desc>
<g transform="matrix(1.6666666666666667,0,0,1.6666666666666667,0,0)" class="st0">
	<path class="st1" d="M34.2,35.1H10.7"/>
	<path class="st1" d="M22.5,38.3c0.2,0,0.5,0.2,0.5,0.5l0,0c0,0.2-0.2,0.5-0.5,0.5l0,0c-0.2,0-0.5-0.2-0.5-0.5l0,0
		C22,38.5,22.2,38.3,22.5,38.3"/>
	<path class="st1" d="M22.5,38.3L22.5,38.3"/>
	<path class="st1" d="M34.2,26.1v12.6c0,2-1.6,3.6-3.6,3.6H14.4c-2,0-3.6-1.6-3.6-3.6V4.4c0-2,1.6-3.6,3.6-3.6h9.9"/>
	<path class="st1" d="M23.4,9.9h21.7"/>
	<path class="st1" d="M34.2,15.3h5.4"/>
	<path class="st1" d="M25.2,4.4h18.1c1,0,1.8,0.8,1.8,1.8v12.6c0,1-0.8,1.8-1.8,1.8H25.2c-1,0-1.8-0.8-1.8-1.8V6.2
		C23.4,5.2,24.2,4.4,25.2,4.4z"/>
</g>
<g transform="matrix(1.6666666666666667,0,0,1.6666666666666667,0,0)">
	<path class="st2" d="M17.6,31.6h7.2"/>
	<path class="st2" d="M8.6,20.9h19.7"/>
	<path class="st2" d="M22.9,26.2v2.7c0,1.5-1.2,2.7-2.7,2.7"/>
	<path class="st2" d="M44.4,17.3V3c0-1-0.8-1.8-1.8-1.8H10.4C9.5,1.2,8.6,2,8.6,3v21.5c0,1,0.8,1.8,1.8,1.8h14.3"/>
	<path class="st2" d="M41.7,26.2h-3.6c-1.3,0-2.4,1.1-2.4,2.4c0,1,0.6,1.9,1.5,2.2l3.7,1.5c1.2,0.5,1.8,1.9,1.3,3.1
		C41.8,36.4,41,37,40,37h-3.6"/>
	<path class="st2" d="M39,38.8V37"/>
	<path class="st2" d="M39,26.2v-1.8"/>
	<path class="st2" d="M39,20.9c5.9,0,10.7,4.8,10.7,10.7S45,42.3,39,42.3s-10.7-4.8-10.7-10.7S33.1,20.9,39,20.9z"/>
</g>
</svg>
