<?xml version="1.0" encoding="UTF-8"?>
<svg width="60px" height="60px" viewBox="0 0 60 60" version="1.1" xmlns="http://www.w3.org/2000/svg" xmlns:xlink="http://www.w3.org/1999/xlink">
    <!-- Generator: Sketch 52.5 (67469) - http://www.bohemiancoding.com/sketch -->
    <title>DCU_Illustration_Homepage_Non-Functional_White_Member-Referral</title>
    <desc>Created with Sketch.</desc>
    <g id="DCU_Illustration_Homepage_Non-Functional_White_Member-Referral" stroke="none" stroke-width="1" fill="none" fill-rule="evenodd">
        <g id="Icon" fill="#FEFEFE">
            <path d="M20.0682,24.2109 C19.9642,24.2189 19.8102,24.2279 19.6082,24.2349 C19.3902,24.2439 19.2362,24.2489 19.1482,24.2489 C15.9442,24.2489 13.0382,22.9449 10.9342,20.8409 C8.8302,18.7359 7.5272,15.8309 7.5272,12.6259 C7.5272,9.4229 8.8302,6.5179 10.9332,4.4139 C13.0412,2.3059 15.9472,0.9999 19.1482,0.9999 C21.3982,0.9999 23.5032,1.6449 25.2872,2.7589 C27.1262,3.9079 28.6232,5.5609 29.5862,7.5249 L27.3582,8.6149 C26.6042,7.0759 25.4252,5.7769 23.9732,4.8699 C22.5742,3.9959 20.9212,3.4899 19.1482,3.4899 C16.6282,3.4899 14.3442,4.5129 12.6942,6.1639 C11.0412,7.8179 10.0172,10.1039 10.0172,12.6259 C10.0172,15.1439 11.0412,17.4269 12.6952,19.0799 C14.3482,20.7339 16.6302,21.7579 19.1482,21.7579 C19.3362,21.7579 19.4572,21.7569 19.5112,21.7549 C19.5852,21.7529 19.7052,21.7439 19.8732,21.7309 L20.0682,24.2109 Z" id="Fill-1"></path>
            <path d="M21.7967,28.4452 C21.2887,28.5742 20.7707,28.6732 20.2427,28.7382 C19.7217,28.8032 19.1927,28.8372 18.6627,28.8372 C16.9217,28.8372 15.2357,28.4862 13.6817,27.8172 C12.3127,27.2292 11.0457,26.3912 9.9347,25.3292 C8.0167,26.5362 6.4137,28.1282 5.1787,30.0282 C3.8297,32.1032 2.9127,34.5552 2.4927,37.2852 L2.4877,37.2902 L2.4557,37.5012 C2.2727,38.2382 1.5277,38.6572 0.8867,38.4732 C0.3417,38.3172 -0.0473,37.7522 0.0047,37.1222 C0.0157,37.0532 0.0257,36.9852 0.0357,36.9162 L0.0317,36.9162 C0.5047,33.8372 1.5517,31.0522 3.0967,28.6762 C4.6517,26.2832 6.7077,24.3132 9.1867,22.8802 L9.1957,22.8752 L9.5267,22.6872 L10.3707,22.2072 L11.0397,22.9102 L11.2997,23.1832 C12.2717,24.2022 13.4127,24.9942 14.6637,25.5312 C15.9067,26.0662 17.2597,26.3462 18.6627,26.3462 C19.0967,26.3462 19.5237,26.3202 19.9417,26.2682 C20.3607,26.2162 20.7757,26.1372 21.1847,26.0332 L21.7967,28.4452 Z" id="Fill-4"></path>
            <path d="M28.1707,31.4301 C30.3287,33.5891 33.3087,34.9261 36.5947,34.9261 C39.8827,34.9261 42.8617,33.5901 45.0187,31.4331 C47.1777,29.2731 48.5147,26.2891 48.5147,22.9991 C48.5147,19.7141 47.1777,16.7341 45.0197,14.5761 C42.8597,12.4171 39.8807,11.0811 36.5947,11.0811 C33.3057,11.0811 30.3247,12.4161 28.1697,14.5731 C26.0117,16.7311 24.6757,19.7141 24.6757,23.0061 C24.6757,26.2911 26.0127,29.2721 28.1707,31.4301 M36.5947,37.4161 C32.6207,37.4161 29.0187,35.8001 26.4097,33.1911 C23.8007,30.5811 22.1857,26.9791 22.1857,23.0061 C22.1857,19.0331 23.8007,15.4311 26.4087,12.8221 C29.0217,10.2091 32.6237,8.5911 36.5947,8.5911 C40.5667,8.5911 44.1707,10.2061 46.7787,12.8151 C49.3887,15.4241 51.0047,19.0261 51.0047,22.9991 C51.0047,26.9701 49.3887,30.5731 46.7777,33.1841 C44.1667,35.7971 40.5647,37.4161 36.5947,37.4161" id="Fill-6"></path>
            <path d="M26.0203,56.5478 L57.3303,56.5478 C57.3583,52.7148 56.6563,49.1728 55.0583,46.0758 C53.4993,43.0538 51.0743,40.4328 47.6243,38.3498 C46.1993,39.7548 44.5613,40.8568 42.7833,41.6208 C40.8523,42.4508 38.7573,42.8858 36.5943,42.8858 C34.4303,42.8858 32.3363,42.4508 30.4063,41.6208 C28.6283,40.8558 26.9903,39.7548 25.5653,38.3498 C24.9103,38.7448 24.2943,39.1578 23.7183,39.5868 C23.0113,40.1128 22.3563,40.6678 21.7493,41.2498 C21.7183,41.2168 20.9113,40.3788 20.8793,40.3458 C20.8493,40.3148 20.0573,39.4918 20.0273,39.4608 C20.6553,38.8638 21.3883,38.2268 22.2403,37.5928 C23.0203,37.0118 23.8533,36.4648 24.7393,35.9518 L24.7493,35.9468 L25.1683,35.7088 L26.0113,35.2288 L26.6813,35.9318 L27.0103,36.2778 C28.2763,37.6048 29.7613,38.6348 31.3883,39.3348 C33.0073,40.0308 34.7693,40.3958 36.5943,40.3958 C38.4193,40.3958 40.1813,40.0308 41.8003,39.3348 C43.4273,38.6348 44.9133,37.6048 46.1783,36.2778 L46.1883,36.2688 L46.5243,35.9228 L47.1983,35.2278 L48.0373,35.7138 L48.4503,35.9518 C52.5573,38.3238 55.4313,41.3788 57.2663,44.9378 C59.2373,48.7588 59.9933,53.1338 59.7793,57.8468 L59.7243,59.0378 L58.5393,59.0378 L26.0203,59.0378 C25.3883,58.9718 24.9033,58.4418 24.8913,57.8178 C24.8783,57.1758 25.3703,56.6168 26.0203,56.5478" id="Fill-8"></path>
            <path d="M1.5174,43.0815 C4.5254,40.2215 7.5324,37.3605 10.5394,34.5005 L10.6404,34.4045 C11.0634,34.0005 11.7284,34.0005 12.1514,34.4045 L12.2514,34.5005 C15.2204,37.3255 18.1894,40.1505 21.1584,42.9765 C21.5584,43.2825 21.7504,43.7885 21.6514,44.2715 C21.5404,44.8005 21.1014,45.2105 20.5524,45.2905 C19.5794,45.3105 18.6044,45.3305 17.6304,45.3505 C16.9794,45.3505 16.4714,45.9205 16.5404,46.5685 C16.7424,48.4475 17.1894,50.1085 17.8974,51.5755 C18.7794,53.4015 20.0784,54.9525 21.8284,56.2795 C22.2264,56.5815 22.3554,57.1255 22.1634,57.5885 L21.9184,58.1775 C21.7164,58.6625 21.1974,58.9445 20.6854,58.8295 C17.2054,58.0435 13.7744,56.5465 11.0974,53.9865 C9.0564,52.0355 7.4664,49.4885 6.6374,46.1995 C6.5134,45.7055 6.0824,45.3505 5.5734,45.3505 L3.0224,45.3505 C2.0264,45.4175 1.2444,44.8375 1.1394,44.1675 C1.0564,43.6345 1.4254,43.1865 1.5174,43.0815 M11.2824,37.2265 C11.1744,37.3425 5.9104,42.3575 5.6144,42.6395 C5.5774,42.6755 5.5644,42.7305 5.5834,42.7795 C5.6024,42.8245 5.6454,42.8595 5.7034,42.8595 L7.4864,42.8595 L8.4474,42.8595 C8.5104,42.8595 8.5644,42.9065 8.5744,42.9695 L8.7164,43.9255 C9.2594,47.5555 10.7694,50.2375 12.8094,52.1865 C14.0664,53.3885 15.5304,54.3235 17.1004,55.0375 C16.5464,54.2915 16.0674,53.4985 15.6604,52.6555 C14.4854,50.2225 13.9254,47.4005 13.9254,44.1045 L13.9254,42.9875 C13.9254,42.9175 13.9824,42.8595 14.0534,42.8595 L15.1704,42.8595 L17.0824,42.8595 C17.1984,42.8595 17.2544,42.7195 17.1714,42.6395 C15.6034,41.1405 11.7574,37.4745 11.5094,37.2265 C11.4994,37.2175 11.4524,37.1645 11.3884,37.1675 C11.3304,37.1695 11.2894,37.2175 11.2824,37.2265" id="Fill-11"></path>
        </g>
    </g>
</svg>